<?xml version="1.0" standalone="yes"?>
<svg xmlns="http://www.w3.org/2000/svg" width="386" height="386">
<path style="fill:#000000; stroke:none;" d="M0 0L0 386L136 386L136 370L129 370L129 378L104 378L104 330L97 330L97 338L88 338L88.5833 340.056L88.9167 342L88.9722 342.944L89 343.944L89 346L81 346L81 354L72 354L72 362L65 362L65 370L57 370L57 378L31 378L31 369L40 369L40 361L47 361L47 353L56 353L56 345L64 345L63.4167 342.944L63.0833 341L63.0278 340.056L63 339.056L63 337L71 337L71 329L80 329L80 321L87 321L87 313L96 313L96 305L104 305L104 233L112 233L112 224L120 224L120 216L128 216L128 209L136 209L136 201L128 201L128 194L120 194L120 168L128 168L128 152L136 152L136 136L144 136L144 112L152 112L152 104L160 104L160 96L168 96L168 87L225 87L225 95L177 95L177.778 95.7222L178.306 95.75L179.111 95.9445L180.028 95.9722L181 96L182 96L184 96L194 96L234 96L234 112L250 112L250 136L258 136L258 152L265 152L265 168L274 168L274 194L265 194L265 201L258 201L258 209L265 209L265 216L274 216L274 224L282 224L282 233L290 233L290 378L264 378L264 370L258 370L258 386L386 386L386 0L0 0z"/>
<path style="fill:#090a1c; stroke:none;" d="M168 87L168 96L160 96L160 104L152 104L152 112L144 112L144 136L153 136L153 112L160 112L160 104L168 104L168 96L171.056 96L172 96L174 95.9722L175 95.9167L177 95.6111L179 95.2222L180 95.0833L182 95L184 95L187 95L196 95L225 95L225 87L168 87z"/>
<path style="fill:#282824; stroke:none;" d="M168 96L168 104L160 104L160 112L153 112L153 128L160 128L160 113L161 112L168 112L168 104L176 104L176 101.944L176.028 100.944L176.083 100L176.417 98.0555L177 96L168 96z"/>
<path style="fill:#3f4544; stroke:none;" d="M177 96L177.778 96.7222L178.306 96.75L179.111 96.9445L180.028 96.9722L181 97L183 97L184 97L186 97L191 97L224 97L224 104L224.722 103.222L224.75 102.694L224.944 101.889L224.972 100.972L225 99.0555L225 98.0555L225 96L177 96z"/>
<path style="fill:#090a1c; stroke:none;" d="M225 96L225 104L234 104L234 96L225 96z"/>
<path style="fill:#373a36; stroke:none;" d="M176 97L176 104L176.722 103.222L176.75 102.694L176.944 101.889L176.972 100.972L176.944 99.1111L176.75 98.3055L176.722 97.7778L176 97z"/>
<path style="fill:#535a56; stroke:none;" d="M177 97L177 104L168 104L168 113L161 113L161 120L163.056 120L164.056 120.028L165 120.083L167 120.389L168 120.611L170 120.917L171 120.972L173 121L175 121L184 121L184 137L193 137L193 128L185 128L185 120L169 120L169 113L177 113L177 105L192 105L192 113L192.722 112.222L192.75 111.694L192.944 110.889L192.972 109.972L193 109L193 108L193 106L193 97L177 97z"/>
<path style="fill:#676a69; stroke:none;" d="M193 97L193 104L201 104L201 97L193 97z"/>
<path style="fill:#58605b; stroke:none;" d="M201 97L201 104L209 104L209 113L217 113L217 104L224 104L224 97L201 97z"/>
<path style="fill:#000033; stroke:none;" d="M158.333 101.667L158.333 102.333L158.667 102.333L158.667 102L158.333 101.667z"/>
<path style="fill:#999d9c; stroke:none;" d="M193 104L193 112L200 112L200 104L193 104z"/>
<path style="fill:#878b8a; stroke:none;" d="M200 104L200 112L193 112L193.778 112.722L194.306 112.75L195.111 112.944L196.028 112.972L197.944 113L198.944 113L201 113L201 109.944L201 109L200.972 107.028L200.944 106.111L200.75 105.306L200.722 104.778L200 104z"/>
<path style="fill:#444a46; stroke:none;" d="M201 104L201 128L209 128L209 137L209.722 136.222L209.75 135.694L209.944 134.889L209.972 133.972L210 132.056L210 131.056L210 129L233 129L233 137L241 137L241 144L249 144L249 137L241 137L241 121L234 121L234 128L209 128L209 120L224 120L224 113L209 113L209 104L201 104z"/>
<path style="fill:#6e7874; stroke:none;" d="M217 104L217.778 104.722L218.306 104.75L219.111 104.944L220.028 104.972L220.944 105L221.944 105L224 105L224 112L217 112L217.778 112.722L218.306 112.75L219.111 112.944L220.028 112.972L221 113L222 113L224 113L233 113L232.222 112.278L231.694 112.25L230.889 112.056L229.972 112.028L228.056 112L227.056 112L225 112L225 104L217 104z"/>
<path style="fill:#58605b; stroke:none;" d="M225 104L225 112L233 112L233 104L225 104z"/>
<path style="fill:#303537; stroke:none;" d="M233 104L233 113L241 113L240.222 112.278L239.694 112.25L238.889 112.056L237.972 112.028L237.056 112L236.056 112L234 112L234 109.944L234 108.944L233.972 107.028L233.944 106.111L233.75 105.306L233.722 104.778L233 104z"/>
<path style="fill:#090a1c; stroke:none;" d="M235 104L235 111L241 111L241 104L235 104z"/>
<path style="fill:#444a46; stroke:none;" d="M177 105L177 113L169 113L169 120L185 120L185 128L193 128L193 120L193 118L192.972 116L192.917 115L192.611 113L192.389 112L192.083 110L192.028 109L192 107.056L192 105L177 105z"/>
<path style="fill:#7b8681; stroke:none;" d="M217 105L217 112L224 112L224 105L217 105z"/>
<path style="fill:#3b3e3a; stroke:none;" d="M161 112L161.778 112.722L162.306 112.75L163.111 112.944L164.028 112.972L164.944 113L165.944 113L168 113L167.222 112.278L166.694 112.25L165.889 112.056L164.972 112.028L164.056 112L163.056 112L161 112z"/>
<path style="fill:#090a1c; stroke:none;" d="M241 112L241 136L250 136L250 138.056L249.972 140L249.917 141L249.611 143L249.389 144L249.083 146L249.028 147L249 149L249 149.944L249 153L257 153L257 168L265 168L265 193L257 193L257 169L250 169L250 177L233 177L233.583 179.056L233.917 180.944L233.972 181.944L234 184L251 184L251 201L241 201L241 210L234 210L234 217L233 218L225 218L224 217L224 210L223.278 210.778L223.25 211.306L223.056 212.111L223.028 213.028L223 213.944L223 214.944L223 217L217 217L217 214.944L217 213.944L216.972 212L216.917 211L216.611 209L216.389 208L216.083 206L216.028 205L216 204L216 202L216 199L216 198L216.083 196L216.222 195L216.611 193L216.917 191L216.972 190L217 188.056L217 187.056L217 185L211 185L211 199L211 203L211 204L210.972 206L210.917 207L210.611 209L210.389 210L210.083 212L210.028 213L210 214.944L210 217L199 217L199 186L195 186L195 209L193 209L193 217L183 217L183 184L193 184L193 177L177 177L177 185L169 185L169 192L177 192L177 217L170 217L170 210L169.278 210.778L169.25 211.306L169.056 212.111L169.028 213.028L169 213.944L169 214.944L169 217L159 217L159 210L153 210L152 209L152 201L144 201L144 184L153 184L153 200L168 200L168 193L160 193L160 177L152 177L152 174.944L152 173.944L152.028 172L152.083 171L152.389 169L152.611 168L152.917 166L152.972 165L153 163.056L153 161L145 161L145 168L144 169L137 169L137 193L128 193L128 168L136 168L136 152L128 152L128 168L120 168L120 194L128 194L128 201L136 201L136 209L128 209L128 216L120 216L120 224L112 224L112 233L104 233L104 297L113 297L113 305L120 305L119.222 304.278L118.694 304.25L117.889 304.056L117.028 304.028L116.056 304L114 304L114 297L114.722 298.5L114.75 299.056L114.944 300L114.972 300.944L115 303L120 303L120 289L145 289L145 306L137 306L137 314L129 314L129 316.056L129.028 318L129.083 319L129.389 321L129.778 323L129.917 324L130 326L130 328L130 331L130 341L130 370L136 370L136 386L194 386L194 370L200 370L200 386L258 386L258 370L264 370L264 378L290 378L290 233L282 233L282 224L274 224L274 216L265 216L265 209L258 209L258 201L265 201L265 194L274 194L274 168L265 168L265 152L258 152L258 136L250 136L250 112L241 112z"/>
<path style="fill:#464746; stroke:none;" d="M160 113L160 128L160.722 127.222L160.75 126.694L160.944 125.889L160.972 124.972L161 124L161 123L161 121L161 119L161 118L160.972 116.028L160.944 115.111L160.75 114.306L160.722 113.778L160 113z"/>
<path style="fill:#5d6560; stroke:none;" d="M193 113L193 144L201 144L201 137L209 137L209 128L201 128L201 113L193 113z"/>
<path style="fill:#5f6261; stroke:none;" d="M224 113L224 121L210 121L210 128L233 128L233 121L225 121L225 118.944L225 117.944L224.972 116.028L224.944 115.111L224.75 114.306L224.722 113.778L224 113z"/>
<path style="fill:#7b8681; stroke:none;" d="M225 113L225 120L233 120L233 113L225 113z"/>
<path style="fill:#58605b; stroke:none;" d="M233 113L233 120L240 120L240 113L233 113z"/>
<path style="fill:#4d5450; stroke:none;" d="M240 113L240 120L233 120L233 128L233.722 127.222L233.75 126.694L233.944 125.889L233.972 124.972L234 124.056L234 123.056L234 121L241 121L241 118.944L241 117.944L240.972 116.028L240.944 115.111L240.75 114.306L240.722 113.778L240 113z"/>
<path style="fill:#5f6261; stroke:none;" d="M161 120L161 128L184 128L184 121L176 121L174 121L172 120.972L171 120.917L169 120.611L168 120.389L166 120.083L165 120.028L163.056 120L161 120z"/>
<path style="fill:#555957; stroke:none;" d="M209 120L209 128L209.722 127.222L209.75 126.694L209.944 125.889L209.972 124.972L210 124.056L210 123.056L210 121L224 121L223.222 120.278L222.694 120.25L221.889 120.056L220.972 120.028L220 120L218 120L217 120L215 120L209 120z"/>
<path style="fill:#6c7370; stroke:none;" d="M225 120L225.778 120.722L226.306 120.75L227.111 120.944L228.028 120.972L229.944 121L230.944 121L233 121L232.222 120.278L231.694 120.25L230.889 120.056L229.972 120.028L228.056 120L227.056 120L225 120z"/>
<path style="fill:#353936; stroke:none;" d="M153 128L153 137L184 137L184 144L193 144L193 137L184 137L184 129L172 129L168 129L167 129L165 128.972L164 128.917L162 128.611L161 128.389L159 128.083L158 128.028L156.056 128L155.056 128L153 128z"/>
<path style="fill:#3f4240; stroke:none;" d="M161 128L161.778 128.722L162.306 128.75L163.111 128.944L164.028 128.972L166 129L167 129L169 129L184 129L183.222 128.278L182.694 128.25L181.889 128.056L180.972 128.028L179 128L178 128L176 128L161 128z"/>
<path style="fill:#353936; stroke:none;" d="M210 129L210 136L233 136L233 129L210 129z"/>
<path style="fill:#0a0b1c; stroke:none;" d="M136 136L136 144L144 144L144 136L136 136z"/>
<path style="fill:#282824; stroke:none;" d="M144 136L144 144L136 144L136 168L128 168L128 193L137 193L137 169L144 169L145 168L145 161L153 161L153 168L161 168L161 161L168 161L167.222 160.278L166.694 160.25L165.889 160.056L164.972 160.028L164.056 160L163.056 160L161 160L161 153L160.278 153.778L160.25 154.306L160.056 155.111L160.028 156.028L160 156.944L160 157.944L160 160L144 160L144 153L153 153L153 144L145 144L145 137L153 137L152.222 136.278L151.694 136.25L150.889 136.056L149.972 136.028L148 136L147.056 136L144 136z"/>
<path style="fill:#2b2e2f; stroke:none;" d="M210 136L210.778 136.722L211.306 136.75L212.111 136.944L213.028 136.972L215 137L216 137L218 137L233 137L232.222 136.278L231.694 136.25L230.889 136.056L229.972 136.028L228 136L227 136L225 136L210 136z"/>
<path style="fill:#292d30; stroke:none;" d="M241 136L241.778 136.722L242.306 136.75L243.111 136.944L244.028 136.972L245.944 137L246.944 137L249 137L249 144L249.722 143.222L249.75 142.694L249.944 141.889L249.972 140.972L250 139.056L250 138.056L250 136L241 136z"/>
<path style="fill:#2f3331; stroke:none;" d="M145 137L145 144L153 144L153 137L145 137z"/>
<path style="fill:#232625; stroke:none;" d="M153 137L153 144L161 144L161 137L153 137z"/>
<path style="fill:#010119; stroke:none;" d="M161 137L161 142L161.722 141.222L161.75 140.75L161.944 139.944L162 138L183 138L183 143L183.722 142.222L183.75 141.694L183.944 140.889L183.972 140.028L184 139.056L184 137L161 137z"/>
<path style="fill:#353936; stroke:none;" d="M201 137L201 144L209 144L209 137L201 137z"/>
<path style="fill:#191c23; stroke:none;" d="M209 137L209 144L209.722 143.222L209.75 142.694L209.944 141.889L209.972 140.972L209.944 139.111L209.75 138.306L209.722 137.778L209 137z"/>
<path style="fill:#010119; stroke:none;" d="M210 137L210 144L233 144L232.222 143.278L231.694 143.25L230.889 143.056L229.972 143.028L228 143L227 143L225 143L211 143L211 138L231 138L231 142L233 142L233 137L210 137z"/>
<path style="fill:#555c59; stroke:none;" d="M233 137L233 144L241 144L241 137L233 137z"/>
<path style="fill:#090a1c; stroke:none;" d="M162 138L161.917 139.5L161.778 140L161.583 141L161 143L163.056 143L165 142.972L166 142.917L168 142.611L169 142.389L171 142.083L172 142.028L174 142.083L176 142.389L177 142.611L179 142.917L179.944 142.972L180.944 143L183 143L183 138L162 138M211 138L211 143L233 143L232.333 141.917L231.611 140.778L231.111 139.472L231 138L211 138z"/>
<path style="fill:#191a26; stroke:none;" d="M168 142L168.778 142.722L169.306 142.75L170.111 142.944L171.028 142.972L173 143L173.944 143L177 143L176.222 142.278L175.694 142.25L174.889 142.056L173.972 142.028L172 142L171.056 142L168 142z"/>
<path style="fill:#000000; stroke:none;" d="M161 143L161.778 143.722L162.306 143.75L163.111 143.944L164.028 143.972L166 144L167 144L169 144L184 144L183.222 143.278L182.694 143.25L181.889 143.056L180.972 143.028L179 143L178 143L176 143L161 143z"/>
<path style="fill:#404040; stroke:none;" d="M134 144L134 151L134.722 150.222L134.75 149.694L134.944 148.889L134.972 147.972L134.944 146.111L134.75 145.306L134.722 144.778L134 144z"/>
<path style="fill:#090a1c; stroke:none;" d="M153 144L153 160L160 160L160 144L153 144z"/>
<path style="fill:#3f4144; stroke:none;" d="M160 144L160 153L160.722 152.222L160.75 151.694L160.944 150.889L161 149L160.972 147.028L160.944 146.111L160.75 145.306L160.722 144.778L160 144z"/>
<path style="fill:#535655; stroke:none;" d="M161 144L161.778 144.722L162.306 144.75L163.111 144.944L163.972 144.972L164.944 145L167 145L167 152L161 152L161.778 152.722L162.306 152.75L163.111 152.944L164.028 152.972L164.944 153L165.944 153L168 153L168 144L161 144z"/>
<path style="fill:#9fa3a3; stroke:none;" d="M168 144L168.778 144.722L169.306 144.75L170.111 144.944L171.028 144.972L173 145L173.944 145L177 145L176.222 144.278L175.694 144.25L174.889 144.056L173.972 144.028L172 144L171.056 144L168 144z"/>
<path style="fill:#454749; stroke:none;" d="M177 144L177.778 144.722L178.306 144.75L179.111 144.944L180.028 144.972L180.944 145L181.944 145L184 145L184 153L184.722 152.222L184.75 151.694L184.944 150.889L184.972 149.972L185 148L185 147.056L185 144L177 144z"/>
<path style="fill:#202327; stroke:none;" d="M185 144L185.778 144.722L186.306 144.75L187.111 144.944L188.028 144.972L189.944 145L190.944 145L193 145L192.222 144.278L191.694 144.25L190.889 144.056L189.972 144.028L188.056 144L187.056 144L185 144z"/>
<path style="fill:#424844; stroke:none;" d="M193 144L193.778 144.722L194.306 144.75L195.111 144.944L196.028 144.972L197.944 145L198.944 145L201 145L200.222 144.278L199.694 144.25L198.889 144.056L197.972 144.028L196.056 144L195.056 144L193 144z"/>
<path style="fill:#202327; stroke:none;" d="M201 144L201.778 144.722L202.306 144.75L203.111 144.944L204.028 144.972L205.944 145L206.944 145L209 145L208.222 144.278L207.694 144.25L206.889 144.056L205.972 144.028L204.056 144L203.056 144L201 144z"/>
<path style="fill:#545757; stroke:none;" d="M209 144L209 153L216 153L216 150.944L216 149.944L216.083 148L216.222 147.056L216.417 146.056L217 144L209 144z"/>
<path style="fill:#a8adac; stroke:none;" d="M217 144L217.778 144.722L218.306 144.75L219.111 144.944L220.028 144.972L220.944 145L221.944 145L224 145L224 152L217 152L217.778 152.722L218.306 152.75L219.111 152.944L220.028 152.972L221.944 153L222.944 153L225 153L225 144L217 144z"/>
<path style="fill:#515453; stroke:none;" d="M225 144L225 153L233 153L232.222 152.278L231.694 152.25L230.889 152.056L229.972 152.028L229.056 152L228.056 152L226 152L226 145L233 145L232.222 144.278L231.694 144.25L230.889 144.056L229.972 144.028L228.056 144L227.056 144L225 144z"/>
<path style="fill:#2f3331; stroke:none;" d="M233 144L233 153L233.722 152.222L233.75 151.694L233.944 150.889L233.972 149.972L234 148.056L234 147.056L234 145L241 145L241 153L249 153L249 144L233 144z"/>
<path style="fill:#5f6261; stroke:none;" d="M161 145L161 152L167 152L167 145L161 145z"/>
<path style="fill:#b2b7b6; stroke:none;" d="M168 145L168 153L177 153L177 145L176.278 145.778L176.25 146.306L176.056 147.111L176.028 148.028L176 148.944L176 149.944L176 152L169 152L169 149.944L169 148.944L168.972 148.028L168.944 147.111L168.75 146.306L168.722 145.778L168 145z"/>
<path style="fill:#c1c6c5; stroke:none;" d="M169 145L169 152L176 152L176 145L169 145z"/>
<path style="fill:#5f6261; stroke:none;" d="M177 145L177 153L184 153L184 145L177 145z"/>
<path style="fill:#090a1c; stroke:none;" d="M185 145L185 161L161 161L161 167L193 167L193 145L185 145z"/>
<path style="fill:#2a2e2c; stroke:none;" d="M193 145L193 167L201 167L201 145L193 145z"/>
<path style="fill:#090a1c; stroke:none;" d="M201 145L201 168L233 168L233 161L209 161L209 145L201 145z"/>
<path style="fill:#5f6261; stroke:none;" d="M210 145L210 152L215 152L215 145L210 145z"/>
<path style="fill:#707372; stroke:none;" d="M216 145L216 153L216.722 152.222L216.75 151.694L216.944 150.889L216.972 149.972L217 149L216.944 147.111L216.75 146.306L216.722 145.778L216 145z"/>
<path style="fill:#c1c6c5; stroke:none;" d="M217 145L217 152L224 152L224 145L217 145z"/>
<path style="fill:#5f6261; stroke:none;" d="M226 145L226 152L233 152L233 145L226 145z"/>
<path style="fill:#090a1c; stroke:none;" d="M234 145L234 147.056L233.972 149L233.917 150L233.611 152L233.389 153L233.083 155L233.028 156L233 157.944L233 160L240 160L240 157.944L240.028 156.944L240.083 156L240.389 154L240.611 153L240.917 151L240.972 150L241 148.056L241 147.056L241 145L234 145z"/>
<path style="fill:#2f3330; stroke:none;" d="M144 153L144 160L153 160L153 153L144 153z"/>
<path style="fill:#2e3231; stroke:none;" d="M161 153L161 160L168 160L168 153L161 153z"/>
<path style="fill:#494c4d; stroke:none;" d="M168 153L168 161L177 161L176.222 160.278L175.694 160.25L174.889 160.056L173.972 160.028L172.056 160L171.056 160L169 160L169 157.944L169 156.944L168.972 156.028L168.944 155.111L168.75 154.306L168.722 153.778L168 153z"/>
<path style="fill:#606362; stroke:none;" d="M169 153L169 160L177 160L177 153L169 153z"/>
<path style="fill:#2e3231; stroke:none;" d="M177 153L177 160L184 160L184 153L177 153z"/>
<path style="fill:#212428; stroke:none;" d="M184 153L184 160L177 160L177.778 160.722L178.306 160.75L179.111 160.944L180.028 160.972L181.944 161L182.944 161L185 161L185 158.944L185 157.944L184.972 156.028L184.944 155.111L184.75 154.306L184.722 153.778L184 153z"/>
<path style="fill:#2d3130; stroke:none;" d="M209 153L209 161L217 161L217 153L209 153z"/>
<path style="fill:#5f6261; stroke:none;" d="M217 153L217 160L224 160L224 153L217 153z"/>
<path style="fill:#494c4d; stroke:none;" d="M224 153L224 160L217 160L217.778 160.722L218.306 160.75L219.111 160.944L220.028 160.972L221.944 161L222.944 161L225 161L225 158.944L225 157.944L224.972 156.028L224.944 155.111L224.75 154.306L224.722 153.778L224 153z"/>
<path style="fill:#232629; stroke:none;" d="M225 153L225 161L241 161L241 153L240.278 153.778L240.25 154.306L240.056 155.111L240.028 156.028L240 156.944L240 157.944L240 160L226 160L226 157.944L226 156.944L225.972 156.028L225.944 155.111L225.75 154.306L225.722 153.778L225 153z"/>
<path style="fill:#2e3231; stroke:none;" d="M226 153L226 160L233 160L233 153L226 153z"/>
<path style="fill:#565e59; stroke:none;" d="M241 153L241 168L249 168L249 153L241 153z"/>
<path style="fill:#404541; stroke:none;" d="M249 153L249 168L257 168L257 160L250 160L250 157.944L250 156.944L249.972 156.028L249.944 155.111L249.75 154.306L249.722 153.778L249 153z"/>
<path style="fill:#2f3331; stroke:none;" d="M250 153L250 160L257 160L257 153L250 153z"/>
<path style="fill:#363d31; stroke:none;" d="M233 161L233 168L241 168L241 161L233 161z"/>
<path style="fill:#000017; stroke:none;" d="M161 167L161.778 167.722L162.306 167.75L163.111 167.944L164.028 167.972L166 168L168 168L171 168L193 168L192.222 167.278L191.694 167.25L190.889 167.056L189.972 167.028L188 167L186 167L183 167L161 167z"/>
<path style="fill:#0e1511; stroke:none;" d="M193 167L193.778 167.722L194.306 167.75L195.111 167.944L196.028 167.972L197.944 168L198.944 168L201 168L200.222 167.278L199.694 167.25L198.889 167.056L197.972 167.028L196.056 167L195.056 167L193 167z"/>
<path style="fill:#1d2028; stroke:none;" d="M152 168L152 177L152.722 176.222L152.75 175.694L152.944 174.889L152.972 173.972L153 172L152.944 170.111L152.75 169.306L152.722 168.778L152 168z"/>
<path style="fill:#464c4a; stroke:none;" d="M153 168L153 177L161 177L161 169L177 169L176.222 168.278L175.694 168.25L174.889 168.056L173.972 168.028L172 168L171 168L169 168L153 168z"/>
<path style="fill:#37393a; stroke:none;" d="M177 168L177.778 168.722L178.306 168.75L179.111 168.944L180.028 168.972L181 169L183 169L184 169L186 169L191 169L191 176L185 176L185.778 176.722L186.306 176.75L187.111 176.944L188.028 176.972L188.944 177L189.944 177L192 177L192 174.944L192 173.944L192.083 172L192.222 171.056L192.417 170.056L193 168L177 168z"/>
<path style="fill:#868a89; stroke:none;" d="M193 168L193.778 168.722L194.306 168.75L195.111 168.944L196.028 168.972L196.944 169L197.944 169L200 169L200 176L193 176L193.778 176.722L194.306 176.75L195.111 176.944L196.028 176.972L197.944 177L198.944 177L201 177L201 168L193 168z"/>
<path style="fill:#37393a; stroke:none;" d="M201 168L201 177L209 177L208.222 176.278L207.694 176.25L206.889 176.056L205.972 176.028L205.056 176L204.056 176L202 176L202 169L209 169L208.222 168.278L207.694 168.25L206.889 168.056L205.972 168.028L204.056 168L203.056 168L201 168z"/>
<path style="fill:#232625; stroke:none;" d="M209 168L209 209L209.722 208.222L209.75 207.694L209.944 206.889L209.972 205.972L210 204L210 203L210 201L210 185L217 185L216.222 184.278L215.694 184.25L214.889 184.056L213.972 184.028L213.056 184L212.056 184L210 184L210 177L216 177L216 174.944L216 173.944L216.083 172L216.222 171.056L216.417 170.056L217 168L209 168z"/>
<path style="fill:#454b4a; stroke:none;" d="M217 168L217.778 168.722L218.306 168.75L219.111 168.944L220.028 168.972L221.944 169L222.944 169L225 169L224.222 168.278L223.694 168.25L222.889 168.056L221.972 168.028L220.056 168L219.056 168L217 168z"/>
<path style="fill:#5c6560; stroke:none;" d="M225 168L225.778 168.722L226.306 168.75L227.111 168.944L228.028 168.972L229 169L230 169L232 169L241 169L240.222 168.278L239.694 168.25L238.889 168.056L237.972 168.028L237 168L236 168L234 168L225 168z"/>
<path style="fill:#444a46; stroke:none;" d="M241 168L241 177L249 177L249 168L241 168z"/>
<path style="fill:#23262b; stroke:none;" d="M249 168L249 177L249.722 176.222L249.75 175.694L249.944 174.889L249.972 173.972L250 172.056L250 171.056L250 169L257 169L256.222 168.278L255.694 168.25L254.889 168.056L253.972 168.028L252.056 168L251.056 168L249 168z"/>
<path style="fill:#414642; stroke:none;" d="M257 168L257 177L265 177L265 168L257 168z"/>
<path style="fill:#555c59; stroke:none;" d="M161 169L161 177L177 177L177 169L161 169z"/>
<path style="fill:#414343; stroke:none;" d="M177 169L177 177L179.056 177L180.056 177L182 176.972L183 176.917L185 176.611L186 176.389L187.944 176.083L188.944 176.028L191 176L191 169L177 169z"/>
<path style="fill:#4a4d4c; stroke:none;" d="M192 169L192 177L192.722 176.222L192.75 175.694L192.944 174.889L193 173L192.972 172.028L192.944 171.111L192.75 170.306L192.722 169.778L192 169z"/>
<path style="fill:#979b9a; stroke:none;" d="M193 169L193 176L200 176L200 169L193 169z"/>
<path style="fill:#414343; stroke:none;" d="M202 169L202 176L209 176L209 169L202 169z"/>
<path style="fill:#2f3331; stroke:none;" d="M216 169L216 177L210 177L210 184L217 184L217 193L225 193L225 184L233 184L233 177L217 177L217 174.944L217 173.944L216.972 172.028L216.944 171.111L216.75 170.306L216.722 169.778L216 169z"/>
<path style="fill:#525956; stroke:none;" d="M217 169L217 177L225 177L225 169L217 169z"/>
<path style="fill:#68716d; stroke:none;" d="M225 169L225 176L241 176L241 169L225 169z"/>
<path style="fill:#5c6562; stroke:none;" d="M225 176L225.778 176.722L226.306 176.75L227.111 176.944L228.028 176.972L229 177L230 177L232 177L241 177L240.222 176.278L239.694 176.25L238.889 176.056L237.972 176.028L237 176L236 176L234 176L225 176z"/>
<path style="fill:#1f2226; stroke:none;" d="M160 177L160 193L160.722 192.222L160.75 191.694L160.944 190.889L160.972 189.972L161 188L161 187L161 185L161 183L161 182L160.972 180.028L160.944 179.111L160.75 178.306L160.722 177.778L160 177z"/>
<path style="fill:#2f3331; stroke:none;" d="M161 177L161 193L168 193L168 184L177 184L177 177L161 177z"/>
<path style="fill:#2c2e34; stroke:none;" d="M193 177L193.778 177.722L194.306 177.75L195.111 177.944L196.028 177.972L196.944 178L197.944 178L200 178L200 184L193 184L193.778 184.722L194.306 184.75L195.111 184.944L196.028 184.972L196.944 185L197.944 185L200 185L200 209L200.722 208.222L200.75 207.694L200.944 206.889L200.972 205.972L201 204L201 203L201 201L201 185L209 185L208.222 184.278L207.694 184.25L206.889 184.056L205.972 184.028L204.056 184L203.056 184L201 184L201 177L193 177z"/>
<path style="fill:#090a1c; stroke:none;" d="M201 177L201 184L209 184L209 177L201 177z"/>
<path style="fill:#282824; stroke:none;" d="M257 177L257 193L265 193L265 177L257 177z"/>
<path style="fill:#414343; stroke:none;" d="M193 178L193 184L200 184L200 178L193 178z"/>
<path style="fill:#232625; stroke:none;" d="M233 178L233 184L225 184L225.778 184.722L226.306 184.75L227.111 184.944L228.028 184.972L229.944 185L230.944 185L233 185L233 193L240 193L240 190.944L240 189.944L240.083 188L240.222 187.056L240.417 186.056L241 184L234 184L234 181.944L233.972 180.972L233.944 180.111L233.75 179.306L233.722 178.778L233 178M144 184L144 193L153 193L153 184L144 184z"/>
<path style="fill:#1a1c24; stroke:none;" d="M168 184L168 193L177 193L176.222 192.278L175.694 192.25L174.889 192.056L173.972 192.028L172.056 192L171.056 192L169 192L169 185L177 185L176.222 184.278L175.694 184.25L174.889 184.056L173.972 184.028L172 184L171.056 184L168 184z"/>
<path style="fill:#00000f; stroke:none;" d="M183 184L183 217L183.722 216.222L183.75 215.694L183.944 214.889L183.972 213.972L184 212L184 211L184 209L184 192L184 190L184 189L183.972 187.028L183.944 186.111L183.75 185.306L183.722 184.778L183 184z"/>
<path style="fill:#3a3d40; stroke:none;" d="M184 184L184 209L184.722 208.222L184.75 207.694L184.944 206.889L184.972 205.972L185 204L185 203L185 201L185 185L193 185L192.222 184.278L191.694 184.25L190.889 184.056L189.972 184.028L188 184L187.056 184L184 184z"/>
<path style="fill:#292d30; stroke:none;" d="M241 184L241.778 184.722L242.306 184.75L243.111 184.944L244.028 184.972L245.944 185L246.944 185L249 185L249 201L249.722 200.222L249.75 199.694L249.944 198.889L249.972 197.972L250 197L250 196L250 194L250 184L241 184z"/>
<path style="fill:#00000f; stroke:none;" d="M250 184L250 201L250.722 200.222L250.75 199.694L250.944 198.889L250.972 197.972L251 197L251 196L251 194L251 191L251 189L250.972 187.028L250.944 186.111L250.75 185.306L250.722 184.778L250 184z"/>
<path style="fill:#525555; stroke:none;" d="M185 185L185 209L193 209L193 185L185 185z"/>
<path style="fill:#161723; stroke:none;" d="M193 185L193 209L193.722 208.222L193.75 207.694L193.944 206.889L193.972 205.972L194 205L194 204L194 202L194 192L194 190L194 189L193.972 188.028L193.944 187.111L193.75 186.306L193.722 185.778L193 185z"/>
<path style="fill:#000012; stroke:none;" d="M194 185L194 209L194.722 208.222L194.75 207.694L194.944 206.889L194.972 205.972L195 204L195 203L195 201L195 186L199 186L199 217L199.722 216.222L199.75 215.694L199.944 214.889L199.972 213.972L200 212L200 210L200 207L200 185L194 185z"/>
<path style="fill:#525555; stroke:none;" d="M201 185L201 209L209 209L209 185L201 185z"/>
<path style="fill:#000014; stroke:none;" d="M210 185L210 210L210.722 209.222L210.75 208.694L210.944 207.889L210.972 206.972L211 206L211 205L211 203L211 192L211 190L211 189L210.972 188.028L210.944 187.111L210.75 186.306L210.722 185.778L210 185z"/>
<path style="fill:#090a1c; stroke:none;" d="M225 185L225 201L227.056 201L228.056 201L230 200.972L231 200.917L233 200.611L234 200.389L236 200.083L236.944 200.028L237.944 200L240 200L240 193L233 193L233 185L225 185z"/>
<path style="fill:#2e3236; stroke:none;" d="M240 185L240 200L233 200L233.778 200.722L234.306 200.75L235.111 200.944L236.028 200.972L237.944 201L238.944 201L241 201L241 192L241 190L241 189L240.972 188.028L240.944 187.111L240.75 186.306L240.722 185.778L240 185z"/>
<path style="fill:#444a46; stroke:none;" d="M241 185L241 193L249 193L249 185L241 185z"/>
<path style="fill:#494f4d; stroke:none;" d="M144 193L144 201L153 201L153 193L152.278 193.778L152.25 194.306L152.056 195.111L152.028 196.028L152 196.944L152 197.944L152 200L145 200L145 197.944L145 196.944L144.972 196.028L144.944 195.111L144.75 194.306L144.722 193.778L144 193z"/>
<path style="fill:#555c59; stroke:none;" d="M145 193L145 200L152 200L152 193L145 193z"/>
<path style="fill:#494c4b; stroke:none;" d="M168 193L168 209L168.722 208.222L168.75 207.694L168.944 206.889L168.972 205.972L169 204L169 203L169 201L169 199L169 198L168.972 196.028L168.944 195.111L168.75 194.306L168.722 193.778L168 193z"/>
<path style="fill:#525555; stroke:none;" d="M169 193L169 209L176 209L176 193L169 193z"/>
<path style="fill:#494b4c; stroke:none;" d="M176 193L176 209L176.722 208.222L176.75 207.694L176.944 206.889L176.972 205.972L177 204L177 203L177 201L177 199L177 198L176.972 196.028L176.944 195.111L176.75 194.306L176.722 193.778L176 193z"/>
<path style="fill:#1c1d27; stroke:none;" d="M216 193L216 209L216.722 208.222L216.75 207.694L216.944 206.889L216.972 205.972L217 204L217 203L217 201L217 199L217 198L216.972 196.028L216.944 195.111L216.75 194.306L216.722 193.778L216 193z"/>
<path style="fill:#525555; stroke:none;" d="M217 193L217 209L224 209L224 193L217 193z"/>
<path style="fill:#474a4a; stroke:none;" d="M224 193L224 209L224.722 208.222L224.75 207.694L224.944 206.889L224.972 205.972L225 204L225 203L225 201L225 199L225 198L224.972 196.028L224.944 195.111L224.75 194.306L224.722 193.778L224 193z"/>
<path style="fill:#555c59; stroke:none;" d="M241 193L241 200L249 200L249 193L241 193z"/>
<path style="fill:#2b2f2d; stroke:none;" d="M153 200L153.778 200.722L154.306 200.75L155.111 200.944L156.028 200.972L157.944 201L158.944 201L161 201L161 209L168 209L168 200L153 200z"/>
<path style="fill:#494f4d; stroke:none;" d="M241 200L241.778 200.722L242.306 200.75L243.111 200.944L244.028 200.972L245.944 201L246.944 201L249 201L248.222 200.278L247.694 200.25L246.889 200.056L245.972 200.028L244.056 200L243.056 200L241 200z"/>
<path style="fill:#24272d; stroke:none;" d="M152 201L152 209L152.722 208.222L152.75 207.694L152.944 206.889L153 205L152.972 204.028L152.944 203.111L152.75 202.306L152.722 201.778L152 201z"/>
<path style="fill:#555c59; stroke:none;" d="M153 201L153 209L160 209L160 201L153 201z"/>
<path style="fill:#474d4a; stroke:none;" d="M160 201L160 209L160.722 208.222L160.75 207.694L160.944 206.889L160.972 205.972L161 205L160.944 203.111L160.75 202.306L160.722 201.778L160 201z"/>
<path style="fill:#2a2e2c; stroke:none;" d="M225 201L225 208L233 208L233 201L225 201z"/>
<path style="fill:#575e5b; stroke:none;" d="M233 201L233 209L241 209L241 201L233 201z"/>
<path style="fill:#000033; stroke:none;" d="M134.333 206.667L134.333 207.333L134.667 207.333L134.667 206.667L134.333 206.667z"/>
<path style="fill:#1b201d; stroke:none;" d="M225 208L225.778 208.722L226.306 208.75L227.111 208.944L228.028 208.972L229.944 209L230.944 209L233 209L232.222 208.278L231.694 208.25L230.889 208.056L229.972 208.028L228.056 208L227.056 208L225 208z"/>
<path style="fill:#292d31; stroke:none;" d="M153 209L153.778 209.722L154.306 209.75L155.111 209.944L155.972 209.972L156.944 210L159 210L158.222 209.278L157.694 209.25L156.889 209.056L156.028 209.028L155.056 209L153 209z"/>
<path style="fill:#000000; stroke:none;" d="M159 209L159 217L159.722 216.222L159.75 215.694L159.944 214.889L159.972 213.972L160 213L159.944 211.111L159.75 210.306L159.722 209.778L159 209z"/>
<path style="fill:#66696a; stroke:none;" d="M160 209L160 217L160.722 216.222L160.75 215.694L160.944 214.889L160.972 213.972L161 213L160.944 211.111L160.75 210.306L160.722 209.778L160 209z"/>
<path style="fill:#898c8b; stroke:none;" d="M161 209L161.778 209.722L162.306 209.75L163.111 209.944L164.028 209.972L164.944 210L165.944 210L168 210L167.222 209.278L166.694 209.25L165.889 209.056L164.972 209.028L164.056 209L163.056 209L161 209z"/>
<path style="fill:#5f6261; stroke:none;" d="M168 209L168 217L168.722 216.222L168.75 215.694L168.944 214.889L168.972 213.972L169 213L168.944 211.111L168.75 210.306L168.722 209.778L168 209z"/>
<path style="fill:#303431; stroke:none;" d="M169 209L169.583 211.056L169.917 213L169.972 213.944L170 214.944L170 217L177 217L177 209L169 209M184 209L184 217L193 217L193 210L190.944 210L189.944 210L188 209.917L187.056 209.778L186.056 209.583L184 209z"/>
<path style="fill:#3a3d3b; stroke:none;" d="M185 209L185.778 209.722L186.306 209.75L187.111 209.944L188.028 209.972L189.944 210L190.944 210L193 210L192.222 209.278L191.694 209.25L190.889 209.056L189.972 209.028L188.056 209L187.056 209L185 209z"/>
<path style="fill:#1a1c23; stroke:none;" d="M200 209L200 217L200.722 216.222L200.75 215.694L200.944 214.889L200.972 213.972L201 213L200.944 211.111L200.75 210.306L200.722 209.778L200 209z"/>
<path style="fill:#3a3d3b; stroke:none;" d="M201 209L201.778 209.722L202.306 209.75L203.111 209.944L204.028 209.972L205.944 210L206.944 210L209 210L208.222 209.278L207.694 209.25L206.889 209.056L205.972 209.028L204.056 209L203.056 209L201 209z"/>
<path style="fill:#171922; stroke:none;" d="M209 209L209 217L209.722 216.222L209.75 215.694L209.944 214.889L209.972 213.972L210 213L209.944 211.111L209.75 210.306L209.722 209.778L209 209z"/>
<path style="fill:#303431; stroke:none;" d="M217 209L217 217L223 217L223 214.944L223.028 213.944L223.083 213L223.417 211.056L224 209L217 209z"/>
<path style="fill:#646766; stroke:none;" d="M224 209L224 217L224.722 216.222L224.75 215.694L224.944 214.889L225 213L224.972 212.028L224.944 211.111L224.75 210.306L224.722 209.778L224 209z"/>
<path style="fill:#898d8b; stroke:none;" d="M225 209L225.778 209.722L226.306 209.75L227.111 209.944L228.028 209.972L229.944 210L230.944 210L233 210L232.222 209.278L231.694 209.25L230.889 209.056L229.972 209.028L228.056 209L227.056 209L225 209z"/>
<path style="fill:#424448; stroke:none;" d="M233 209L233 217L233.722 216.222L233.75 215.694L233.944 214.889L233.972 213.972L234 213L233.944 211.111L233.75 210.306L233.722 209.778L233 209z"/>
<path style="fill:#292d31; stroke:none;" d="M234 209L234.778 209.722L235.306 209.75L236.111 209.944L237.028 209.972L237.944 210L238.944 210L241 210L240.222 209.278L239.694 209.25L238.889 209.056L237.972 209.028L237.056 209L236.056 209L234 209z"/>
<path style="fill:#979b9a; stroke:none;" d="M161 210L161 217L168 217L168 210L161 210z"/>
<path style="fill:#313532; stroke:none;" d="M201 210L201 217L209 217L209 210L201 210z"/>
<path style="fill:#989c9b; stroke:none;" d="M225 210L225 217L233 217L233 210L225 210z"/>
<path style="fill:#363b38; stroke:none;" d="M136 217L136 225L128 225L128 233L121 233L121 241L128 241L128 233L137 233L137 225L145 225L145 217L144.278 217.778L144.25 218.306L144.056 219.111L144.028 220.028L144 220.944L144 221.944L144 224L137 224L137 221.944L137 220.944L136.972 220.028L136.944 219.111L136.75 218.306L136.722 217.778L136 217z"/>
<path style="fill:#444a46; stroke:none;" d="M137 217L137 224L144 224L144 217L137 217z"/>
<path style="fill:#2a2e2c; stroke:none;" d="M145 217L145 225L137 225L137 233L144 233L144 241L153 241L153 281L161 281L161 224L153 224L153 217L145 217z"/>
<path style="fill:#191a25; stroke:none;" d="M225 217L225.778 217.722L226.306 217.75L227.111 217.944L228.028 217.972L229.944 218L230.944 218L233 218L232.222 217.278L231.694 217.25L230.889 217.056L229.972 217.028L228.056 217L227.056 217L225 217z"/>
<path style="fill:#232625; stroke:none;" d="M240 217L240 224L233 224L233 240L241 240L241 289L249 289L249 224L257 224L257 217L240 217z"/>
<path style="fill:#202328; stroke:none;" d="M128 224L128.778 224.722L129.306 224.75L130.111 224.944L131.028 224.972L132.944 225L133.944 225L136 225L135.222 224.278L134.694 224.25L133.889 224.056L132.972 224.028L131.056 224L130.056 224L128 224z"/>
<path style="fill:#171921; stroke:none;" d="M168 224L168.778 224.722L169.306 224.75L170.111 224.944L171.028 224.972L172 225L173 225L175 225L185 225L225 225L224.222 224.278L223.694 224.25L222.889 224.056L221.972 224.028L221 224L220 224L218 224L208 224L168 224z"/>
<path style="fill:#353936; stroke:none;" d="M249 224L249 233L257 233L257 224L249 224z"/>
<path style="fill:#232624; stroke:none;" d="M257 224L257 241L273 241L273 249L281 249L281 241L273 241L273 233L265 233L265 224L257 224z"/>
<path style="fill:#303431; stroke:none;" d="M168 225L168 233L177 233L177 225L168 225z"/>
<path style="fill:#272a28; stroke:none;" d="M177 225L177 233L184 233L184 225L177 225z"/>
<path style="fill:#303431; stroke:none;" d="M184 225L184 233L193 233L193 225L184 225z"/>
<path style="fill:#272a28; stroke:none;" d="M193 225L193 233L201 233L201 225L193 225z"/>
<path style="fill:#303431; stroke:none;" d="M201 225L201 233L209 233L209 225L201 225z"/>
<path style="fill:#272a28; stroke:none;" d="M209 225L209 233L217 233L217 225L209 225z"/>
<path style="fill:#303431; stroke:none;" d="M217 225L217 233L225 233L225 225L217 225z"/>
<path style="fill:#292d2e; stroke:none;" d="M120 233L120 241L120.722 240.222L120.75 239.694L120.944 238.889L120.972 237.972L121 237L120.944 235.111L120.75 234.306L120.722 233.778L120 233z"/>
<path style="fill:#232624; stroke:none;" d="M128 233L128 241L120 241L120 281L128 281L128 241L137 241L137 233L128 233z"/>
<path style="fill:#06071b; stroke:none;" d="M137 233L137 241L144 241L144 233L137 233z"/>
<path style="fill:#454b47; stroke:none;" d="M249 233L249 241L257 241L257 233L249 233z"/>
<path style="fill:#07071c; stroke:none;" d="M258 233L258 240L265 240L265 233L258 233z"/>
<path style="fill:#000018; stroke:none;" d="M177 239L177.778 239.722L178.306 239.75L179.111 239.944L180.028 239.972L181 240L183 240L184 240L186 240L191 240L225 240L224.222 239.278L223.694 239.25L222.889 239.056L221.972 239.028L221 239L219 239L218 239L216 239L211 239L177 239z"/>
<path style="fill:#1c1f26; stroke:none;" d="M177 240L177.778 240.722L178.306 240.75L179.111 240.944L180.028 240.972L182 241L184 241L187 241L209 241L208.222 240.278L207.694 240.25L206.889 240.056L205.972 240.028L204 240L202 240L199 240L177 240z"/>
<path style="fill:#18481b; stroke:none;" d="M209 240L209.778 240.722L210.306 240.75L211.111 240.944L212.028 240.972L213.944 241L214.944 241L217 241L216.222 240.278L215.694 240.25L214.889 240.056L213.972 240.028L212.056 240L211.056 240L209 240z"/>
<path style="fill:#23272c; stroke:none;" d="M217 240L217.778 240.722L218.306 240.75L219.111 240.944L220.028 240.972L221.944 241L222.944 241L225 241L224.222 240.278L223.694 240.25L222.889 240.056L221.972 240.028L220.056 240L219.056 240L217 240z"/>
<path style="fill:#323634; stroke:none;" d="M233 240L233.778 240.722L234.306 240.75L235.111 240.944L236.028 240.972L237.944 241L238.944 241L241 241L240.222 240.278L239.694 240.25L238.889 240.056L237.972 240.028L236.056 240L235.056 240L233 240z"/>
<path style="fill:#444a46; stroke:none;" d="M128 241L128 281L136 281L136 268L136 264L136 263L136.028 261L136.083 260L136.389 258L136.611 257L136.917 255L136.972 254L137 252L137 250L137 241L128 241z"/>
<path style="fill:#282824; stroke:none;" d="M137 241L137 281L144 281L144 241L137 241z"/>
<path style="fill:#18191f; stroke:none;" d="M144 241L144 281L144.722 280.222L144.75 279.694L144.944 278.889L144.972 277.972L145 276L145 274L145 271L145 251L145 248L145 246L144.972 244.028L144.944 243.111L144.75 242.306L144.722 241.778L144 241z"/>
<path style="fill:#282c2c; stroke:none;" d="M168 241L168 273L168.722 272.222L168.75 271.694L168.944 270.889L168.972 269.972L169 268L169 267L169 265L169 249L169 247L169 246L168.972 244.028L168.944 243.111L168.75 242.306L168.722 241.778L168 241z"/>
<path style="fill:#303431; stroke:none;" d="M169 241L169 273L225 273L225 265L177 265L177 250L184 250L183.222 249.278L182.694 249.25L181.889 249.056L180.972 249.028L180.056 249L179.056 249L177 249L177 241L169 241z"/>
<path style="fill:#565e59; stroke:none;" d="M177 241L177 249L185 249L185 241L177 241z"/>
<path style="fill:#444a46; stroke:none;" d="M185 241L185 243.056L185 244.056L184.917 246L184.806 247L184.611 249L184.611 250L184.694 251L184.917 253L184.972 254L185 256L185 258L185 265L193 265L193 249L201 249L201 257L208 257L208 254.944L208.028 253L208.083 252L208.389 250L208.611 249L208.917 247L208.972 246L209 244.056L209 243.056L209 241L185 241z"/>
<path style="fill:#3d9926; stroke:none;" d="M209 241L209 248L209.722 247.222L209.75 246.694L209.944 245.889L209.972 244.972L209.944 243.111L209.75 242.306L209.722 241.778L209 241z"/>
<path style="fill:#3ba815; stroke:none;" d="M210 241L210 248L217 248L217 241L210 241z"/>
<path style="fill:#565e59; stroke:none;" d="M217 241L217 265L224 265L224 241L217 241z"/>
<path style="fill:#464d4a; stroke:none;" d="M224 241L224 265L224.722 264.222L224.75 263.694L224.944 262.889L224.972 261.972L225 261L225 260L225 258L225 248L225 246L225 245L224.972 244.028L224.944 243.111L224.75 242.306L224.722 241.778L224 241z"/>
<path style="fill:#000010; stroke:none;" d="M225 241L225 273L225.722 272.222L225.75 271.694L225.944 270.889L225.972 269.972L226 268L226 267L226 265L226 249L226 247L226 246L225.972 244.028L225.944 243.111L225.75 242.306L225.722 241.778L225 241z"/>
<path style="fill:#565e59; stroke:none;" d="M233 241L233 265L241 265L241 241L233 241z"/>
<path style="fill:#15171f; stroke:none;" d="M249 241L249 289L241 289L241.778 289.722L242.306 289.75L243.111 289.944L244.028 289.972L246 290L246.944 290L250 290L250 256L250 250L250 248L250 247L250 245L249.972 244.028L249.944 243.111L249.75 242.306L249.722 241.778L249 241z"/>
<path style="fill:#454b47; stroke:none;" d="M257 241L257 249L265 249L265 241L257 241z"/>
<path style="fill:#2f3330; stroke:none;" d="M265 241L265 249L273 249L273 241L265 241z"/>
<path style="fill:#00ad12; stroke:none;" d="M209 248L209.778 248.722L210.306 248.75L211.111 248.944L212.028 248.972L213.944 249L214.944 249L217 249L216.222 248.278L215.694 248.25L214.889 248.056L213.972 248.028L212.056 248L211.056 248L209 248z"/>
<path style="fill:#292d30; stroke:none;" d="M193 249L193.778 249.722L194.306 249.75L195.111 249.944L196.028 249.972L196.944 250L197.944 250L200 250L200 257L200.722 256.222L200.75 255.694L200.944 254.889L200.972 253.972L201 252.056L201 251.056L201 249L193 249z"/>
<path style="fill:#2d4b47; stroke:none;" d="M208 249L208 257L208.722 256.222L208.75 255.694L208.944 254.889L209 253L208.972 252.028L208.944 251.111L208.75 250.306L208.722 249.778L208 249z"/>
<path style="fill:#c26d25; stroke:none;" d="M209 249L209.778 249.722L210.306 249.75L211.111 249.944L212.028 249.972L213.944 250L214.944 250L217 250L216.222 249.278L215.694 249.25L214.889 249.056L213.972 249.028L212.056 249L211.056 249L209 249z"/>
<path style="fill:#333734; stroke:none;" d="M257 249L257.778 249.722L258.306 249.75L259.111 249.944L260.028 249.972L260.944 250L261.944 250L264 250L264 257L264.722 256.222L264.75 255.694L264.944 254.889L264.972 253.972L265 252.056L265 251.056L265 249L257 249z"/>
<path style="fill:#434945; stroke:none;" d="M265 249L265 257L273 257L273 281L273.722 280.222L273.75 279.694L273.944 278.889L273.972 277.972L274 277L274 276L274 274L274 265L281 265L281 257L274 257L274 249L265 249z"/>
<path style="fill:#2f3330; stroke:none;" d="M274 249L274 257L281 257L281 249L274 249z"/>
<path style="fill:#565e59; stroke:none;" d="M129 250L129 257L136 257L136 250L129 250z"/>
<path style="fill:#090a1c; stroke:none;" d="M177 250L177 257L184 257L184 250L177 250z"/>
<path style="fill:#303535; stroke:none;" d="M184 250L184 257L184.722 256.222L184.75 255.694L184.944 254.889L184.972 253.972L184.944 252.111L184.75 251.306L184.722 250.778L184 250z"/>
<path style="fill:#04041a; stroke:none;" d="M193 250L193 257L200 257L200 250L193 250z"/>
<path style="fill:#e82d2b; stroke:none;" d="M209 250L209 257L217 257L217 251L214.944 251L213.944 250.972L213 250.917L211.056 250.583L209 250z"/>
<path style="fill:#f0002c; stroke:none;" d="M210 250L210.778 250.722L211.306 250.75L212.111 250.944L213.028 250.972L213.944 251L214.944 251L217 251L216.222 250.278L215.694 250.25L214.889 250.056L213.972 250.028L213.056 250L212.056 250L210 250z"/>
<path style="fill:#232624; stroke:none;" d="M257 250L257 281L273 281L273 257L264 257L264 250L257 250z"/>
<path style="fill:#3c403c; stroke:none;" d="M136 257L136 281L136.722 280.222L136.75 279.694L136.944 278.889L136.972 277.972L137 277L137 276L137 274L137 264L137 262L137 261L136.972 260.028L136.944 259.111L136.75 258.306L136.722 257.778L136 257z"/>
<path style="fill:#4e5550; stroke:none;" d="M177 257L177.778 257.722L178.306 257.75L179.111 257.944L180.028 257.972L180.944 258L181.944 258L184 258L184 264L177 264L177.778 264.722L178.306 264.75L179.111 264.944L180.028 264.972L181.944 265L182.944 265L185 265L185 257L177 257z"/>
<path style="fill:#565e59; stroke:none;" d="M193 257L193 265L209 265L209 257L193 257z"/>
<path style="fill:#669f18; stroke:none;" d="M209 257L209.778 257.722L210.306 257.75L211.111 257.944L212.028 257.972L213.944 258L214.944 258L217 258L216.222 257.278L215.694 257.25L214.889 257.056L213.972 257.028L212.056 257L211.056 257L209 257z"/>
<path style="fill:#565e59; stroke:none;" d="M177 258L177 264L184 264L184 258L177 258z"/>
<path style="fill:#39981d; stroke:none;" d="M209 258L209 265L217 265L217 259L216.278 259.778L216.25 260.306L216.056 261.056L216.028 261.972L216 264L210 264L210 261.944L209.972 260.972L209.944 260.111L209.75 259.306L209.722 258.778L209 258z"/>
<path style="fill:#1eab14; stroke:none;" d="M210 258L210.778 258.722L211.306 258.75L212.111 258.944L213.028 258.972L213.944 259L214.944 259L217 259L216.222 258.278L215.694 258.25L214.889 258.056L213.972 258.028L213.056 258L212.056 258L210 258z"/>
<path style="fill:#3ba716; stroke:none;" d="M210 259L210 264L216 264L216 259L210 259z"/>
<path style="fill:#444a46; stroke:none;" d="M233 265L233 289L241 289L241 265L233 265z"/>
<path style="fill:#565e59; stroke:none;" d="M274 265L274 281L281 281L281 265L274 265z"/>
<path style="fill:#181a24; stroke:none;" d="M281 265L281 281L281.722 280.222L281.75 279.694L281.944 278.889L281.972 277.972L282 276L282 275L282 273L282 271L282 270L281.972 268.028L281.944 267.111L281.75 266.306L281.722 265.778L281 265z"/>
<path style="fill:#1a1d23; stroke:none;" d="M168 273L168.778 273.722L169.306 273.75L170.111 273.944L171.028 273.972L172 274L173 274L175 274L185 274L225 274L224.222 273.278L223.694 273.25L222.889 273.056L221.972 273.028L221 273L220 273L218 273L208 273L168 273z"/>
<path style="fill:#303431; stroke:none;" d="M153 281L153 289L192 289L192 297L192.722 296.222L192.75 295.694L192.944 294.889L192.972 293.972L193 292L193 291.056L193 288L201 288L203 288L205 288.028L206 288.083L208 288.389L209 288.611L211 288.917L212 288.972L214 289L215 289L219 289L233 289L233 281L153 281z"/>
<path style="fill:#000800; stroke:none;" d="M193 288L193.778 288.722L194.306 288.75L195.111 288.944L196.028 288.972L197 289L198 289L200 289L209 289L208.222 288.278L207.694 288.25L206.889 288.056L205.972 288.028L205 288L204 288L202 288L193 288z"/>
<path style="fill:#292d2e; stroke:none;" d="M120 289L120 305L120.722 304.222L120.75 303.694L120.944 302.889L120.972 301.972L121 301L121 299L121 298L121 296L121 290L137 290L136.222 289.278L135.694 289.25L134.889 289.056L133.972 289.028L133 289L132 289L130 289L120 289z"/>
<path style="fill:#18191f; stroke:none;" d="M137 289L137.778 289.722L138.306 289.75L139.111 289.944L140.028 289.972L140.944 290L141.944 290L144 290L144 306L144.722 305.222L144.75 304.694L144.944 303.889L144.972 302.972L145 302L145 301L145 299L145 289L137 289z"/>
<path style="fill:#222528; stroke:none;" d="M153 289L153.778 289.722L154.306 289.75L155.111 289.944L156.028 289.972L158 290L160 290L165 290L192 290L191.222 289.278L190.694 289.25L189.889 289.056L188.972 289.028L187 289L185 289L180 289L153 289z"/>
<path style="fill:#818181; stroke:none;" d="M193 289L193.778 289.722L194.306 289.75L195.111 289.944L196.028 289.972L197 290L198 290L200 290L209 290L208.222 289.278L207.694 289.25L206.889 289.056L205.972 289.028L205 289L204 289L202 289L193 289z"/>
<path style="fill:#565659; stroke:none;" d="M209 289L209 297L209.722 296.222L209.75 295.694L209.944 294.889L210 293L209.972 292.028L209.944 291.111L209.75 290.306L209.722 289.778L209 289z"/>
<path style="fill:#000000; stroke:none;" d="M210 289L210 297L210.722 296.222L210.75 295.694L210.944 294.889L211 293L210.972 292.028L210.944 291.111L210.75 290.306L210.722 289.778L210 289z"/>
<path style="fill:#212427; stroke:none;" d="M211 289L211.778 289.722L212.306 289.75L213.111 289.944L214.028 289.972L216 290L217 290L219 290L233 290L232.222 289.278L231.694 289.25L230.889 289.056L229.972 289.028L228 289L227 289L225 289L211 289z"/>
<path style="fill:#313536; stroke:none;" d="M233 289L233.778 289.722L234.306 289.75L235.111 289.944L236.028 289.972L237.944 290L238.944 290L241 290L240.222 289.278L239.694 289.25L238.889 289.056L237.972 289.028L236.056 289L235.056 289L233 289z"/>
<path style="fill:#282824; stroke:none;" d="M257 289L257 306L265 306L265 290L281 290L280.222 289.278L279.694 289.25L278.889 289.056L277.972 289.028L276 289L275 289L273 289L257 289z"/>
<path style="fill:#363b38; stroke:none;" d="M121 290L121 306L137 306L137 290L121 290z"/>
<path style="fill:#282824; stroke:none;" d="M137 290L137 306L144 306L144 290L137 290z"/>
<path style="fill:#000002; stroke:none;" d="M191 290L191 297L191.722 296.222L191.75 295.694L191.944 294.889L191.972 293.972L191.944 292.111L191.75 291.306L191.722 290.778L191 290z"/>
<path style="fill:#ababab; stroke:none;" d="M193 290L193 297L209 297L209 290L193 290z"/>
<path style="fill:#363b38; stroke:none;" d="M265 290L265 306L281 306L281 290L265 290z"/>
<path style="fill:#ff0000; stroke:none;" d="M102 297L102 303L102.722 302.222L102.75 301.694L102.944 300.889L102.944 299.111L102.75 298.306L102.722 297.778L102 297z"/>
<path style="fill:#d52727; stroke:none;" d="M104 297L104 304L112 304L112 298L109.944 297.972L108.944 297.917L107.056 297.611L105.5 297.25L104 297z"/>
<path style="fill:#be2225; stroke:none;" d="M106 297L106.778 297.722L107.306 297.75L108.111 297.944L108.972 297.972L109.944 298L112 298L112 305L112.722 304.222L112.75 303.694L112.944 302.889L112.972 301.972L113 300.056L113 299.056L113 297L106 297z"/>
<path style="fill:#1e0b1c; stroke:none;" d="M114 297L114 304L120 304L119.222 303.278L118.694 303.25L117.944 303.056L117.028 303.028L115 303L115 300.944L114.972 299.972L114.944 299.111L114.75 298.306L114.722 297.778L114 297z"/>
<path style="fill:#252826; stroke:none;" d="M153 297L153 346L161 346L161 298L168 298L168 313L177 313L177 346L193 346L193 313L209 313L209 346L217 346L217 313L233 313L233 306L177 306L177 297L153 297z"/>
<path style="fill:#3d4240; stroke:none;" d="M177 297L177.778 297.722L178.306 297.75L179.111 297.944L180.028 297.972L181 298L182 298L184 298L193 298L192.222 297.278L191.694 297.25L190.889 297.056L189.972 297.028L189 297L188 297L186 297L177 297z"/>
<path style="fill:#686b69; stroke:none;" d="M193 297L193.778 297.722L194.306 297.75L195.111 297.944L196.028 297.972L197 298L198 298L200 298L209 298L208.222 297.278L207.694 297.25L206.889 297.056L205.972 297.028L205 297L204 297L202 297L193 297z"/>
<path style="fill:#454b47; stroke:none;" d="M209 297L209 299L201 299L199 299L197 298.972L196 298.917L194 298.611L193 298.389L191 298.083L190 298.028L188 298L185 298L177 298L177 306L233 306L232.222 305.278L231.694 305.25L230.889 305.056L229.972 305.028L229 305L228 305L226 305L217 305L217 298L233 298L232.222 297.278L231.694 297.25L230.889 297.056L229.972 297.028L228 297L227 297L225 297L209 297z"/>
<path style="fill:#343936; stroke:none;" d="M233 297L233 306L233.722 305.222L233.75 304.694L233.944 303.889L233.972 302.972L234 301L233.944 299.111L233.75 298.306L233.722 297.778L233 297z"/>
<path style="fill:#2b2f2d; stroke:none;" d="M234 297L234 306L241 306L241 297L234 297z"/>
<path style="fill:#3b403d; stroke:none;" d="M161 298L161 346L177 346L177 313L168 313L168 298L161 298z"/>
<path style="fill:#373f3a; stroke:none;" d="M193 298L193.778 298.722L194.306 298.75L195.111 298.944L196.028 298.972L197 299L198 299L200 299L209 299L208.222 298.278L207.694 298.25L206.889 298.056L205.972 298.028L205 298L204 298L202 298L193 298z"/>
<path style="fill:#565e59; stroke:none;" d="M217 298L217 305L233 305L233 298L217 298z"/>
<path style="fill:#ff0000; stroke:none;" d="M96 303L97 304L96 303z"/>
<path style="fill:#bf4040; stroke:none;" d="M97 303L97.7778 303.722L98.3056 303.75L99.1111 303.944L99.9722 303.972L100.944 304L103 304L102.222 303.278L101.694 303.25L100.889 303.056L100.028 303.028L99.0556 303L97 303z"/>
<path style="fill:#800000; stroke:none;" d="M95 304L96 305L95 304z"/>
<path style="fill:#d20e0e; stroke:none;" d="M104 304L104.778 304.722L105.306 304.75L106.111 304.944L107.028 304.972L108.944 305L109.944 305L112 305L111.222 304.278L110.694 304.25L109.889 304.056L108.972 304.028L107.056 304L106.056 304L104 304z"/>
<path style="fill:#ff0000; stroke:none;" d="M94 305L95 306L94 305z"/>
<path style="fill:#d52727; stroke:none;" d="M96 305L96 312L104 312L104 305L96 305z"/>
<path style="fill:#e25252; stroke:none;" d="M104 305L104.778 305.722L105.306 305.75L106.111 305.944L107.028 305.972L109 306L109.944 306L113 306L112.222 305.278L111.694 305.25L110.889 305.056L109.972 305.028L108 305L107.056 305L104 305z"/>
<path style="fill:#7a1620; stroke:none;" d="M113 305L113.778 305.722L114.306 305.75L115.111 305.944L116.028 305.972L116.944 306L117.944 306L120 306L120 313L120.722 312.222L120.75 311.694L120.944 310.889L120.972 309.972L121 308.056L121 307.056L121 305L113 305z"/>
<path style="fill:#ff4040; stroke:none;" d="M94 306L94 310L94.7222 309.222L94.7222 308.722L94.8889 308L94.7222 306.778L94 306z"/>
<path style="fill:#fe8787; stroke:none;" d="M104 306L104 313L112 313L112 306L104 306z"/>
<path style="fill:#f47676; stroke:none;" d="M112 306L112 313L112.722 312.222L112.75 311.694L112.944 310.889L112.972 309.972L112.944 308.111L112.75 307.306L112.722 306.778L112 306z"/>
<path style="fill:#d21212; stroke:none;" d="M113 306L113 313L113.722 312.222L113.75 311.694L113.944 310.889L113.972 309.028L113.944 308.111L113.75 307.306L113.722 306.778L113 306z"/>
<path style="fill:#d32727; stroke:none;" d="M114 306L114 313L120 313L120 306L114 306z"/>
<path style="fill:#090a1c; stroke:none;" d="M121 306L121 314L123.056 313.417L124.944 313.083L125.944 313.028L128 313L128 306L121 306z"/>
<path style="fill:#232624; stroke:none;" d="M128 306L128 313L122 313L122.778 313.722L123.306 313.75L124.111 313.944L124.972 313.972L125.944 314L128 314L128 370L128.722 369.222L128.75 368.694L128.944 367.889L128.972 366.972L129 366L129 365L129 363L129 353L129 314L137 314L137 306L128 306z"/>
<path style="fill:#df2020; stroke:none;" d="M94.3333 310.667L94.3333 311L94.6667 311.333L94.6667 310.667L94.3333 310.667z"/>
<path style="fill:#bf4040; stroke:none;" d="M88 311L88.7778 311.722L89.3056 311.75L90.1111 311.944L90.9722 311.972L91.9444 312L94 312L93.2222 311.278L92.6944 311.25L91.8889 311.056L91.0278 311.028L90.0556 311L88 311z"/>
<path style="fill:#d10505; stroke:none;" d="M96 312L96.7778 312.722L97.3056 312.75L98.1111 312.944L99.0278 312.972L100.944 313L101.944 313L104 313L103.222 312.278L102.694 312.25L101.889 312.056L100.972 312.028L99.0556 312L98.0556 312L96 312z"/>
<path style="fill:#00000c; stroke:none;" d="M265 312L265.778 312.722L266.306 312.75L267.111 312.944L268.028 312.972L269 313L270 313L272 313L281 313L280.222 312.278L279.694 312.25L278.889 312.056L277.972 312.028L277 312L276 312L274 312L265 312z"/>
<path style="fill:#ff0000; stroke:none;" d="M85 313L85 318L81 318L81.7778 318.722L82.25 318.75L83.0556 318.944L85 319L86 318L85.9722 315.972L85.9444 315.056L85.75 314.306L85.7222 313.778L85 313z"/>
<path style="fill:#d52727; stroke:none;" d="M87 313L87 321L80 321L80 328L87 328L87 321L95 321L95 313L87 313z"/>
<path style="fill:#d10303; stroke:none;" d="M95 313L95 321L95.7222 320.222L95.75 319.694L95.9444 318.889L95.9722 317.972L96 317L95.9444 315.111L95.75 314.306L95.7222 313.778L95 313z"/>
<path style="fill:#f36161; stroke:none;" d="M96 313L96 321L96.7222 320.222L96.75 319.694L96.9444 318.889L96.9722 317.972L97 317.056L97 316.056L97 314L113 314L112.222 313.278L111.694 313.25L110.889 313.056L109.972 313.028L109 313L108 313L106 313L96 313z"/>
<path style="fill:#973533; stroke:none;" d="M113 313L113.778 313.722L114.306 313.75L115.111 313.944L116.028 313.972L117.944 314L118.944 314L121 314L120.222 313.278L119.694 313.25L118.889 313.056L117.972 313.028L116.056 313L115.056 313L113 313z"/>
<path style="fill:#191b21; stroke:none;" d="M193 313L193.778 313.722L194.306 313.75L195.111 313.944L196.028 313.972L197 314L198 314L200 314L209 314L208.222 313.278L207.694 313.25L206.889 313.056L205.972 313.028L205 313L204 313L202 313L193 313z"/>
<path style="fill:#363b38; stroke:none;" d="M217 313L217 346L234 346L234 314L233 313L217 313z"/>
<path style="fill:#2a2e2c; stroke:none;" d="M233 313L233.583 315.056L233.778 316.056L233.917 317L234 319L234 321L234 327L234 346L241 346L241 313L233 313z"/>
<path style="fill:#1a1d25; stroke:none;" d="M264 313L264 370L264.722 369.222L264.75 368.694L264.944 367.889L264.972 366.972L265 366L265 364L265 363L265 361L265 356L265 326L265 321L265 319L265 317L264.972 316.028L264.944 315.111L264.75 314.306L264.722 313.778L264 313z"/>
<path style="fill:#383d3a; stroke:none;" d="M265 313L265 370L273 370L273 313L265 313z"/>
<path style="fill:#434a48; stroke:none;" d="M273 313L273.778 313.722L274.306 313.75L275.111 313.944L276.028 313.972L277.944 314L278.944 314L281 314L280.222 313.278L279.694 313.25L278.889 313.056L277.972 313.028L276.056 313L275.056 313L273 313z"/>
<path style="fill:#181b24; stroke:none;" d="M281 313L281 370L281.722 369.222L281.75 368.694L281.944 367.889L281.972 366.972L282 366L282 364L282 362L282 357L282 327L282 322L282 320L282 319L282 317L281.972 316.028L281.944 315.111L281.75 314.306L281.722 313.778L281 313z"/>
<path style="fill:#000018; stroke:none;" d="M282 313L282 370L282.722 369.222L282.75 368.694L282.944 367.889L282.972 366.972L283 366L283 364L283 363L283 361L283 356L283 326L283 321L283 319L283 317L282.972 316.028L282.944 315.111L282.75 314.306L282.722 313.778L282 313z"/>
<path style="fill:#ff8888; stroke:none;" d="M97 314L97 321L104 321L104 314L97 314z"/>
<path style="fill:#ee4d4d; stroke:none;" d="M104 314L104 321L104.722 320.222L104.75 319.694L104.944 318.889L104.972 317.972L104.944 316.111L104.75 315.306L104.722 314.778L104 314z"/>
<path style="fill:#e71b1b; stroke:none;" d="M105 314L105 321L105.722 320.222L105.75 319.694L105.944 318.889L105.972 318.028L106 317.056L106 315L112 315L111.222 314.278L110.694 314.25L109.889 314.056L108.972 314.028L108.056 314L107.056 314L105 314z"/>
<path style="fill:#ca3130; stroke:none;" d="M112 314L112 321L112.722 320.222L112.75 319.694L112.944 318.889L112.972 317.972L112.944 316.111L112.75 315.306L112.722 314.778L112 314z"/>
<path style="fill:#003e3b; stroke:none;" d="M113 314L113 321L113.722 320.222L113.75 319.694L113.944 318.889L113.972 318.028L114 317.056L114 315L120 315L119.222 314.278L118.694 314.25L117.889 314.056L116.972 314.028L116.056 314L115.056 314L113 314z"/>
<path style="fill:#383d3a; stroke:none;" d="M114 315L113.972 317.056L113.917 318.056L113.611 320L113.389 321L113.083 323L113 325L113 327L113 330L113 340L113 370L120 370L120 321L128 321L128 314L125.944 314L124.944 314L123 314.028L122 314.083L120 314.389L119 314.611L117.056 314.917L116.056 314.972L114 315z"/>
<path style="fill:#454b47; stroke:none;" d="M168 314L168 345L176 345L176 314L168 314M225 314L225 345L233 345L233 314L225 314z"/>
<path style="fill:#505853; stroke:none;" d="M273 314L273 370L281 370L280.222 369.278L279.694 369.25L278.889 369.056L277.972 369.028L277.056 369L276.056 369L274 369L274 330L274 321L274 319L274 318L273.972 317.028L273.944 316.111L273.75 315.306L273.722 314.778L273 314z"/>
<path style="fill:#58605b; stroke:none;" d="M274 314L274 369L281 369L281 314L274 314z"/>
<path style="fill:#e92b2b; stroke:none;" d="M106 315L106 321L112 321L112 315L106 315z"/>
<path style="fill:#aa0000; stroke:none;" d="M85 318L86 319L85 318z"/>
<path style="fill:#ff0000; stroke:none;" d="M78 321L78 327L78.7222 326.222L78.75 325.694L78.9444 324.889L78.9444 323.111L78.75 322.306L78.7222 321.778L78 321z"/>
<path style="fill:#d63e3e; stroke:none;" d="M87 321L87 329L87.7222 328.222L87.75 327.694L87.9444 326.889L88 325L87.9722 324.028L87.9444 323.111L87.75 322.306L87.7222 321.778L87 321z"/>
<path style="fill:#e6aeae; stroke:none;" d="M88 321L88.7778 321.722L89.3056 321.75L90.1111 321.944L91.0278 321.972L92.9444 322L93.9444 322L96 322L95.2222 321.278L94.6944 321.25L93.8889 321.056L92.9722 321.028L91.0556 321L90.0556 321L88 321z"/>
<path style="fill:#e98d8d; stroke:none;" d="M96 321L96 330L96.7222 329.222L96.75 328.694L96.9444 327.889L96.9722 326.972L97 325L96.9444 323.111L96.75 322.306L96.7222 321.778L96 321z"/>
<path style="fill:#ed4747; stroke:none;" d="M97 321L97.7778 321.722L98.3056 321.75L99.1111 321.944L100.028 321.972L100.944 322L101.944 322L104 322L103.222 321.278L102.694 321.25L101.889 321.056L100.972 321.028L100.056 321L99.0556 321L97 321z"/>
<path style="fill:#69131f; stroke:none;" d="M104 321L104 330L104.722 329.222L104.75 328.694L104.944 327.889L104.972 326.972L105 325.056L105 324.056L105 322L113 322L112.222 321.278L111.694 321.25L110.889 321.056L109.972 321.028L108 321L107.056 321L104 321z"/>
<path style="fill:#4c534f; stroke:none;" d="M120 321L120 370L128 370L127.222 369.278L126.694 369.25L125.889 369.056L124.972 369.028L124.056 369L123.056 369L121 369L121 335L121 330L121 328L121 327L121 325L120.972 324.028L120.944 323.111L120.75 322.306L120.722 321.778L120 321z"/>
<path style="fill:#58605b; stroke:none;" d="M121 321L121 369L128 369L128 321L121 321z"/>
<path style="fill:#000014; stroke:none;" d="M129 321L129 370L129.722 369.222L129.75 368.694L129.944 367.889L129.972 366.972L130 365L130 363L130 359L130 333L130 328L130 326L129.972 324.028L129.944 323.111L129.75 322.306L129.722 321.778L129 321z"/>
<path style="fill:#e9bcbc; stroke:none;" d="M88 322L88 329L96 329L96 322L88 322z"/>
<path style="fill:#e90000; stroke:none;" d="M97 322L97 330L97.7222 329.222L97.75 328.694L97.9444 327.889L98 326L97.9722 325.028L97.9444 324.111L97.75 323.306L97.7222 322.778L97 322z"/>
<path style="fill:#e92b2b; stroke:none;" d="M98 322L98 330L104 330L104 322L98 322z"/>
<path style="fill:#090a1c; stroke:none;" d="M105 322L105 324.056L104.972 326L104.917 327L104.611 329L104.222 331L104.083 332L104 334L104 336L104 339L104 349L104 378L129 378L129 370L112 370L112 340L112 331L112 329L112 328L112.083 326L112.222 325.056L112.417 324.056L113 322L105 322z"/>
<path style="fill:#1e2227; stroke:none;" d="M112 323L112 370L112.722 369.222L112.75 368.694L112.944 367.889L112.972 366.972L113 365L113 363L113 359L113 334L113 330L113 328L112.972 326.028L112.944 325.111L112.75 324.306L112.722 323.778L112 323z"/>
<path style="fill:#ff0000; stroke:none;" d="M71 327L72 328L71 327z"/>
<path style="fill:#bf4040; stroke:none;" d="M72 327L72.7778 327.722L73.3056 327.75L74.1111 327.944L75.0278 327.972L75.9444 328L76.9444 328L79 328L78.2222 327.278L77.6944 327.25L76.8889 327.056L75.9722 327.028L75.0556 327L74.0556 327L72 327z"/>
<path style="fill:#ff0000; stroke:none;" d="M70 328L71 329L70 328z"/>
<path style="fill:#d30000; stroke:none;" d="M80 328L79 329L79 336L71 336L71.7778 336.722L72.3056 336.75L73.1111 336.944L74.0278 336.972L76 337L76.9444 337L80 337L80 329L87 329L86.2222 328.278L85.6944 328.25L84.8889 328.056L83.9722 328.028L83.0556 328L82.0556 328L80 328z"/>
<path style="fill:#ff0000; stroke:none;" d="M69 329L70 330L69 329z"/>
<path style="fill:#d52727; stroke:none;" d="M71 329L71 336L79 336L79 329L71 329z"/>
<path style="fill:#dc7979; stroke:none;" d="M80 329L80.7778 329.722L81.3056 329.75L82.1111 329.944L83.0278 329.972L84.9444 330L85.9444 330L88 330L87.2222 329.278L86.6944 329.25L85.8889 329.056L84.9722 329.028L83.0556 329L82.0556 329L80 329z"/>
<path style="fill:#e99d9d; stroke:none;" d="M88 329L88.7778 329.722L89.3056 329.75L90.1111 329.944L91.0278 329.972L92.9444 330L93.9444 330L96 330L95.2222 329.278L94.6944 329.25L93.8889 329.056L92.9722 329.028L91.0556 329L90.0556 329L88 329z"/>
<path style="fill:#ff5555; stroke:none;" d="M69 330L69 335L65 335L65.7778 335.722L66.25 335.75L67.0556 335.944L69 336L70 335L69.9722 332.972L69.9444 332.056L69.75 331.306L69.7222 330.778L69 330z"/>
<path style="fill:#e3a3a3; stroke:none;" d="M80 330L80 337L80.7222 336.222L80.75 335.694L80.9444 334.889L80.9722 333.972L80.9444 332.111L80.75 331.306L80.7222 330.778L80 330z"/>
<path style="fill:#e9bcbc; stroke:none;" d="M81 330L81 337L88 337L88 330L81 330z"/>
<path style="fill:#e94444; stroke:none;" d="M88 330L88 338L88.7222 337.222L88.75 336.694L88.9444 335.889L89 334L88.9722 333.028L88.9444 332.111L88.75 331.306L88.7222 330.778L88 330z"/>
<path style="fill:#e90000; stroke:none;" d="M89 330L89.7778 330.722L90.3056 330.75L91.1111 330.944L92.0278 330.972L93.9444 331L94.9444 331L97 331L96.2222 330.278L95.6944 330.25L94.8889 330.056L93.9722 330.028L92.0556 330L91.0556 330L89 330z"/>
<path style="fill:#e92b2b; stroke:none;" d="M89 331L89 338L97 338L97 331L89 331z"/>
<path style="fill:#ff4040; stroke:none;" d="M98 331L98 337L98.7222 336.222L98.7778 335.694L99.25 334.083L99.6667 333.306L99.8611 332.778L101 332L100.278 331.278L99.75 331.25L98 331z"/>
<path style="fill:#bf4040; stroke:none;" d="M101.667 331.333L102 331.667L102.333 331.667L102 331.333L101.667 331.333z"/>
<path style="fill:#ff0000; stroke:none;" d="M64 335L65 336L64 335z"/>
<path style="fill:#db2424; stroke:none;" d="M69 335L70 336L69 335z"/>
<path style="fill:#ff0000; stroke:none;" d="M61 337L61 343L61.7222 342.222L61.75 341.694L61.9444 340.889L61.9444 339.111L61.75 338.306L61.7222 337.778L61 337z"/>
<path style="fill:#dd2929; stroke:none;" d="M63 337L63 344L70 344L70 337L63 337z"/>
<path style="fill:#d40000; stroke:none;" d="M70 337L70 344L64 344L64.7778 344.722L65.3056 344.75L66.1111 344.944L67.0278 344.972L67.9444 345L68.9444 345L71 345L71 342.944L71 341.944L70.9722 340.028L70.9444 339.111L70.75 338.306L70.7222 337.778L70 337z"/>
<path style="fill:#d96363; stroke:none;" d="M71 337L71 345L64 345L64.7778 345.722L65.3056 345.75L66.1111 345.944L67.0278 345.972L68.9444 346L69.9444 346L72 346L72 342.944L72 342L71.9722 340.028L71.9444 339.111L71.75 338.306L71.7222 337.778L71 337z"/>
<path style="fill:#e29c9c; stroke:none;" d="M72 337L72.7778 337.722L73.3056 337.75L74.1111 337.944L75.0278 337.972L76.9444 338L77.9444 338L80 338L79.2222 337.278L78.6944 337.25L77.8889 337.056L76.9722 337.028L75.0556 337L74.0556 337L72 337z"/>
<path style="fill:#e97171; stroke:none;" d="M80 337L80 346L80.7222 345.222L80.75 344.694L80.9444 343.889L80.9722 342.972L81 341.056L81 340.056L81 338L88 338L87.2222 337.278L86.6944 337.25L85.8889 337.056L84.9722 337.028L83.0556 337L82.0556 337L80 337z"/>
<path style="fill:#800000; stroke:none;" d="M98 337L99 338L98 337z"/>
<path style="fill:#e9bdbd; stroke:none;" d="M72 338L72 345L80 345L80 338L72 338z"/>
<path style="fill:#e90000; stroke:none;" d="M81 338L81 346L81.7222 345.222L81.75 344.694L81.9444 343.889L81.9722 342.972L82 342.056L82 341.056L82 339L88 339L87.2222 338.278L86.6944 338.25L85.8889 338.056L84.9722 338.028L84.0556 338L83.0556 338L81 338z"/>
<path style="fill:#ff0000; stroke:none;" d="M97 338L98 339L97 338z"/>
<path style="fill:#e92b2b; stroke:none;" d="M82 339L82 346L89 346L89 339L82 339z"/>
<path style="fill:#ff4040; stroke:none;" d="M90 339L90.7778 339.722L91.3056 339.75L92.1111 339.944L92.9722 339.972L93.9444 340L96 340L95.2222 339.278L94.6944 339.25L93.8889 339.056L93.0278 339.028L92.0556 339L90 339z"/>
<path style="fill:#ff0000; stroke:none;" d="M96 339L97 340L96 339M90 340L90 346L90.7222 345.222L90.75 344.694L90.9444 343.889L90.9444 342.111L90.75 341.306L90.7222 340.778L90 340M56.6667 343.333L57 343.667L57.3333 343.667L57 343.333L56.6667 343.333z"/>
<path style="fill:#aa0000; stroke:none;" d="M58 343L59 344L58 343z"/>
<path style="fill:#ff0000; stroke:none;" d="M59 343L60 344L59 343z"/>
<path style="fill:#aa0000; stroke:none;" d="M60 343L61 344L60 343z"/>
<path style="fill:#ff4040; stroke:none;" d="M61 343L62 344L61 343z"/>
<path style="fill:#ff0000; stroke:none;" d="M55 344L56 345L55 344z"/>
<path style="fill:#d52727; stroke:none;" d="M56 345L56 352L64 352L64 345L56 345z"/>
<path style="fill:#e9afaf; stroke:none;" d="M72 345L72.7778 345.722L73.3056 345.75L74.1111 345.944L75.0278 345.972L76.9444 346L77.9444 346L80 346L79.2222 345.278L78.6944 345.25L77.8889 345.056L76.9722 345.028L75.0556 345L74.0556 345L72 345z"/>
<path style="fill:#ff5555; stroke:none;" d="M54 346L54 350L54.7222 349.222L54.7222 348.722L54.8889 348L54.7222 346.778L54 346z"/>
<path style="fill:#e9bdbd; stroke:none;" d="M64 346L64 353L71 353L71 346L64 346z"/>
<path style="fill:#e9aaaa; stroke:none;" d="M71 346L71 353L71.7222 352.222L71.75 351.694L71.9444 350.889L71.9722 349.972L71.9444 348.111L71.75 347.306L71.7222 346.778L71 346z"/>
<path style="fill:#e91010; stroke:none;" d="M72 346L72 354L72.7222 353.222L72.75 352.694L72.9444 351.889L73 350L72.9722 349.028L72.9444 348.111L72.75 347.306L72.7222 346.778L72 346z"/>
<path style="fill:#e92c2c; stroke:none;" d="M73 346L73 354L81 354L81 346L73 346z"/>
<path style="fill:#ff0000; stroke:none;" d="M82 347L82.7778 348.139L83.3056 348.333L84.1111 348.722L84.9722 348.889L86.5 349L88 349L87.2222 348.278L86.6944 348.222L85.0278 347.806L84.0556 347.583L82 347z"/>
<path style="fill:#ff4040; stroke:none;" d="M82 348L82 353L82.7222 352.222L82.75 351.694L82.9167 350.083L82.75 349.306L82.7222 348.778L82 348z"/>
<path style="fill:#ff0000; stroke:none;" d="M54 350L55 351L54 350M47 351L48 352L47 351z"/>
<path style="fill:#ff4040; stroke:none;" d="M48 351L48.7778 351.722L49.3056 351.75L50.1111 351.944L50.9722 351.972L51.9444 352L54 352L53.2222 351.278L52.6944 351.25L51.8889 351.056L51.0278 351.028L50.0556 351L48 351z"/>
<path style="fill:#bf2020; stroke:none;" d="M54 351L55 352L54 351z"/>
<path style="fill:#ff0000; stroke:none;" d="M46 352L47 353L46 352z"/>
<path style="fill:#d30000; stroke:none;" d="M56 352L55 353L55 361L55.7222 360.222L55.75 359.694L55.9444 358.889L55.9722 357.972L56 356.056L56 355.056L56 353L64 353L63.2222 352.278L62.6944 352.25L61.8889 352.056L60.9722 352.028L59.0556 352L58.0556 352L56 352z"/>
<path style="fill:#ff0000; stroke:none;" d="M45.3333 353.667L45.3333 354L45.6667 354.333L45.6667 353.667L45.3333 353.667z"/>
<path style="fill:#d52727; stroke:none;" d="M47 353L47 360L55 360L55 353L47 353z"/>
<path style="fill:#de8383; stroke:none;" d="M56 353L56.7778 353.722L57.3056 353.75L58.1111 353.944L59.0278 353.972L60.9444 354L61.9444 354L64 354L63.2222 353.278L62.6944 353.25L61.8889 353.056L60.9722 353.028L59.0556 353L58.0556 353L56 353z"/>
<path style="fill:#e99696; stroke:none;" d="M64 353L64.7778 353.722L65.3056 353.75L66.1111 353.944L67.0278 353.972L68.9444 354L69.9444 354L72 354L71.2222 353.278L70.6944 353.25L69.8889 353.056L68.9722 353.028L67.0556 353L66.0556 353L64 353z"/>
<path style="fill:#ff0000; stroke:none;" d="M82 353L83 354L82 353z"/>
<path style="fill:#232625; stroke:none;" d="M153 353L153 369L160 369L160 354L177 354L177 377L184 377L184 354L181.944 354L180.944 353.972L180 353.917L178 353.611L177 353.389L175 353.083L174 353.028L172 353L171 353L167 353L153 353z"/>
<path style="fill:#191c21; stroke:none;" d="M177 353L177.778 353.722L178.306 353.75L179.111 353.944L180.028 353.972L180.944 354L181.944 354L184 354L184 377L177 377L177.778 377.722L178.306 377.75L179.111 377.944L180.028 377.972L181.944 378L182.944 378L185 378L185 353L177 353z"/>
<path style="fill:#252826; stroke:none;" d="M209 353L209 378L225 378L224.417 375.944L224.222 374.944L224.083 374L224 372L224 370L224 366L224 354L241 354L240.222 353.278L239.694 353.25L238.889 353.056L237.972 353.028L236 353L234 353L231 353L209 353z"/>
<path style="fill:#e29d9d; stroke:none;" d="M56 354L56 361L56.7222 360.222L56.75 359.694L56.9444 358.889L56.9722 357.972L56.9444 356.111L56.75 355.306L56.7222 354.778L56 354z"/>
<path style="fill:#e9bcbc; stroke:none;" d="M57 354L57 361L64 361L64 354L57 354z"/>
<path style="fill:#e95050; stroke:none;" d="M64 354L64 362L64.7222 361.222L64.75 360.694L64.9444 359.889L65 358L64.9722 357.028L64.9444 356.111L64.75 355.306L64.7222 354.778L64 354z"/>
<path style="fill:#e90f0f; stroke:none;" d="M65 354L65 362L65.7222 361.222L65.75 360.694L65.9444 359.889L65.9722 358.972L66 358.056L66 357.056L66 355L72 355L71.2222 354.278L70.6944 354.25L69.8889 354.056L68.9722 354.028L68.0556 354L67.0556 354L65 354z"/>
<path style="fill:#ff0000; stroke:none;" d="M81 354L82 355L81 354z"/>
<path style="fill:#2f3331; stroke:none;" d="M160 354L160 369L153 369L153.778 369.722L154.306 369.75L155.111 369.944L156.028 369.972L157.944 370L158.944 370L161 370L161 361L161 359L161 358L160.972 357.028L160.944 356.111L160.75 355.306L160.722 354.778L160 354z"/>
<path style="fill:#3b403d; stroke:none;" d="M161 354L161 370L145 370L145 377L177 377L177 354L161 354z"/>
<path style="fill:#2b2e2d; stroke:none;" d="M224 354L224 377L224.722 376.222L224.75 375.694L224.944 374.889L224.972 373.972L225 373L225 372L225 370L225 363L225 361L225 360L225 358L224.972 357.028L224.944 356.111L224.75 355.306L224.722 354.778L224 354z"/>
<path style="fill:#363b38; stroke:none;" d="M225 354L225 377L249 377L249 370L241 370L241 354L225 354z"/>
<path style="fill:#aa0000; stroke:none;" d="M45 355L45 358L45.6944 357.25L45.6944 356.194L45.6944 355.75L45 355z"/>
<path style="fill:#e92b2b; stroke:none;" d="M66 355L66 362L72 362L72 355L66 355z"/>
<path style="fill:#ff4040; stroke:none;" d="M73 355L73.7778 355.722L74.3056 355.75L75.1111 355.944L76.0278 355.972L76.9444 356L77.9444 356L80 356L79.2222 355.278L78.6944 355.25L77.8889 355.056L76.9722 355.028L76.0556 355L75.0556 355L73 355z"/>
<path style="fill:#ff0000; stroke:none;" d="M80 355L81 356L80 355M45 358L44 359L42 359L42.7778 359.694L43.25 359.694L44.5278 359.694L46 359L45 358M40 359L41 360L40 359z"/>
<path style="fill:#aa0000; stroke:none;" d="M41 359L42 360L41 359z"/>
<path style="fill:#cc3333; stroke:none;" d="M45 359L46 360L45 359z"/>
<path style="fill:#d21111; stroke:none;" d="M47 360L47.7778 360.722L48.3056 360.75L49.1111 360.944L50.0278 360.972L51.9444 361L52.9444 361L55 361L54.2222 360.278L53.6944 360.25L52.8889 360.056L51.9722 360.028L50.0556 360L49.0556 360L47 360z"/>
<path style="fill:#ff0000; stroke:none;" d="M74 360L75 361L74 360M37 361L37 363.056L37.0278 364.056L37.0556 364.944L37.25 365.944L37.2778 366.5L38 368L38.4722 367.222L38.3611 366.694L38.3333 365.889L38.0556 364.028L37.75 362.306L37.7222 361.778L37 361z"/>
<path style="fill:#d62a2a; stroke:none;" d="M40 361L40 368L46 368L46 361L40 361z"/>
<path style="fill:#d21414; stroke:none;" d="M46 361L46 368L40 368L40.7778 368.722L41.3056 368.75L42.1111 368.944L43.0278 368.972L43.9444 369L44.9444 369L47 369L47 366.944L47 365.944L46.9722 364.028L46.9444 363.111L46.75 362.306L46.7222 361.778L46 361z"/>
<path style="fill:#df4b4b; stroke:none;" d="M47 361L47 369L40 369L40.7778 369.722L41.3056 369.75L42.1111 369.944L43.0278 369.972L44.9444 370L45.9444 370L48 370L48 366.944L48 366L47.9722 364.028L47.9444 363.111L47.75 362.306L47.7222 361.778L47 361z"/>
<path style="fill:#e97272; stroke:none;" d="M48 361L48.7778 361.722L49.3056 361.75L50.1111 361.944L51.0278 361.972L52 362L53 362L55 362L64 362L63.2222 361.278L62.6944 361.25L61.8889 361.056L60.9722 361.028L60 361L59 361L57 361L48 361z"/>
<path style="fill:#ff8888; stroke:none;" d="M48 362L48 369L56 369L56 362L48 362z"/>
<path style="fill:#f15a5a; stroke:none;" d="M56 362L56 370L56.7222 369.222L56.75 368.694L56.9444 367.889L56.9722 366.972L57 366L56.9444 364.111L56.75 363.306L56.7222 362.778L56 362z"/>
<path style="fill:#e90000; stroke:none;" d="M57 362L57.7778 362.722L58.3056 362.75L59.1111 362.944L60.0278 362.972L61.9444 363L62.9444 363L65 363L64.2222 362.278L63.6944 362.25L62.8889 362.056L61.9722 362.028L60.0556 362L59.0556 362L57 362z"/>
<path style="fill:#ff0000; stroke:none;" d="M72 362L73 363L72 362z"/>
<path style="fill:#e71414; stroke:none;" d="M57 363L57 370L57.7222 369.222L57.75 368.694L57.9444 367.889L57.9722 366.972L57.9444 365.111L57.75 364.306L57.7222 363.778L57 363z"/>
<path style="fill:#e92b2b; stroke:none;" d="M58 363L58 370L65 370L65 363L58 363z"/>
<path style="fill:#ff4040; stroke:none;" d="M66 363L66.7778 363.722L67.3056 363.75L68.1111 363.944L68.9722 363.972L69.9444 364L72 364L71.2222 363.278L70.6944 363.25L69.8889 363.056L69.0278 363.028L68.0556 363L66 363z"/>
<path style="fill:#ff0000; stroke:none;" d="M66 364L67 365L66 364z"/>
<path style="fill:#aa0000; stroke:none;" d="M66.3333 365.667L66.3333 366.333L66.6667 366.333L66.6667 365.667L66.3333 365.667z"/>
<path style="fill:#ff0000; stroke:none;" d="M31 367L32 368L31 367z"/>
<path style="fill:#ff5555; stroke:none;" d="M32 367L32.7778 367.722L33.3056 367.75L34.1111 367.944L34.9722 367.972L35.9444 368L38 368L37.2222 367.278L36.6944 367.25L35.8889 367.056L35.0278 367.028L34.0556 367L32 367z"/>
<path style="fill:#ff0000; stroke:none;" d="M66 367L67 368L66 367M30 368L31 369L30 368z"/>
<path style="fill:#aa0000; stroke:none;" d="M66 368L67 369L66 368z"/>
<path style="fill:#ff0000; stroke:none;" d="M29 369L30 370L29 369z"/>
<path style="fill:#e82b2b; stroke:none;" d="M31 369L31 378L40 378L39.2222 377.278L38.6944 377.25L37.8889 377.056L36.9722 377.028L35.0556 377L34.0556 377L32 377L32 370L39 370L38.2222 369.278L37.6944 369.25L36.8889 369.056L35.9722 369.028L34.0556 369L33.0556 369L31 369z"/>
<path style="fill:#fa2e2e; stroke:none;" d="M39 369L37.5 369.722L36.9444 369.75L35.9444 369.944L35.0556 369.972L34.0556 370L32 370L32 377L40 377L39.2222 376.278L38.6944 376.25L37.8889 376.056L36.9722 376.028L36.0556 376L35.0556 376L33 376L33 371L35.0556 371L36.0556 371L37.8889 370.889L39.2222 370.389L39.6111 369.667L39 369z"/>
<path style="fill:#fa7b7b; stroke:none;" d="M48 369L48.7778 369.722L49.3056 369.75L50.1111 369.944L51.0278 369.972L52.9444 370L53.9444 370L56 370L55.2222 369.278L54.6944 369.25L53.8889 369.056L52.9722 369.028L51.0556 369L50.0556 369L48 369z"/>
<path style="fill:#ff0000; stroke:none;" d="M66 369L67 370L66 369z"/>
<path style="fill:#1c1f26; stroke:none;" d="M144 369L144.778 369.722L145.306 369.75L146.111 369.944L147.028 369.972L149 370L149.944 370L153 370L152.222 369.278L151.694 369.25L150.889 369.056L149.972 369.028L148 369L147.056 369L144 369M241 369L241.778 369.722L242.306 369.75L243.111 369.944L244.028 369.972L245.944 370L246.944 370L249 370L248.222 369.278L247.694 369.25L246.889 369.056L245.972 369.028L244.056 369L243.056 369L241 369z"/>
<path style="fill:#ff4040; stroke:none;" d="M29 370L29 377L29.7222 376.222L29.75 375.694L29.9444 374.889L29.9722 373.972L29.9444 372.111L29.75 371.306L29.7222 370.778L29 370z"/>
<path style="fill:#ff8a8a; stroke:none;" d="M40 370L40 378L48 378L48 370L40 370z"/>
<path style="fill:#e92b2b; stroke:none;" d="M48 370L48 378L57 378L57 370L48 370z"/>
<path style="fill:#2a2e30; stroke:none;" d="M144 370L144 378L177 378L176.222 377.278L175.694 377.25L174.889 377.056L173.972 377.028L172 377L170 377L167 377L145 377L145 374.944L145 373.944L144.972 373.028L144.944 372.111L144.75 371.306L144.722 370.778L144 370z"/>
<path style="fill:#000000; stroke:none;" d="M194 370L194 386L200 386L200 370L194 370z"/>
<path style="fill:#2a2e30; stroke:none;" d="M249 370L249 377L225 377L225.778 377.722L226.306 377.75L227.111 377.944L228.028 377.972L230 378L231 378L233 378L250 378L250 375.944L250 374.944L249.972 373.028L249.944 372.111L249.75 371.306L249.722 370.778L249 370z"/>
<path style="fill:#e92b2b; stroke:none;" d="M33 371L33 376L40 376L40 371L33 371z"/>
<path style="fill:#cc3333; stroke:none;" d="M58.3333 371.667L58.3333 372L58.6667 372.333L58.6667 371.667L58.3333 371.667z"/>
<path style="fill:#000033; stroke:none;" d="M134.333 371.667L134.333 372.333L134.667 372.333L134.667 372L134.333 371.667z"/>
<path style="fill:#ff4040; stroke:none;" d="M58 373L58 377L58.7222 376.222L58.7222 375.722L58.8889 375L58.7222 373.778L58 373z"/>
<path style="fill:#ff0000; stroke:none;" d="M29 377L30 378L29 377M58 377L59 378L58 377M30 378L31 379L30 378M57 378L58 379L57 378z"/>
<path style="fill:#000017; stroke:none;" d="M144 378L144.778 378.722L145.306 378.75L146.111 378.944L147.028 378.972L149 379L151 379L154 379L177 379L176.222 378.278L175.694 378.25L174.889 378.056L173.972 378.028L172 378L170 378L167 378L144 378z"/>
<path style="fill:#ff0000; stroke:none;" d="M31 379L32 380L31 379z"/>
<path style="fill:#ff4040; stroke:none;" d="M32 379L32.7778 379.722L33.3056 379.75L34.1111 379.944L35.0278 379.972L36.9444 380L37.9444 380L40 380L39.2222 379.278L38.6944 379.25L37.8889 379.056L36.9722 379.028L35.0556 379L34.0556 379L32 379z"/>
<path style="fill:#ff8080; stroke:none;" d="M40 379L40.7778 379.722L41.3056 379.75L42.1111 379.944L43.0278 379.972L44.9444 380L45.9444 380L48 380L47.2222 379.278L46.6944 379.25L45.8889 379.056L44.9722 379.028L43.0556 379L42.0556 379L40 379z"/>
<path style="fill:#ff4040; stroke:none;" d="M48 379L48.7778 379.722L49.3056 379.75L50.1111 379.944L51.0278 379.972L52.9444 380L53.9444 380L56 380L55.2222 379.278L54.6944 379.25L53.8889 379.056L52.9722 379.028L51.0556 379L50.0556 379L48 379z"/>
<path style="fill:#ff0000; stroke:none;" d="M56 379L57 380L56 379z"/>
</svg>
