<?xml version="1.0" standalone="yes"?>
<svg xmlns="http://www.w3.org/2000/svg" width="319" height="386">
<path style="fill:#000000; stroke:none;" d="M0 0L0 366L11 366L11 355L13.0556 355L14.0556 355L16 355.083L16.9444 355.222L17.9444 355.417L20 356L20 346L30 346L30 337L40 337L40 326L49 326L49 317L59 317L59 307L69 307L69 297L79 297L79 288L88 288L88 200L99 200L99 190L108 190L108 180L118 180L117.417 177.944L117.222 176.944L117.083 176L117 174.056L117 173.056L117 171L128 171L128 162L118 162L117 161L117 152L108 152L108 121L118 121L117.417 118.944L117.222 117.944L117.083 117L117 115L117 114L117 112L117 103L118 102L120.056 102L121.056 102L122 102L124 102.083L124.944 102.222L125.944 102.417L128 103L128 83L137 83L137 54L148 54L147.417 51.9445L147.222 50.9445L147.083 50L147 48L147 47.0555L147 46.0555L147 44L148 43L150.056 43L151.056 43L153 43.0833L153.944 43.2222L154.944 43.4167L157 44L157 34L166 34L166 24L236 24L236 33L177 33L177.778 33.7222L178.306 33.75L179.111 33.9445L180.028 33.9722L181 34L182 34L184 34L197 34L246 34L246 44L248.056 43.4167L249.056 43.2222L250 43.0833L251.944 43L252.944 43L255 43L255 54L266 54L266 70L266 75L266 77L265.917 79L265.778 79.9445L265.583 80.9445L265 83L275 83L275 103L277.056 102.417L278.056 102.222L279 102.083L280.944 102L281.944 102L284 102L284 121L295 121L295 152L284 152L284 162L275 162L275 171L284 171L284 180L295 180L295 190L304 190L304 200L314 200L314 376L283 376L283 368L304 368L303.222 367.278L302.694 367.25L301.889 367.056L300.972 367.028L299 367L298 367L295 367L275 367L275 386L319 386L319 0L0 0z"/>
<path style="fill:#090a1c; stroke:none;" d="M166 24L166 34L157 34L157 44L155.5 43.2778L154.944 43.25L153.944 43.0555L153 43.0278L152 43L151.056 43L148 43L147 44L147 47.0555L147 49L147.028 50L147.056 50.9445L147.25 51.9445L147.278 52.5L148 54L137 54L137 83L128 83L128 92L137 92L137 83L148 83L148 54L157 54L157 44L166 44L166 34L171 34L173 34L174 33.9722L175 33.9167L177 33.6111L179 33.2222L180 33.0833L182 33L184 33L188 33L200 33L236 33L236 24L166 24z"/>
<path style="fill:#16171f; stroke:none;" d="M166 34L166 44L166.722 43.2222L166.75 42.6945L166.944 41.8889L166.972 40.9722L167 39L167 38.0555L167 35L177 35L176.222 34.2778L175.694 34.25L174.889 34.0555L173.972 34.0278L172 34L170 34L166 34z"/>
<path style="fill:#343a3b; stroke:none;" d="M177 34L177.778 34.7222L178.306 34.75L179.111 34.9445L180.028 34.9722L181 35L182 35L184 35L194 35L235 35L234.222 34.2778L233.694 34.25L232.889 34.0555L231.972 34.0278L231 34L230 34L228 34L218 34L177 34z"/>
<path style="fill:#21242a; stroke:none;" d="M235 34L235 44L235.722 43.2222L235.75 42.6945L235.944 41.8889L235.972 40.9722L236 39L235.972 37.0278L235.944 36.1111L235.75 35.3055L235.722 34.7778L235 34z"/>
<path style="fill:#000017; stroke:none;" d="M236 34L236 44L238.056 43.4167L239.056 43.2222L240 43.0833L242 43L242.944 43L243.944 43L246 43L245.222 42.2778L244.694 42.25L243.889 42.0555L242.972 42.0278L241 42L240.056 42L237 42L237 39.9445L237 38.9445L236.972 37.0278L236.944 36.1111L236.75 35.3055L236.722 34.7778L236 34z"/>
<path style="fill:#0a0b1e; stroke:none;" d="M237 34L237 42L246 42L246 34L237 34z"/>
<path style="fill:#282824; stroke:none;" d="M167 35L167 44L177 44L177 35L167 35z"/>
<path style="fill:#58605b; stroke:none;" d="M177 35L177 44L167 44L167 54L177 54L177 44L197 44L197 35L177 35z"/>
<path style="fill:#686b6a; stroke:none;" d="M197 35L197 44L206 44L206 35L197 35z"/>
<path style="fill:#58605b; stroke:none;" d="M206 35L206 54L206.722 53.2222L206.75 52.6945L206.944 51.8889L206.972 50.9722L207 49L207 47.0555L207 44L217 44L217 54L226 54L226 44L235 44L235 54L245 54L245 44L235 44L235 35L206 35z"/>
<path style="fill:#151722; stroke:none;" d="M237 43L237.778 43.7222L238.306 43.75L239.111 43.9445L240.028 43.9722L242 44L242.944 44L246 44L245.222 43.2778L244.694 43.25L243.889 43.0555L242.972 43.0278L241 43L240.056 43L237 43z"/>
<path style="fill:#090a1c; stroke:none;" d="M247 43L247 53L255 53L255 43L247 43z"/>
<path style="fill:#282824; stroke:none;" d="M157 44L157 54L148 54L148 73L157 73L157 54L166 54L166 44L157 44z"/>
<path style="fill:#3b3f3b; stroke:none;" d="M166 44L166 54L166.722 53.2222L166.75 52.6945L166.944 51.8889L166.972 50.9722L167 49L166.972 47.0278L166.944 46.1111L166.75 45.3055L166.722 44.7778L166 44z"/>
<path style="fill:#444a46; stroke:none;" d="M177 44L177 54L157 54L157 73L157.722 72.2222L157.75 71.6945L157.944 70.8889L157.972 69.9722L158 69L158 68L158 66L158 55L167 55L167 64L186 64L186 84L196 84L196 93L196.722 92.2222L196.75 91.6945L196.944 90.8889L196.972 89.9722L197 88L197 86.0555L197 83L187 83L187 73L196 73L196 44L177 44z"/>
<path style="fill:#686d6b; stroke:none;" d="M196 44L196 54L196.722 53.2222L196.75 52.6945L196.944 51.8889L196.972 50.9722L197 49L196.972 47.0278L196.944 46.1111L196.75 45.3055L196.722 44.7778L196 44z"/>
<path style="fill:#989c9b; stroke:none;" d="M197 44L197 54L206 54L206 44L197 44z"/>
<path style="fill:#444a46; stroke:none;" d="M207 44L207 47.0555L207 48L206.972 50L206.917 51L206.611 53L206.389 54L206.083 56L206.028 57L206 59L206 63L206 73L216 73L216 83L206 83L206.778 83.7222L207.306 83.75L208.111 83.9445L209.028 83.9722L211 84L213 84L217 84L217 64L235 64L235 55L232.944 55L231.944 55L230 54.9722L229 54.9167L227 54.6111L226 54.3889L224 54.0833L223 54.0278L221 54L220.056 54L217 54L217 44L207 44z"/>
<path style="fill:#7b8681; stroke:none;" d="M226 44L226 54L235 54L235 44L226 44z"/>
<path style="fill:#383e3e; stroke:none;" d="M245 44L245 54L245.722 53.2222L245.75 52.6945L245.944 51.8889L245.972 50.9722L246 49L245.972 47.0278L245.944 46.1111L245.75 45.3055L245.722 44.7778L245 44z"/>
<path style="fill:#000010; stroke:none;" d="M246 44L246 54L255 54L254.222 53.2778L253.694 53.25L252.889 53.0555L251.972 53.0278L250.056 53L249.056 53L247 53L247 49.9445L247 49L246.972 47.0278L246.944 46.1111L246.75 45.3055L246.722 44.7778L246 44z"/>
<path style="fill:#4d544f; stroke:none;" d="M196 54L196 73L196.722 72.2222L196.75 71.6945L196.944 70.8889L196.972 69.9722L197 69L197 67L197 66L197 63L197 61L197 60L197 58L196.972 57.0278L196.944 56.1111L196.75 55.3055L196.722 54.7778L196 54z"/>
<path style="fill:#767b78; stroke:none;" d="M197 54L197.778 54.7222L198.306 54.75L199.111 54.9445L200.028 54.9722L202 55L202.944 55L206 55L205.222 54.2778L204.694 54.25L203.889 54.0555L202.972 54.0278L201 54L200.056 54L197 54z"/>
<path style="fill:#5c645f; stroke:none;" d="M226 54L226.778 54.7222L227.306 54.75L228.111 54.9445L229.028 54.9722L231 55L231.944 55L235 55L234.222 54.2778L233.694 54.25L232.889 54.0555L231.972 54.0278L230 54L229.056 54L226 54z"/>
<path style="fill:#737c78; stroke:none;" d="M235 54L235 64L246 64L246 54L235 54z"/>
<path style="fill:#4c5450; stroke:none;" d="M246 54L246.778 54.7222L247.306 54.75L248.111 54.9445L249.028 54.9722L250.944 55L251.944 55L254 55L254 64L254.722 63.2222L254.75 62.6945L254.944 61.8889L254.972 60.9722L255 59L255 57.0555L255 54L246 54z"/>
<path style="fill:#090a1c; stroke:none;" d="M255 54L255 83L265 83L266 82L266 54L255 54z"/>
<path style="fill:#5f6261; stroke:none;" d="M158 55L158 73L186 73L186 64L167 64L167 55L158 55z"/>
<path style="fill:#5d6560; stroke:none;" d="M197 55L197 92L206 92L206 83L216 83L216 73L206 73L206 55L197 55z"/>
<path style="fill:#7b8681; stroke:none;" d="M236 55L236 63L245 63L245 55L236 55z"/>
<path style="fill:#58605b; stroke:none;" d="M246 55L246 64L254 64L254 55L246 55z"/>
<path style="fill:#5f6261; stroke:none;" d="M217 64L217 73L245 73L245 64L217 64z"/>
<path style="fill:#505452; stroke:none;" d="M245 64L245 73L245.722 72.2222L245.75 71.6945L245.944 70.8889L245.972 69.9722L246 68L245.944 66.1111L245.75 65.3055L245.722 64.7778L245 64z"/>
<path style="fill:#444a46; stroke:none;" d="M246 64L246 74L246 76L246 77L245.972 79L245.917 80L245.611 82L245.389 83L245.083 85L245.028 86L245 88L245 92L245 103L245.722 102.222L245.75 101.694L245.944 100.889L245.972 99.9722L246 98L246 96.0555L246 93L265 93L265 84L255 84L255 92L246 92L246 83L254 83L254 64L246 64z"/>
<path style="fill:#3b403e; stroke:none;" d="M254 64L254 83L254.722 82.2222L254.75 81.6945L254.944 80.8889L254.972 79.9722L255 79L255 77L255 76L255 73L255 71L255 70L255 68L254.972 67.0278L254.944 66.1111L254.75 65.3055L254.722 64.7778L254 64z"/>
<path style="fill:#353936; stroke:none;" d="M148 73L148 83L186 83L186 74L170 74L164 74L163 74L161 73.9722L160 73.9167L158 73.6111L157 73.3889L155 73.0833L154 73.0278L152 73L151.056 73L148 73z"/>
<path style="fill:#3c403d; stroke:none;" d="M157 73L157.778 73.7222L158.306 73.75L159.111 73.9445L160.028 73.9722L162 74L163 74L166 74L186 74L185.222 73.2778L184.694 73.25L183.889 73.0555L182.972 73.0278L181 73L180 73L177 73L157 73z"/>
<path style="fill:#555c59; stroke:none;" d="M187 73L187 83L197 83L197 73L187 73z"/>
<path style="fill:#353936; stroke:none;" d="M217 73L217 83L246 83L246 73L217 73z"/>
<path style="fill:#15151e; stroke:none;" d="M137 83L137 92L128 92L128.778 92.7222L129.306 92.75L130.111 92.9445L131.028 92.9722L133 93L134.944 93L138 93L138 89.9445L138 88L137.972 86.0278L137.944 85.1111L137.75 84.3055L137.722 83.7778L137 83z"/>
<path style="fill:#242726; stroke:none;" d="M138 83L138.778 83.7222L139.306 83.75L140.111 83.9445L141.028 83.9722L143 84L144.944 84L148 84L148 93L157 93L157 84L186 84L185.222 83.2778L184.694 83.25L183.889 83.0555L182.972 83.0278L182 83L180 83L179 83L177 83L172 83L138 83z"/>
<path style="fill:#212428; stroke:none;" d="M217 83L217.778 83.7222L218.306 83.75L219.111 83.9445L220.028 83.9722L222 84L223 84L226 84L245 84L244.222 83.2778L243.694 83.25L242.889 83.0555L241.972 83.0278L240 83L239 83L236 83L217 83z"/>
<path style="fill:#555c59; stroke:none;" d="M246 83L246 92L255 92L255 83L246 83z"/>
<path style="fill:#363b3a; stroke:none;" d="M255 83L255.778 83.7222L256.306 83.75L257.111 83.9445L258.028 83.9722L260 84L261.944 84L265 84L264.222 83.2778L263.694 83.25L262.889 83.0555L261.972 83.0278L260 83L258.056 83L255 83z"/>
<path style="fill:#11131f; stroke:none;" d="M265 83L265 103L265.722 102.222L265.75 101.694L265.944 100.889L265.972 99.9722L266 99L266 97L266 96L266 93L266 90L266 89L266 87L265.972 86.0278L265.944 85.1111L265.75 84.3055L265.722 83.7778L265 83z"/>
<path style="fill:#090a1c; stroke:none;" d="M266 83L266 103L275 103L275 121L284 121L284 152L274 152L274 122L266 122L266 125.056L266 126L265.972 128L265.917 129L265.611 130.944L265.25 132.5L265 134L247 134L247 140L265 140L266 141L266 161L265 162L255 162L255 173L247 173L247 181L224 181L224 165L224 159L224 158L224.028 156L224.083 155L224.389 153L224.611 152L224.917 150L224.972 149L225 147L225 145.056L225 142L218 142L218 181L206 181L206 143L205.278 143.778L205.25 144.306L205.056 145.111L205.028 146.028L205 148L205 149L205 152L205 172L204.278 170.5L204.25 169.944L204.056 168.944L204.028 168L204 166L204 164L204 161L204 143L198 143L198 181L185 181L185 141L196 141L196 132L193.944 132.583L192.944 132.778L192 132.917L190 133L189 133L188 133L186 133L177 133L177 142L167 142L167 151L177 151L178 152L178 162L178 166L177.972 168L177.917 169L177.611 171L177.389 172L177.083 174L177.028 175L177 177L177 177.944L177 181L167 181L167 183L157 183L156.75 181.5L156.389 179.944L156.083 178L156.028 177L156 175.056L156 173L148 173L147 172L147 162L138 162L137 161L137 141L148 141L148 161L166 161L166 152L157 152L157 133L148 133L148 113L138 113L138 122L129 122L129 152L118 152L118 122L128 122L128 103L127 102L118 102L117 103L117 113L117 115L117 116L117.028 117L117.056 117.944L117.25 118.944L117.278 119.5L118 121L108 121L108 152L117 152L117 161L118 162L128 162L128 171L117 171L117 174.056L117 175L117.028 176L117.056 176.944L117.25 177.944L117.278 178.5L118 180L108 180L108 190L99 190L99 200L88 200L88 278L100 278L100 288L108 288L108 269L109 268L138 268L138 289L128 289L128 298L119 298L119 301.056L119 302L119.028 304L119.083 305L119.389 307L119.778 309L119.917 310L120 312L120 314L120 318L120 330L120 367L128 367L128 386L197 386L197 367L206 367L205.278 368.5L205.25 369.056L205.056 370.056L205.028 371L205 372L205 373L205 376L205 386L275 386L275 367L282 367L282 298L288 298L290 298L291 297.972L292 297.917L294 297.611L295 297.389L297 297.083L298 297.028L300 297L300.944 297L304 297L305 298L305 367L304 368L283 368L283 376L314 376L314 200L304 200L304 190L295 190L295 180L284 180L284 171L275 171L275 162L284 162L284 152L295 152L295 121L284 121L284 102L280.944 102L280 102L279 102.028L278.056 102.056L277.056 102.25L276.5 102.278L275 103L275 83L266 83z"/>
<path style="fill:#2f3331; stroke:none;" d="M138 84L138 93L148 93L148 84L138 84z"/>
<path style="fill:#090a1c; stroke:none;" d="M157 84L157 92L159.056 91.4167L160.056 91.2222L161 91.0833L163 91L165 91L170 91L186 91L186 84L157 84z"/>
<path style="fill:#353936; stroke:none;" d="M186 84L186 92L177 92L177.778 92.7222L178.306 92.75L179.111 92.9445L180.028 92.9722L181 93L182 93L184 93L196 93L196 84L186 84M206 84L206 93L226 93L225.222 92.2778L224.694 92.25L223.889 92.0555L222.972 92.0278L221 92L219.056 92L216 92L216 84L206 84z"/>
<path style="fill:#202327; stroke:none;" d="M216 84L216 92L216.722 91.2222L216.75 90.6945L216.944 89.8889L216.972 88.9722L217 88L216.944 86.1111L216.75 85.3055L216.722 84.7778L216 84z"/>
<path style="fill:#000019; stroke:none;" d="M217 84L217 91L217.722 90.2222L217.75 89.6945L217.944 88.8889L217.972 88.0278L218 87.0555L218 85L244 85L243.222 84.2778L242.694 84.25L241.889 84.0555L240.972 84.0278L239 84L238 84L235 84L217 84z"/>
<path style="fill:#000000; stroke:none;" d="M244 84L244 91L217 91L217.778 91.7222L218.306 91.75L219.111 91.9445L220.028 91.9722L222 92L223 92L226 92L245 92L245 89.9445L245 88.9445L244.972 87.0278L244.944 86.1111L244.75 85.3055L244.722 84.7778L244 84z"/>
<path style="fill:#090a1c; stroke:none;" d="M218 85L218 91L244 91L244 85L218 85z"/>
<path style="fill:#000000; stroke:none;" d="M158 91L158.778 91.7222L159.306 91.75L160.111 91.9445L161.028 91.9722L163 92L164 92L167 92L186 92L185.222 91.2778L184.694 91.25L183.889 91.0555L182.972 91.0278L181 91L180 91L177 91L158 91z"/>
<path style="fill:#323438; stroke:none;" d="M157 92L157.778 92.7222L158.306 92.75L159.111 92.9445L160.028 92.9722L162 93L163.944 93L167 93L166.222 92.2778L165.694 92.25L164.889 92.0555L163.972 92.0278L162 92L160.056 92L157 92z"/>
<path style="fill:#696c6d; stroke:none;" d="M167 92L167.778 92.7222L168.306 92.75L169.111 92.9445L170.028 92.9722L172 93L173.944 93L177 93L176.222 92.2778L175.694 92.25L174.889 92.0555L173.972 92.0278L172 92L170.056 92L167 92z"/>
<path style="fill:#535a56; stroke:none;" d="M197 92L197.778 92.7222L198.306 92.75L199.111 92.9445L200.028 92.9722L202 93L202.944 93L206 93L205.222 92.2778L204.694 92.25L203.889 92.0555L202.972 92.0278L201 92L200.056 92L197 92z"/>
<path style="fill:#696c6d; stroke:none;" d="M226 92L226.778 92.7222L227.306 92.75L228.111 92.9445L229.028 92.9722L231 93L231.944 93L235 93L234.222 92.2778L233.694 92.25L232.889 92.0555L231.972 92.0278L230 92L229.056 92L226 92z"/>
<path style="fill:#323438; stroke:none;" d="M235 92L235.778 92.7222L236.306 92.75L237.111 92.9445L238.028 92.9722L240 93L241.944 93L245 93L244.222 92.2778L243.694 92.25L242.889 92.0555L241.972 92.0278L240 92L238.056 92L235 92z"/>
<path style="fill:#282824; stroke:none;" d="M128 93L128 122L118 122L118 152L128 152L128 122L138 122L138 113L148 113L148 122L197 122L196.222 121.278L195.694 121.25L194.889 121.056L193.972 121.028L192 121L190 121L185 121L157 121L157 113L167 113L166.222 112.278L165.694 112.25L164.889 112.056L163.972 112.028L162 112L161 112L158 112L138 112L138 103L148 103L148 93L128 93z"/>
<path style="fill:#090a1c; stroke:none;" d="M148 93L148 112L157 112L157 93L148 93z"/>
<path style="fill:#4d5051; stroke:none;" d="M157 93L157 103L157.722 102.222L157.75 101.694L157.944 100.889L157.972 99.9722L158 98L157.972 96.0278L157.944 95.1111L157.75 94.3055L157.722 93.7778L157 93z"/>
<path style="fill:#5f6261; stroke:none;" d="M158 93L158 103L165 103L165 93L158 93z"/>
<path style="fill:#515352; stroke:none;" d="M165 93L165 103L165.722 102.222L165.75 101.694L165.944 100.889L165.972 99.9722L166 98L165.972 96.0278L165.944 95.1111L165.75 94.3055L165.722 93.7778L165 93z"/>
<path style="fill:#868a89; stroke:none;" d="M166 93L166 103L166.722 102.222L166.75 101.694L166.944 100.889L166.972 99.9722L167 98L166.972 96.0278L166.944 95.1111L166.75 94.3055L166.722 93.7778L166 93z"/>
<path style="fill:#c2c7c6; stroke:none;" d="M167 93L167 103L177 103L177 93L167 93z"/>
<path style="fill:#6c6f6e; stroke:none;" d="M177 93L177 103L177.722 102.222L177.75 101.694L177.944 100.889L177.972 99.9722L178 98L177.972 96.0278L177.944 95.1111L177.75 94.3055L177.722 93.7778L177 93z"/>
<path style="fill:#5f6261; stroke:none;" d="M178 93L178 103L186 103L186 93L178 93z"/>
<path style="fill:#3c3e41; stroke:none;" d="M186 93L186 103L186.722 102.222L186.75 101.694L186.944 100.889L186.972 99.9722L187 98L186.972 96.0278L186.944 95.1111L186.75 94.3055L186.722 93.7778L186 93z"/>
<path style="fill:#090a1c; stroke:none;" d="M187 93L187 113L157 113L157 120L195 120L195 94L192.944 93.9722L191.944 93.9167L190.056 93.6111L188.5 93.25L187 93z"/>
<path style="fill:#000017; stroke:none;" d="M189 93L189.778 93.7222L190.306 93.75L191.111 93.9445L191.972 93.9722L192.944 94L195 94L195 120L157 120L157.778 120.722L158.306 120.75L159.111 120.944L160.028 120.972L162 121L164 121L169 121L197 121L196.417 118.944L196.222 117.944L196.083 117L196 115L196 113L196 108L196 93L189 93z"/>
<path style="fill:#181b22; stroke:none;" d="M196 93L196 120L196.722 119.222L196.75 118.694L196.944 117.889L196.972 116.972L197 116L197 115L197 113L197 100L197 98L197 97L196.972 96.0278L196.944 95.1111L196.75 94.3055L196.722 93.7778L196 93z"/>
<path style="fill:#2a2e2c; stroke:none;" d="M197 93L197 120L206 120L206 93L197 93z"/>
<path style="fill:#090a1c; stroke:none;" d="M206 93L206 121L217 121L221 121L223 120.972L224 120.917L226 120.611L227 120.389L229 120.083L230 120.028L232 120L233 120L235 120L245 120L245 113L216 113L216 93L206 93z"/>
<path style="fill:#4d5050; stroke:none;" d="M216 93L216 103L216.722 102.222L216.75 101.694L216.944 100.889L216.972 99.9722L217 98L216.972 96.0278L216.944 95.1111L216.75 94.3055L216.722 93.7778L216 93z"/>
<path style="fill:#5f6261; stroke:none;" d="M217 93L217 103L224 103L224 93L217 93z"/>
<path style="fill:#515352; stroke:none;" d="M224 93L224 103L224.722 102.222L224.75 101.694L224.944 100.889L224.972 99.9722L225 98L224.972 96.0278L224.944 95.1111L224.75 94.3055L224.722 93.7778L224 93z"/>
<path style="fill:#858988; stroke:none;" d="M225 93L225 103L225.722 102.222L225.75 101.694L225.944 100.889L225.972 99.9722L226 98L225.972 96.0278L225.944 95.1111L225.75 94.3055L225.722 93.7778L225 93z"/>
<path style="fill:#c2c7c6; stroke:none;" d="M226 93L226 103L235 103L235 93L226 93z"/>
<path style="fill:#727675; stroke:none;" d="M235 93L235 103L235.722 102.222L235.75 101.694L235.944 100.889L235.972 99.9722L236 98L235.972 96.0278L235.944 95.1111L235.75 94.3055L235.722 93.7778L235 93z"/>
<path style="fill:#5f6261; stroke:none;" d="M236 93L236 103L245 103L245 93L236 93z"/>
<path style="fill:#0a0b1c; stroke:none;" d="M246 93L246 112L254 112L254 93L246 93z"/>
<path style="fill:#181b23; stroke:none;" d="M254 93L254 103L254.722 102.222L254.75 101.694L254.944 100.889L254.972 99.9722L255 98L254.972 96.0278L254.944 95.1111L254.75 94.3055L254.722 93.7778L254 93z"/>
<path style="fill:#2f3331; stroke:none;" d="M255 93L255 103L265 103L265 93L255 93z"/>
<path style="fill:#2f3330; stroke:none;" d="M138 103L138 112L148 112L148 103L138 103z"/>
<path style="fill:#2e3231; stroke:none;" d="M157 103L157 112L166 112L166 104L163.944 104L162.944 104L161 103.917L160.056 103.778L159.056 103.583L157 103z"/>
<path style="fill:#414443; stroke:none;" d="M158 103L158.778 103.722L159.306 103.75L160.111 103.944L161.028 103.972L162.944 104L163.944 104L166 104L166 112L166.722 111.222L166.75 110.694L166.944 109.889L166.972 108.972L167 107L167 106.056L167 103L158 103z"/>
<path style="fill:#707372; stroke:none;" d="M167 103L167.778 103.722L168.306 103.75L169.111 103.944L170.028 103.972L172 104L173.944 104L177 104L176.222 103.278L175.694 103.25L174.889 103.056L173.972 103.028L172 103L170.056 103L167 103z"/>
<path style="fill:#2e3231; stroke:none;" d="M177 103L177 112L186 112L186 103L177 103z"/>
<path style="fill:#1e2126; stroke:none;" d="M186 103L186 112L177 112L177.778 112.722L178.306 112.75L179.111 112.944L180.028 112.972L182 113L183.944 113L187 113L187 109.944L187 108L186.972 106.028L186.944 105.111L186.75 104.306L186.722 103.778L186 103z"/>
<path style="fill:#2e3231; stroke:none;" d="M216 103L216 113L226 113L226 103L216 103z"/>
<path style="fill:#707372; stroke:none;" d="M226 103L226.778 103.722L227.306 103.75L228.111 103.944L229.028 103.972L231 104L231.944 104L235 104L234.222 103.278L233.694 103.25L232.889 103.056L231.972 103.028L230 103L229.056 103L226 103z"/>
<path style="fill:#363a39; stroke:none;" d="M235 103L235 112L235.722 111.222L235.75 110.694L235.944 109.889L235.972 108.972L236 107.056L236 106.056L236 104L245 104L244.222 103.278L243.694 103.25L242.889 103.056L241.972 103.028L240 103L238.056 103L235 103z"/>
<path style="fill:#2a2e2d; stroke:none;" d="M245 103L243.5 103.722L242.944 103.75L241.944 103.944L241 103.972L240 104L239.056 104L236 104L236 106.056L236 107.056L235.917 109L235.778 109.944L235.583 110.944L235 113L245 113L245 121L254 121L254 114L253.278 114.778L253.25 115.306L253.056 116.111L253.028 116.972L253 117.944L253 120L246 120L246 113L254 113L253.222 112.278L252.694 112.25L251.889 112.056L250.972 112.028L249.056 112L248.056 112L246 112L246 108.944L246 108L245.972 106.028L245.944 105.111L245.75 104.306L245.722 103.778L245 103z"/>
<path style="fill:#2d3134; stroke:none;" d="M254 103L254 112L254.722 111.222L254.75 110.694L254.944 109.889L254.972 108.972L255 107L254.944 105.111L254.75 104.306L254.722 103.778L254 103z"/>
<path style="fill:#555c59; stroke:none;" d="M255 103L255 122L265 122L265 103L255 103z"/>
<path style="fill:#404541; stroke:none;" d="M265 103L265 122L274 122L274 112L266 112L266 108.944L266 108L265.972 106.028L265.944 105.111L265.75 104.306L265.722 103.778L265 103z"/>
<path style="fill:#2f3331; stroke:none;" d="M266 103L266 112L274 112L274 132L274.722 131.222L274.75 130.694L274.944 129.889L274.972 128.972L275 127L275 125.056L275 122L284 122L283.222 121.278L282.694 121.25L281.889 121.056L280.972 121.028L279 121L278.056 121L275 121L275 103L266 103z"/>
<path style="fill:#5f6261; stroke:none;" d="M167 104L167 112L177 112L177 104L167 104M226 104L226 112L235 112L235 104L226 104z"/>
<path style="fill:#404244; stroke:none;" d="M167 112L167.778 112.722L168.306 112.75L169.111 112.944L170.028 112.972L172 113L173.944 113L177 113L176.222 112.278L175.694 112.25L174.889 112.056L173.972 112.028L172 112L170.056 112L167 112M226 112L226.778 112.722L227.306 112.75L228.111 112.944L229.028 112.972L231 113L231.944 113L235 113L234.222 112.278L233.694 112.25L232.889 112.056L231.972 112.028L230 112L229.056 112L226 112z"/>
<path style="fill:#454c44; stroke:none;" d="M254 112L254 121L245 121L245.778 121.722L246.306 121.75L247.111 121.944L248.028 121.972L250 122L251.944 122L255 122L255 118.944L255 117L254.972 115.028L254.944 114.111L254.75 113.306L254.722 112.778L254 112z"/>
<path style="fill:#363d31; stroke:none;" d="M246 113L246 120L253 120L253.028 117.944L253.083 116.944L253.417 115.056L254 113L246 113z"/>
<path style="fill:#0c130f; stroke:none;" d="M197 120L197.778 120.722L198.306 120.75L199.111 120.944L200.028 120.972L202 121L202.944 121L206 121L205.222 120.278L204.694 120.25L203.889 120.056L202.972 120.028L201 120L200.056 120L197 120z"/>
<path style="fill:#000007; stroke:none;" d="M226 120L226.778 120.722L227.306 120.75L228.111 120.944L229.028 120.972L230 121L231 121L233 121L245 121L244.222 120.278L243.694 120.25L242.889 120.056L241.972 120.028L241 120L240 120L238 120L226 120z"/>
<path style="fill:#535755; stroke:none;" d="M197 121L197.778 121.722L198.306 121.75L199.111 121.944L200.028 121.972L202 122L202.944 122L206 122L205.222 121.278L204.694 121.25L203.889 121.056L202.972 121.028L201 121L200.056 121L197 121z"/>
<path style="fill:#232625; stroke:none;" d="M206 121L206.778 121.722L207.306 121.75L208.111 121.944L209.028 121.972L211 122L213 122L217 122L217 132L225 132L225 128.944L225 128L225 127L225.083 125L225.222 124.056L225.417 123.056L226 121L206 121z"/>
<path style="fill:#33373a; stroke:none;" d="M226 121L226.778 121.722L227.306 121.75L228.111 121.944L229.028 121.972L230 122L231 122L233 122L245 122L244.222 121.278L243.694 121.25L242.889 121.056L241.972 121.028L241 121L240 121L238 121L226 121z"/>
<path style="fill:#17171f; stroke:none;" d="M128 122L128 152L128.722 151.222L128.75 150.694L128.944 149.889L128.972 148.972L129 147L129 146L129 144L129 130L129 128L129 127L128.972 125.028L128.944 124.111L128.75 123.306L128.722 122.778L128 122z"/>
<path style="fill:#464c4a; stroke:none;" d="M148 122L148 132L157 132L157 122L148 122z"/>
<path style="fill:#555c59; stroke:none;" d="M157 122L157 132L177 132L177 122L157 122z"/>
<path style="fill:#464c4a; stroke:none;" d="M177 122L177 132L186 132L186 122L177 122z"/>
<path style="fill:#414343; stroke:none;" d="M186 122L186 132L195 132L195 122L186 122z"/>
<path style="fill:#323434; stroke:none;" d="M195 122L195 132L195.722 131.222L195.75 130.694L195.944 129.889L195.972 128.972L196 127L195.972 125.028L195.944 124.111L195.75 123.306L195.722 122.778L195 122z"/>
<path style="fill:#676a6a; stroke:none;" d="M196 122L196 132L196.722 131.222L196.75 130.694L196.944 129.889L196.972 128.972L197 127L196.972 125.028L196.944 124.111L196.75 123.306L196.722 122.778L196 122z"/>
<path style="fill:#989c9b; stroke:none;" d="M197 122L197 132L206 132L206 122L197 122z"/>
<path style="fill:#505252; stroke:none;" d="M206 122L206 132L206.722 131.222L206.75 130.694L206.944 129.889L206.972 128.972L207 127L206.972 125.028L206.944 124.111L206.75 123.306L206.722 122.778L206 122z"/>
<path style="fill:#414343; stroke:none;" d="M207 122L207 132L216 132L216 122L207 122z"/>
<path style="fill:#2f3331; stroke:none;" d="M216 122L216 141L197 141L197.778 141.722L198.306 141.75L199.111 141.944L200.028 141.972L201 142L202 142L204 142L216 142L216 172L216.722 171.222L216.75 170.694L216.944 169.889L216.972 168.972L217 167L217 165L217 162L217 141L226 141L226 152L235 152L235 141L245 141L245 133L226 133L226 122L225.278 122.778L225.25 123.306L225.056 124.111L225.028 125.028L225 127L225 128.944L225 132L217 132L217 128.944L217 127L216.972 125.028L216.944 124.111L216.75 123.306L216.722 122.778L216 122z"/>
<path style="fill:#525956; stroke:none;" d="M226 122L226 132L235 132L235 122L226 122z"/>
<path style="fill:#68716d; stroke:none;" d="M235 122L235 132L255 132L255 122L235 122z"/>
<path style="fill:#444a46; stroke:none;" d="M255 122L255 132L265 132L265 122L255 122z"/>
<path style="fill:#171a23; stroke:none;" d="M265 122L265 132L265.722 131.222L265.75 130.694L265.944 129.889L265.972 128.972L266 127L265.972 125.028L265.944 124.111L265.75 123.306L265.722 122.778L265 122z"/>
<path style="fill:#404541; stroke:none;" d="M275 122L275 132L284 132L284 122L275 122z"/>
<path style="fill:#1b1e26; stroke:none;" d="M148 132L148.778 132.722L149.306 132.75L150.111 132.944L151.028 132.972L153 133L153.944 133L157 133L156.222 132.278L155.694 132.25L154.889 132.056L153.972 132.028L152 132L151.056 132L148 132z"/>
<path style="fill:#363b39; stroke:none;" d="M157 132L157.778 132.722L158.306 132.75L159.111 132.944L160.028 132.972L161 133L162 133L164 133L177 133L176.222 132.278L175.694 132.25L174.889 132.056L173.972 132.028L173 132L172 132L170 132L157 132z"/>
<path style="fill:#191a24; stroke:none;" d="M177 132L177.778 132.722L178.306 132.75L179.111 132.944L180.028 132.972L181 133L182 133L184 133L195 133L194.222 132.278L193.694 132.25L192.889 132.056L191.972 132.028L191 132L190 132L188 132L177 132z"/>
<path style="fill:#25272d; stroke:none;" d="M196 132L196 141L196.722 140.222L196.75 139.694L196.944 138.889L197 137L196.972 135.028L196.944 134.111L196.75 133.306L196.722 132.778L196 132z"/>
<path style="fill:#545756; stroke:none;" d="M197 132L197.778 132.722L198.306 132.75L199.111 132.944L200.028 132.972L202 133L202.944 133L206 133L205.222 132.278L204.694 132.25L203.889 132.056L202.972 132.028L201 132L200.056 132L197 132z"/>
<path style="fill:#191a24; stroke:none;" d="M206 132L206 140L206.722 139.222L206.75 138.694L206.944 137.889L206.972 136.972L207 136.056L207 135.056L207 133L216 133L215.222 132.278L214.694 132.25L213.889 132.056L212.972 132.028L211 132L209.056 132L206 132z"/>
<path style="fill:#3b403e; stroke:none;" d="M226 132L226.778 132.722L227.306 132.75L228.111 132.944L229.028 132.972L230 133L231 133L233 133L246 133L245.222 132.278L244.694 132.25L243.889 132.056L242.972 132.028L242 132L241 132L239 132L226 132z"/>
<path style="fill:#292d32; stroke:none;" d="M246 132L246.778 132.722L247.306 132.75L248.111 132.944L249.028 132.972L251 133L251.944 133L255 133L254.222 132.278L253.694 132.25L252.889 132.056L251.972 132.028L250 132L249.056 132L246 132z"/>
<path style="fill:#1a1d25; stroke:none;" d="M255 132L255.778 132.722L256.306 132.75L257.111 132.944L258.028 132.972L260 133L261.944 133L265 133L264.222 132.278L263.694 132.25L262.889 132.056L261.972 132.028L260 132L258.056 132L255 132z"/>
<path style="fill:#282824; stroke:none;" d="M274 132L274 152L284 152L284 132L274 132z"/>
<path style="fill:#2f3331; stroke:none;" d="M157 133L157 152L166 152L166 161L166.722 160.222L166.75 159.694L166.944 158.889L166.972 157.972L167 156L167 155.056L167 152L177 152L176.222 151.278L175.694 151.25L174.889 151.056L173.972 151.028L172 151L170.056 151L167 151L167 141L177 141L177 133L157 133z"/>
<path style="fill:#414343; stroke:none;" d="M197 133L197 141L206 141L206 133L197 133z"/>
<path style="fill:#090a1c; stroke:none;" d="M207 133L207 135.056L206.972 136.056L206.917 137L206.583 138.944L206 141L216 141L216 133L207 133z"/>
<path style="fill:#232625; stroke:none;" d="M245 133L245 141L235 141L235.778 141.722L236.306 141.75L237.111 141.944L238.028 141.972L240 142L241.944 142L245 142L245 152L254 152L254 148.944L254 148L254 147L254.083 145L254.222 144.056L254.417 143.056L255 141L246 141L246 138.944L246 137.944L245.972 136.028L245.944 135.111L245.75 134.306L245.722 133.778L245 133z"/>
<path style="fill:#000018; stroke:none;" d="M246 133L246 141L265 141L264.222 140.278L263.694 140.25L262.889 140.056L261.972 140.028L261 140L260 140L258 140L247 140L247 134L265 134L264.222 133.278L263.694 133.25L262.889 133.056L261.972 133.028L261 133L260 133L258 133L246 133z"/>
<path style="fill:#1a1c21; stroke:none;" d="M137 141L137 152L139.056 151.417L140.056 151.222L141 151.083L143 151L144 151L144.944 151L148 151L147.222 150.278L146.694 150.25L145.889 150.056L144.972 150.028L143 150L141.056 150L138 150L138 142L148 142L147.222 141.278L146.694 141.25L145.889 141.056L144.972 141.028L143 141L141 141L137 141z"/>
<path style="fill:#202327; stroke:none;" d="M167 141L167.778 141.722L168.306 141.75L169.111 141.944L170.028 141.972L172 142L173.944 142L177 142L176.222 141.278L175.694 141.25L174.889 141.056L173.972 141.028L172 141L170.056 141L167 141z"/>
<path style="fill:#000011; stroke:none;" d="M185 141L185 181L185.722 180.222L185.75 179.694L185.944 178.889L185.972 177.972L186 176L186 174L186 171L186 151L186 148L186 146L185.972 144.028L185.944 143.111L185.75 142.306L185.722 141.778L185 141z"/>
<path style="fill:#414345; stroke:none;" d="M186 141L186 172L197 172L197 141L186 141z"/>
<path style="fill:#171921; stroke:none;" d="M217 141L217.778 141.722L218.306 141.75L219.111 141.944L220.028 141.972L221.944 142L222.944 142L225 142L225 152L225.722 151.222L225.75 150.694L225.944 149.889L225.972 148.972L226 147L226 145L226 141L217 141z"/>
<path style="fill:#323637; stroke:none;" d="M255 141L255.778 141.722L256.306 141.75L257.111 141.944L258.028 141.972L260 142L261.944 142L265 142L264.222 141.278L263.694 141.25L262.889 141.056L261.972 141.028L260 141L258.056 141L255 141z"/>
<path style="fill:#1d2028; stroke:none;" d="M265 141L265 161L265.722 160.222L265.75 159.694L265.944 158.889L265.972 157.972L266 157L266 155L266 154L266 151L266 148L266 147L266 145L265.972 144.028L265.944 143.111L265.75 142.306L265.722 141.778L265 141z"/>
<path style="fill:#232625; stroke:none;" d="M138 142L138 150L148 150L148 142L138 142z"/>
<path style="fill:#525555; stroke:none;" d="M187 142L187 171L196 171L196 142L187 142z"/>
<path style="fill:#000013; stroke:none;" d="M197 142L197 181L197.722 180.222L197.75 179.694L197.944 178.889L197.972 177.972L198 176L198 174L198 169L198 143L204 143L204 172L204.722 171.222L204.75 170.694L204.944 169.889L204.972 168.972L205 167L205 165L205 162L205 153L205 150L205 149L205 148L205.083 146L205.222 145.056L205.417 144.056L206 142L197 142z"/>
<path style="fill:#525555; stroke:none;" d="M206 142L206 171L216 171L216 142L206 142z"/>
<path style="fill:#000010; stroke:none;" d="M217 142L217 181L217.722 180.222L217.75 179.694L217.944 178.889L217.972 177.972L218 176L218 174L218 171L218 151L218 148L218 147L217.972 145.028L217.944 144.111L217.75 143.306L217.722 142.778L217 142z"/>
<path style="fill:#090a1c; stroke:none;" d="M235 142L235 145.056L235 147L235.028 149L235.083 150L235.389 152L235.611 153L235.917 155L235.972 156L236 157.944L236 158.944L236 161L254 161L254 152L245 152L245 142L235 142z"/>
<path style="fill:#2c3034; stroke:none;" d="M254 142L254 161L254.722 160.222L254.75 159.694L254.944 158.889L254.972 157.972L255 157L255 155L255 154L255 151L255 149L255 148L255 146L254.972 145.028L254.944 144.111L254.75 143.306L254.722 142.778L254 142z"/>
<path style="fill:#444a46; stroke:none;" d="M255 142L255 152L265 152L265 142L255 142z"/>
<path style="fill:#343837; stroke:none;" d="M138 151L138.778 151.722L139.306 151.75L140.111 151.944L141.028 151.972L143 152L144.944 152L148 152L147.222 151.278L146.694 151.25L145.889 151.056L144.972 151.028L143 151L141.056 151L138 151z"/>
<path style="fill:#323639; stroke:none;" d="M137 152L137 161L137.722 160.222L137.75 159.694L137.944 158.889L137.972 157.972L138 156L137.944 154.111L137.75 153.306L137.722 152.778L137 152z"/>
<path style="fill:#555c59; stroke:none;" d="M138 152L138 161L148 161L148 171L157 171L157 161L148 161L148 152L138 152z"/>
<path style="fill:#525555; stroke:none;" d="M167 152L167 171L177 171L177 152L167 152z"/>
<path style="fill:#181a24; stroke:none;" d="M177 152L177 172L177.722 171.222L177.75 170.694L177.944 169.889L177.972 168.972L178 168L178 166L178 165L178 162L178 159L178 158L178 156L177.972 155.028L177.944 154.111L177.75 153.306L177.722 152.778L177 152z"/>
<path style="fill:#000011; stroke:none;" d="M224 152L224 181L224.722 180.222L224.75 179.694L224.944 178.889L224.972 177.972L225 176L225 175L225 173L225 160L225 158L225 157L224.972 155.028L224.944 154.111L224.75 153.306L224.722 152.778L224 152z"/>
<path style="fill:#2d2f34; stroke:none;" d="M225 152L225 172L225.722 171.222L225.75 170.694L225.944 169.889L225.972 168.972L226 168L226 166L226 165L226 162L226 159L226 158L226 156L225.972 155.028L225.944 154.111L225.75 153.306L225.722 152.778L225 152z"/>
<path style="fill:#525555; stroke:none;" d="M226 152L226 171L235 171L235 152L226 152z"/>
<path style="fill:#1e2029; stroke:none;" d="M235 152L235 161L235.722 160.222L235.75 159.694L235.944 158.889L235.972 157.972L236 156L235.944 154.111L235.75 153.306L235.722 152.778L235 152z"/>
<path style="fill:#555c59; stroke:none;" d="M255 152L255 161L245 161L245 171L255 171L255 161L265 161L265 152L255 152z"/>
<path style="fill:#191c25; stroke:none;" d="M138 161L138.778 161.722L139.306 161.75L140.111 161.944L141.028 161.972L143 162L143.944 162L147 162L147 172L147.722 171.222L147.75 170.694L147.944 169.889L147.972 168.972L148 167L148 165L148 161L138 161z"/>
<path style="fill:#3d4340; stroke:none;" d="M157 161L157 171L157.722 170.222L157.75 169.694L157.944 168.889L157.972 167.972L158 166L157.972 164.028L157.944 163.111L157.75 162.306L157.722 161.778L157 161z"/>
<path style="fill:#2b2f2d; stroke:none;" d="M158 161L158 170L166 170L166 161L158 161z"/>
<path style="fill:#393c3b; stroke:none;" d="M166 161L166 171L166.722 170.222L166.75 169.694L166.944 168.889L166.972 167.972L167 166L166.972 164.028L166.944 163.111L166.75 162.306L166.722 161.778L166 161z"/>
<path style="fill:#2a2e2c; stroke:none;" d="M235 161L235 171L237.056 170.417L238.056 170.222L239 170.083L241 170L241.944 170L242.944 170L245 170L245 161L235 161z"/>
<path style="fill:#24282e; stroke:none;" d="M255 161L255.778 161.722L256.306 161.75L257.111 161.944L258.028 161.972L260 162L261.944 162L265 162L264.222 161.278L263.694 161.25L262.889 161.056L261.972 161.028L260 161L258.056 161L255 161z"/>
<path style="fill:#000600; stroke:none;" d="M158 170L158.778 170.722L159.306 170.75L160.111 170.944L161.028 170.972L162.944 171L163.944 171L166 171L165.222 170.278L164.694 170.25L163.889 170.056L162.972 170.028L161.056 170L160.056 170L158 170M236 170L236.778 170.722L237.306 170.75L238.111 170.944L239.028 170.972L241 171L241.944 171L245 171L244.222 170.278L243.694 170.25L242.889 170.056L241.972 170.028L240 170L239.056 170L236 170z"/>
<path style="fill:#3a3f40; stroke:none;" d="M148 171L148.778 171.722L149.306 171.75L150.111 171.944L151.028 171.972L153 172L153.944 172L157 172L156.222 171.278L155.694 171.25L154.889 171.056L153.972 171.028L152 171L151.056 171L148 171z"/>
<path style="fill:#767a79; stroke:none;" d="M157 171L157 181L157.722 180.222L157.75 179.694L157.944 178.889L157.972 177.972L158 176L158 175.056L158 172L167 172L166.222 171.278L165.694 171.25L164.889 171.056L163.972 171.028L162 171L160.056 171L157 171z"/>
<path style="fill:#424544; stroke:none;" d="M167 171L167.778 171.722L168.306 171.75L169.111 171.944L170.028 171.972L172 172L173.944 172L177 172L176.222 171.278L175.694 171.25L174.889 171.056L173.972 171.028L172 171L170.056 171L167 171M206 171L206.778 171.722L207.306 171.75L208.111 171.944L209.028 171.972L211 172L212.944 172L216 172L215.222 171.278L214.694 171.25L213.889 171.056L212.972 171.028L211 171L209.056 171L206 171M226 171L226.778 171.722L227.306 171.75L228.111 171.944L229.028 171.972L231 172L231.944 172L235 172L234.222 171.278L233.694 171.25L232.889 171.056L231.972 171.028L230 171L229.056 171L226 171z"/>
<path style="fill:#767a79; stroke:none;" d="M235 171L235.778 171.722L236.306 171.75L237.111 171.944L238.028 171.972L240 172L241.944 172L245 172L244.222 171.278L243.694 171.25L242.889 171.056L241.972 171.028L240 171L238.056 171L235 171z"/>
<path style="fill:#636667; stroke:none;" d="M245 171L245 181L245.722 180.222L245.75 179.694L245.944 178.889L245.972 177.972L246 176L245.972 174.028L245.944 173.111L245.75 172.306L245.722 171.778L245 171z"/>
<path style="fill:#3a3f40; stroke:none;" d="M246 171L246.778 171.722L247.306 171.75L248.111 171.944L249.028 171.972L251 172L251.944 172L255 172L254.222 171.278L253.694 171.25L252.889 171.056L251.972 171.028L250 171L249.056 171L246 171z"/>
<path style="fill:#000000; stroke:none;" d="M148 172L148.778 172.722L149.306 172.75L150.111 172.944L151.028 172.972L152.944 173L153.944 173L156 173L156 181L156.722 180.222L156.75 179.694L156.944 178.889L156.972 177.972L157 176L157 175.056L157 172L148 172z"/>
<path style="fill:#979b9a; stroke:none;" d="M158 172L158 180L166 180L166 172L158 172z"/>
<path style="fill:#898d8c; stroke:none;" d="M166 172L166 180L158 180L158.778 180.722L159.306 180.75L160.111 180.944L161.028 180.972L163 181L163.944 181L167 181L167 177.944L167 177L166.972 175.028L166.944 174.111L166.75 173.306L166.722 172.778L166 172z"/>
<path style="fill:#1e231f; stroke:none;" d="M167 172L167 181L167.722 180.222L167.75 179.694L167.944 178.889L167.972 177.972L168 176L167.944 174.111L167.75 173.306L167.722 172.778L167 172z"/>
<path style="fill:#303431; stroke:none;" d="M168 172L168 181L177 181L177 172L168 172M186 172L186 181L197 181L197 172L186 172M206 172L206 181L216 181L216 172L206 172z"/>
<path style="fill:#1d2025; stroke:none;" d="M216 172L216 181L216.722 180.222L216.75 179.694L216.944 178.889L216.972 177.972L217 176L216.944 174.111L216.75 173.306L216.722 172.778L216 172z"/>
<path style="fill:#1a1d23; stroke:none;" d="M225 172L225 181L225.722 180.222L225.75 179.694L225.944 178.889L225.972 177.972L226 176L225.944 174.111L225.75 173.306L225.722 172.778L225 172z"/>
<path style="fill:#303431; stroke:none;" d="M226 172L226 181L235 181L235 172L226 172z"/>
<path style="fill:#898d8c; stroke:none;" d="M235 172L235 181L245 181L244.222 180.278L243.694 180.25L242.889 180.056L241.972 180.028L240 180L239.056 180L236 180L236 177.944L236 176.944L235.972 175.028L235.944 174.111L235.75 173.306L235.722 172.778L235 172z"/>
<path style="fill:#979b9a; stroke:none;" d="M236 172L236 180L245 180L245 172L236 172z"/>
<path style="fill:#00000d; stroke:none;" d="M246 172L246 181L246.722 180.222L246.75 179.694L246.944 178.889L246.972 177.972L247 176.056L247 175.056L247 173L255 173L254.222 172.278L253.694 172.25L252.889 172.056L251.972 172.028L250 172L249.056 172L246 172z"/>
<path style="fill:#1f2228; stroke:none;" d="M128 180L128.778 180.722L129.306 180.75L130.111 180.944L131.028 180.972L133 181L134.944 181L138 181L137.222 180.278L136.694 180.25L135.889 180.056L134.972 180.028L133 180L131.056 180L128 180z"/>
<path style="fill:#383e3c; stroke:none;" d="M128 181L128 190L128.722 189.222L128.75 188.694L128.944 187.889L128.972 186.972L129 185L128.944 183.111L128.75 182.306L128.722 181.778L128 181z"/>
<path style="fill:#444a46; stroke:none;" d="M129 181L129 190L138 190L138 181L129 181z"/>
<path style="fill:#272a28; stroke:none;" d="M138 181L138 190L118 190L118.778 190.722L119.306 190.75L120.111 190.944L121.028 190.972L123 191L124.944 191L128 191L128 200L108 200L108 210L108.722 209.222L108.75 208.694L108.944 207.889L108.972 206.972L109 205L109 204.056L109 201L118 201L118 210L128 210L128 201L137 201L137 210L129 210L129 259L138 259L138 210L148 210L148 258L157 258L157 190L148 190L148 181L138 181z"/>
<path style="fill:#00000e; stroke:none;" d="M157 181L157 183L167 183L167 181L157 181z"/>
<path style="fill:#232625; stroke:none;" d="M255 181L255 190L245 190L245 210L247.056 209.417L248.056 209.222L249 209.083L251 209L251.944 209L252.944 209L255 209L255 269L265 269L265 190L274 190L274 181L255 181z"/>
<path style="fill:#1f2226; stroke:none;" d="M157 190L157 259L245 259L244.222 258.278L243.694 258.25L242.889 258.056L241.972 258.028L240 258L239 258L237 258L220 258L158 258L158 210L158 197L158 195L158 194L157.972 193.028L157.944 192.111L157.75 191.306L157.722 190.778L157 190z"/>
<path style="fill:#010119; stroke:none;" d="M158 190L158 258L245 258L245 210L244.278 210.778L244.25 211.306L244.056 212.111L244.028 213.028L244 214L244 216L244 217L244 219L244 224L244 257L159 257L159 209L159 197L159 195L159 194L158.972 193.028L158.944 192.111L158.75 191.306L158.722 190.778L158 190z"/>
<path style="fill:#282b29; stroke:none;" d="M166 190L166 201L235 201L234.222 200.278L233.694 200.25L232.889 200.056L231.972 200.028L230 200L229.056 200L226 200L226 191L235 191L234.222 190.278L233.694 190.25L232.889 190.056L231.972 190.028L230 190L228 190L223 190L197 190L197 200L186 200L186 190L177 190L177 200L167 200L167 196.944L167 195L166.972 193.028L166.944 192.111L166.75 191.306L166.722 190.778L166 190z"/>
<path style="fill:#303431; stroke:none;" d="M167 190L167 200L177 200L177 190L167 190M186 190L186 200L197 200L197 190L186 190z"/>
<path style="fill:#353936; stroke:none;" d="M265 190L265 200L274 200L274 220L274.722 219.222L274.75 218.694L274.944 217.889L274.972 216.972L275 215L275 213L275 210L275 190L265 190z"/>
<path style="fill:#232624; stroke:none;" d="M275 190L275 200L284 200L284 190L275 190z"/>
<path style="fill:#363b38; stroke:none;" d="M118 191L118 200L128 200L128 191L118 191z"/>
<path style="fill:#303431; stroke:none;" d="M206 191L206 200L216 200L216 191L206 191M226 191L226 200L235 200L235 191L226 191z"/>
<path style="fill:#454b47; stroke:none;" d="M265 200L265 210L274 210L274 200L265 200z"/>
<path style="fill:#191b20; stroke:none;" d="M275 200L275.778 200.722L276.306 200.75L277.111 200.944L278.028 200.972L279.944 201L280.944 201L283 201L283 209L275 209L275.778 209.722L276.306 209.75L277.111 209.944L278.028 209.972L280 210L280.944 210L284 210L284 201L294 201L293.222 200.278L292.694 200.25L291.889 200.056L290.972 200.028L290 200L289 200L287 200L275 200z"/>
<path style="fill:#363b38; stroke:none;" d="M109 201L109 210L118 210L118 201L109 201z"/>
<path style="fill:#0a0b1c; stroke:none;" d="M128 201L128 210L137 210L137 201L128 201M275 201L275 209L283 209L283 201L275 201z"/>
<path style="fill:#232624; stroke:none;" d="M284 201L284 210L294 210L294 220L303 220L303 210L294 210L294 201L284 201z"/>
<path style="fill:#000017; stroke:none;" d="M177 208L177.778 208.722L178.306 208.75L179.111 208.944L180.028 208.972L181 209L182 209L184 209L194 209L235 209L234.222 208.278L233.694 208.25L232.889 208.056L231.972 208.028L231 208L230 208L228 208L218 208L177 208z"/>
<path style="fill:#1c1f26; stroke:none;" d="M177 209L177.778 209.722L178.306 209.75L179.111 209.944L180.028 209.972L182 210L184 210L189 210L216 210L215.222 209.278L214.694 209.25L213.889 209.056L212.972 209.028L211 209L209 209L204 209L177 209z"/>
<path style="fill:#19491b; stroke:none;" d="M216 209L216.778 209.722L217.306 209.75L218.111 209.944L219.028 209.972L221 210L222.944 210L226 210L225.222 209.278L224.694 209.25L223.889 209.056L222.972 209.028L221 209L219.056 209L216 209z"/>
<path style="fill:#24282d; stroke:none;" d="M226 209L226.778 209.722L227.306 209.75L228.111 209.944L229.028 209.972L231 210L231.944 210L235 210L234.222 209.278L233.694 209.25L232.889 209.056L231.972 209.028L230 209L229.056 209L226 209z"/>
<path style="fill:#323734; stroke:none;" d="M246 209L246.778 209.722L247.306 209.75L248.111 209.944L249.028 209.972L251 210L251.944 210L255 210L254.222 209.278L253.694 209.25L252.889 209.056L251.972 209.028L250 209L249.056 209L246 209z"/>
<path style="fill:#16181f; stroke:none;" d="M108 210L108 259L118 259L117.222 258.278L116.694 258.25L115.889 258.056L114.972 258.028L113 258L112.056 258L109 258L109 224L109 219L109 217L109 216L109 214L108.972 213.028L108.944 212.111L108.75 211.306L108.722 210.778L108 210z"/>
<path style="fill:#232624; stroke:none;" d="M109 210L109 258L118 258L118 210L109 210z"/>
<path style="fill:#444a46; stroke:none;" d="M118 210L118 220L128 220L128 210L118 210z"/>
<path style="fill:#333632; stroke:none;" d="M128 210L128 258L118 258L118.778 258.722L119.306 258.75L120.111 258.944L121.028 258.972L123 259L125 259L129 259L129 225L129 219L129 217L129 216L129 214L128.972 213.028L128.944 212.111L128.75 211.306L128.722 210.778L128 210z"/>
<path style="fill:#1a1d23; stroke:none;" d="M166 210L166 249L166.722 248.222L166.75 247.694L166.944 246.889L166.972 245.972L167 244L167 243L167 240L167 220L167 217L167 215L166.972 213.028L166.944 212.111L166.75 211.306L166.722 210.778L166 210z"/>
<path style="fill:#303431; stroke:none;" d="M167 210L167 249L235 249L235 239L177 239L177 221L186 221L186 229L186.722 228.222L186.75 227.694L186.944 226.889L186.972 225.972L187 224L187 223.056L187 220L177 220L177 210L167 210z"/>
<path style="fill:#565e59; stroke:none;" d="M177 210L177 220L186 220L186 210L177 210z"/>
<path style="fill:#444a46; stroke:none;" d="M186 210L186 213.056L186 215L186.028 217L186.083 218L186.389 220L186.611 221L186.917 223L186.972 224L187 225.944L187 226.944L187 229L177 229L177.778 229.722L178.306 229.75L179.111 229.944L180.028 229.972L182 230L182.944 230L186 230L186 239L197 239L197 230L216 230L215.417 227.944L215.083 226L215.028 224L215.083 223L215.389 221L215.611 220L215.917 218L215.972 217L216 215L216 213.056L216 210L186 210z"/>
<path style="fill:#3e8f2d; stroke:none;" d="M216 210L216 220L216.722 219.222L216.75 218.694L216.944 217.889L216.972 216.972L217 215L216.972 213.028L216.944 212.111L216.75 211.306L216.722 210.778L216 210z"/>
<path style="fill:#3ba815; stroke:none;" d="M217 210L217 220L224 220L224 210L217 210z"/>
<path style="fill:#38ac01; stroke:none;" d="M224 210L224 220L224.722 219.222L224.75 218.694L224.944 217.889L224.972 216.972L225 215L224.972 213.028L224.944 212.111L224.75 211.306L224.722 210.778L224 210z"/>
<path style="fill:#449734; stroke:none;" d="M225 210L225 220L225.722 219.222L225.75 218.694L225.944 217.889L225.972 216.972L226 215L225.972 213.028L225.944 212.111L225.75 211.306L225.722 210.778L225 210z"/>
<path style="fill:#565e59; stroke:none;" d="M226 210L226 213.056L226 215L226.028 217L226.083 218L226.389 220L226.611 221L226.917 223L226.972 225L226.917 226L226.611 228L226.389 229L226.083 231L226.028 232L226 234L226 235.944L226 239L235 239L235 210L226 210z"/>
<path style="fill:#20232a; stroke:none;" d="M235 210L235 239L235.722 238.222L235.75 237.694L235.944 236.889L235.972 235.972L236 234L236 233L236 231L236 218L236 216L236 215L235.972 213.028L235.944 212.111L235.75 211.306L235.722 210.778L235 210z"/>
<path style="fill:#444a48; stroke:none;" d="M245 210L245 239L245.722 238.222L245.75 237.694L245.944 236.889L245.972 235.972L246 234L246 233L246 231L246 218L246 216L246 215L245.972 213.028L245.944 212.111L245.75 211.306L245.722 210.778L245 210z"/>
<path style="fill:#565e59; stroke:none;" d="M246 210L246 239L254 239L254 210L246 210z"/>
<path style="fill:#4d544f; stroke:none;" d="M254 210L254 239L254.722 238.222L254.75 237.694L254.944 236.889L254.972 235.972L255 234L255 233L255 231L255 218L255 216L255 215L254.972 213.028L254.944 212.111L254.75 211.306L254.722 210.778L254 210z"/>
<path style="fill:#454b47; stroke:none;" d="M275 210L275 220L284 220L284 229L294 229L294 220L284 220L284 210L275 210z"/>
<path style="fill:#2f3330; stroke:none;" d="M284 210L284 220L294 220L294 210L284 210z"/>
<path style="fill:#565e59; stroke:none;" d="M118 220L118 230L128 230L128 220L118 220z"/>
<path style="fill:#1e2228; stroke:none;" d="M197 220L197.778 220.722L198.306 220.75L199.111 220.944L200.028 220.972L202 221L202.944 221L206 221L205.222 220.278L204.694 220.25L203.889 220.056L202.972 220.028L201 220L200.056 220L197 220z"/>
<path style="fill:#0a4c47; stroke:none;" d="M215 220L215 229L215.722 228.222L215.75 227.694L215.944 226.889L215.972 225.972L216 224L215.944 222.111L215.75 221.306L215.722 220.778L215 220z"/>
<path style="fill:#c33836; stroke:none;" d="M216 220L216 229L216.722 228.222L216.75 227.694L216.944 226.889L216.972 225.972L217 224L216.944 222.111L216.75 221.306L216.722 220.778L216 220z"/>
<path style="fill:#d55728; stroke:none;" d="M217 220L217.778 220.722L218.306 220.75L219.111 220.944L220.028 220.972L222 221L222.944 221L226 221L225.222 220.278L224.694 220.25L223.889 220.056L222.972 220.028L221 220L220.056 220L217 220z"/>
<path style="fill:#41605b; stroke:none;" d="M226 220L226 229L226.722 228.222L226.75 227.694L226.944 226.889L226.972 225.972L227 224L226.944 222.111L226.75 221.306L226.722 220.778L226 220z"/>
<path style="fill:#232624; stroke:none;" d="M274 220L274 259L294 259L294 230L283 230L283 221L280.944 221L279.944 221L278 220.917L277.056 220.778L276.056 220.583L274 220z"/>
<path style="fill:#2e3230; stroke:none;" d="M275 220L275.778 220.722L276.306 220.75L277.111 220.944L278.028 220.972L279.944 221L280.944 221L283 221L283 230L283.722 229.222L283.75 228.694L283.944 227.889L283.972 226.972L284 225L284 223.056L284 220L275 220z"/>
<path style="fill:#2f3330; stroke:none;" d="M294 220L294 229L303 229L303 239L303.722 238.222L303.75 237.694L303.944 236.889L303.972 235.972L304 235L304 234L304 232L304 220L294 220z"/>
<path style="fill:#00000d; stroke:none;" d="M177 221L177.778 221.722L178.306 221.75L179.111 221.944L180.028 221.972L181.944 222L182.944 222L185 222L185 228L177 228L177.778 228.722L178.306 228.75L179.111 228.944L180.028 228.972L182 229L182.944 229L186 229L186 221L177 221z"/>
<path style="fill:#090a1c; stroke:none;" d="M197 221L197 229L206 229L206 221L197 221z"/>
<path style="fill:#ef042c; stroke:none;" d="M217 221L217.778 221.722L218.306 221.75L219.111 221.944L220.028 221.972L221.944 222L222.944 222L225 222L224.222 221.278L223.694 221.25L222.889 221.056L221.972 221.028L220.056 221L219.056 221L217 221z"/>
<path style="fill:#cc3f3c; stroke:none;" d="M225 221L225 229L225.722 228.222L225.75 227.694L225.944 226.889L226 225L225.972 224.028L225.944 223.111L225.75 222.306L225.722 221.778L225 221z"/>
<path style="fill:#090a1c; stroke:none;" d="M177 222L177 228L185 228L185 222L177 222z"/>
<path style="fill:#e72c2c; stroke:none;" d="M217 222L217 228L225 228L225 222L217 222z"/>
<path style="fill:#f1002c; stroke:none;" d="M217 228L217.778 228.722L218.306 228.75L219.111 228.944L220.028 228.972L221.944 229L222.944 229L225 229L224.222 228.278L223.694 228.25L222.889 228.056L221.972 228.028L220.056 228L219.056 228L217 228z"/>
<path style="fill:#b47a23; stroke:none;" d="M216 229L216.778 229.722L217.306 229.75L218.111 229.944L219.028 229.972L221 230L222.944 230L226 230L225.222 229.278L224.694 229.25L223.889 229.056L222.972 229.028L221 229L219.056 229L216 229z"/>
<path style="fill:#3a3f3c; stroke:none;" d="M284 229L284.778 229.722L285.306 229.75L286.111 229.944L287.028 229.972L288 230L289 230L291 230L303 230L302.222 229.278L301.694 229.25L300.889 229.056L299.972 229.028L299 229L298 229L296 229L284 229z"/>
<path style="fill:#444a46; stroke:none;" d="M118 230L118 258L128 258L128 230L118 230z"/>
<path style="fill:#565e59; stroke:none;" d="M177 230L177 239L186 239L186 230L177 230M197 230L197 239L216 239L216 230L197 230z"/>
<path style="fill:#469339; stroke:none;" d="M216 230L216 239L216.722 238.222L216.75 237.694L216.944 236.889L216.972 235.972L217 234L216.944 232.111L216.75 231.306L216.722 230.778L216 230z"/>
<path style="fill:#00ae12; stroke:none;" d="M217 230L217.778 230.722L218.306 230.75L219.111 230.944L220.028 230.972L221.944 231L222.944 231L225 231L224.222 230.278L223.694 230.25L222.889 230.056L221.972 230.028L220.056 230L219.056 230L217 230z"/>
<path style="fill:#449734; stroke:none;" d="M225 230L225 239L225.722 238.222L225.75 237.694L225.944 236.889L225.972 235.972L226 234L225.944 232.111L225.75 231.306L225.722 230.778L225 230z"/>
<path style="fill:#454b47; stroke:none;" d="M294 230L294 239L303 239L303 230L294 230z"/>
<path style="fill:#3ba716; stroke:none;" d="M217 231L217 239L225 239L225 231L217 231z"/>
<path style="fill:#353a3a; stroke:none;" d="M245 239L245 259L245.722 258.222L245.75 257.694L245.944 256.889L245.972 255.972L246 255L246 253L246 252L246 249L246 246L246 245L246 243L245.972 242.028L245.944 241.111L245.75 240.306L245.722 239.778L245 239z"/>
<path style="fill:#444a46; stroke:none;" d="M246 239L246 249L246 253L245.972 255L245.917 256L245.611 258L245.389 259L245.083 261L245.028 262L245 264L245 265.944L245 269L255 269L255 239L246 239z"/>
<path style="fill:#565e59; stroke:none;" d="M294 239L294 258L303 258L303 239L294 239z"/>
<path style="fill:#3b4140; stroke:none;" d="M303 239L303 258L294 258L294.778 258.722L295.306 258.75L296.111 258.944L297.028 258.972L299 259L300.944 259L304 259L304 246L304 244L304 243L303.972 242.028L303.944 241.111L303.75 240.306L303.722 239.778L303 239z"/>
<path style="fill:#00000d; stroke:none;" d="M304 239L304 259L304.722 258.222L304.75 257.694L304.944 256.889L304.972 255.972L305 255L305 253L305 252L305 249L305 246L305 245L305 243L304.972 242.028L304.944 241.111L304.75 240.306L304.722 239.778L304 239z"/>
<path style="fill:#181a22; stroke:none;" d="M167 249L167.778 249.722L168.306 249.75L169.111 249.944L170.028 249.972L171 250L172 250L174 250L187 250L235 250L234.222 249.278L233.694 249.25L232.889 249.056L231.972 249.028L231 249L230 249L228 249L215 249L167 249z"/>
<path style="fill:#303431; stroke:none;" d="M148 258L148 269L197 269L197 267L216 267L216 269L245 269L245 259L190 259L171 259L165 259L163 259L162 259L160 258.917L159 258.778L157 258.389L155 258.083L154 258.028L152 258L151.056 258L148 258z"/>
<path style="fill:#19201b; stroke:none;" d="M197 267L197.778 267.722L198.306 267.75L199.111 267.944L200.028 267.972L201 268L202 268L204 268L216 268L215.222 267.278L214.694 267.25L213.889 267.056L212.972 267.028L212 267L211 267L209 267L197 267z"/>
<path style="fill:#282824; stroke:none;" d="M109 268L109.778 268.722L110.306 268.75L111.111 268.944L112.028 268.972L113 269L114 269L116 269L129 269L129 289L138 289L138 268L109 268z"/>
<path style="fill:#525453; stroke:none;" d="M197 268L197.778 268.722L198.306 268.75L199.111 268.944L200.028 268.972L201 269L202 269L204 269L216 269L215.222 268.278L214.694 268.25L213.889 268.056L212.972 268.028L212 268L211 268L209 268L197 268z"/>
<path style="fill:#282824; stroke:none;" d="M274 268L274 289L304 289L304 268L274 268z"/>
<path style="fill:#212428; stroke:none;" d="M108 269L108 288L108.722 287.222L108.75 286.694L108.944 285.889L108.972 284.972L109 284L109 282L109 281L109 278L109 276L109 275L109 273L108.972 272.028L108.944 271.111L108.75 270.306L108.722 269.778L108 269z"/>
<path style="fill:#363b38; stroke:none;" d="M109 269L109 289L129 289L129 269L109 269z"/>
<path style="fill:#181924; stroke:none;" d="M194 269L194 278L194.722 277.222L194.75 276.694L194.944 275.889L194.972 274.972L195 273L194.944 271.111L194.75 270.306L194.722 269.778L194 269z"/>
<path style="fill:#000000; stroke:none;" d="M195 269L195 278L195.722 277.222L195.75 276.694L195.944 275.889L195.972 274.972L196 273L195.944 271.111L195.75 270.306L195.722 269.778L195 269z"/>
<path style="fill:#666668; stroke:none;" d="M196 269L196 278L196.722 277.222L196.75 276.694L196.944 275.889L196.972 274.972L197 273L196.944 271.111L196.75 270.306L196.722 269.778L196 269z"/>
<path style="fill:#ababab; stroke:none;" d="M197 269L197 278L216 278L216 269L197 269z"/>
<path style="fill:#6b6b6d; stroke:none;" d="M216 269L216 278L216.722 277.222L216.75 276.694L216.944 275.889L216.972 274.972L217 273L216.944 271.111L216.75 270.306L216.722 269.778L216 269z"/>
<path style="fill:#000000; stroke:none;" d="M217 269L217 278L217.722 277.222L217.75 276.694L217.944 275.889L217.972 274.972L218 273L217.944 271.111L217.75 270.306L217.722 269.778L217 269z"/>
<path style="fill:#181924; stroke:none;" d="M218 269L218 278L218.722 277.222L218.75 276.694L218.944 275.889L218.972 274.972L219 273L218.944 271.111L218.75 270.306L218.722 269.778L218 269z"/>
<path style="fill:#363b38; stroke:none;" d="M284 269L284 288L303 288L303 269L284 269z"/>
<path style="fill:#aa0000; stroke:none;" d="M86 278L86 285L86.7222 284.222L86.75 283.694L86.9444 282.889L86.9722 281.972L86.9444 280.111L86.75 279.306L86.7222 278.778L86 278z"/>
<path style="fill:#b92224; stroke:none;" d="M88 278L88.7778 278.722L89.3056 278.75L90.1111 278.944L91.0278 278.972L93 279L95 279L99 279L98.2222 278.278L97.6944 278.25L96.8889 278.056L95.9722 278.028L94 278L92 278L88 278z"/>
<path style="fill:#7a1620; stroke:none;" d="M99 278L99 288L99.7222 287.222L99.75 286.694L99.9444 285.889L99.9722 284.972L100 283L99.9722 281.028L99.9444 280.111L99.75 279.306L99.7222 278.778L99 278z"/>
<path style="fill:#232625; stroke:none;" d="M148 278L148 337L157 337L157 278L148 278z"/>
<path style="fill:#3b403d; stroke:none;" d="M157 278L157 337L167 337L167 278L157 278z"/>
<path style="fill:#252826; stroke:none;" d="M167 278L167 298L177 298L177 337L157 337L157.778 337.722L158.306 337.75L159.111 337.944L160.028 337.972L162 338L164 338L169 338L197 338L197 298L216 298L216 338L255 338L254.222 337.278L253.694 337.25L252.889 337.056L251.972 337.028L250 337L249 337L246 337L226 337L226 298L246 298L246 289L177 289L177 278L167 278z"/>
<path style="fill:#3b413f; stroke:none;" d="M177 278L177.778 278.722L178.306 278.75L179.111 278.944L180.028 278.972L181 279L182 279L184 279L196 279L195.222 278.278L194.694 278.25L193.889 278.056L192.972 278.028L192 278L191 278L189 278L177 278z"/>
<path style="fill:#454b47; stroke:none;" d="M196 278L194.5 278.722L193.944 278.75L192.944 278.944L192 278.972L191 279L190 279L187 279L177 279L177 288L206 288L216 288L219 288L221 288L223 288.083L225 288.389L226 288.611L228 288.917L229 288.972L231 289L235 289L246 289L246 278L216 278L216 280L206 280L204 280L203 280L201 279.972L200.028 279.889L199.083 279.694L197.472 278.972L197.083 278.667L196 278z"/>
<path style="fill:#6d6f6e; stroke:none;" d="M197 278L197.778 278.722L198.306 278.75L199.111 278.944L200.028 278.972L201 279L202 279L204 279L216 279L215.222 278.278L214.694 278.25L213.889 278.056L212.972 278.028L212 278L211 278L209 278L197 278z"/>
<path style="fill:#2a2e2c; stroke:none;" d="M246 278L246 289L255 289L255 278L246 278z"/>
<path style="fill:#d52727; stroke:none;" d="M88 279L88 287L99 287L99 279L88 279z"/>
<path style="fill:#333c36; stroke:none;" d="M197 279L197.778 279.722L198.306 279.75L199.111 279.944L200.028 279.972L201 280L202 280L204 280L216 280L215.222 279.278L214.694 279.25L213.889 279.056L212.972 279.028L212 279L211 279L209 279L197 279z"/>
<path style="fill:#565e59; stroke:none;" d="M226 279L226 288L245 288L245 279L226 279z"/>
<path style="fill:#ff0000; stroke:none;" d="M86 285L87 286L86 285z"/>
<path style="fill:#800000; stroke:none;" d="M79 286L80 287L79 286z"/>
<path style="fill:#bf4040; stroke:none;" d="M80 286L80.7778 286.722L81.3056 286.75L82.1111 286.944L83.0278 286.972L83.9444 287L84.9444 287L87 287L86.2222 286.278L85.6944 286.25L84.8889 286.056L83.9722 286.028L83.0556 286L82.0556 286L80 286z"/>
<path style="fill:#ff0000; stroke:none;" d="M78 287L79 288L78 287z"/>
<path style="fill:#800000; stroke:none;" d="M88 287L89 288L88 287z"/>
<path style="fill:#d10303; stroke:none;" d="M89 287L89.7778 287.722L90.3056 287.75L91.1111 287.944L92.0278 287.972L94 288L95.9444 288L99 288L98.2222 287.278L97.6944 287.25L96.8889 287.056L95.9722 287.028L94 287L92.0556 287L89 287z"/>
<path style="fill:#ff0000; stroke:none;" d="M77 288L78 289L77 288z"/>
<path style="fill:#d52a2a; stroke:none;" d="M79 288L79 297L88 297L88 288L79 288z"/>
<path style="fill:#da3d3d; stroke:none;" d="M88 288L88 297L79 297L79.7778 297.722L80.3056 297.75L81.1111 297.944L82.0278 297.972L84 298L85.9444 298L89 298L89 294.944L89 293L88.9722 291.028L88.9444 290.111L88.75 289.306L88.7222 288.778L88 288z"/>
<path style="fill:#e86161; stroke:none;" d="M89 288L89.7778 288.722L90.3056 288.75L91.1111 288.944L92.0278 288.972L94 289L95.9444 289L99 289L98.2222 288.278L97.6944 288.25L96.8889 288.056L95.9722 288.028L94 288L92.0556 288L89 288z"/>
<path style="fill:#e25252; stroke:none;" d="M99 288L99 298L99.7222 297.222L99.75 296.694L99.9444 295.889L99.9722 294.972L100 293L99.9722 291.028L99.9444 290.111L99.75 289.306L99.7222 288.778L99 288z"/>
<path style="fill:#931a21; stroke:none;" d="M100 288L100.778 288.722L101.306 288.75L102.111 288.944L103.028 288.972L105 289L105.944 289L109 289L108.222 288.278L107.694 288.25L106.889 288.056L105.972 288.028L104 288L103.056 288L100 288z"/>
<path style="fill:#393e3b; stroke:none;" d="M177 288L177.778 288.722L178.306 288.75L179.111 288.944L180.028 288.972L181 289L183 289L184 289L186 289L192 289L226 289L225.222 288.278L224.694 288.25L223.889 288.056L222.972 288.028L222 288L220 288L219 288L217 288L211 288L177 288z"/>
<path style="fill:#bf4040; stroke:none;" d="M77 289L77 296L77.7222 295.222L77.75 294.694L77.9444 293.889L77.9722 292.972L77.9444 291.111L77.75 290.306L77.7222 289.778L77 289z"/>
<path style="fill:#ff8888; stroke:none;" d="M89 289L89 298L80 298L80 307L89 307L89 298L99 298L99 289L89 289z"/>
<path style="fill:#d10a0a; stroke:none;" d="M100 289L100 298L100.722 297.222L100.75 296.694L100.944 295.889L100.972 294.972L101 293L100.944 291.111L100.75 290.306L100.722 289.778L100 289z"/>
<path style="fill:#d52727; stroke:none;" d="M101 289L101 298L108 298L108 289L101 289z"/>
<path style="fill:#af2023; stroke:none;" d="M108 289L108 298L108.722 297.222L108.75 296.694L108.944 295.889L108.972 294.972L109 293L108.944 291.111L108.75 290.306L108.722 289.778L108 289z"/>
<path style="fill:#090a1c; stroke:none;" d="M109 289L109 298L118 298L118 289L109 289z"/>
<path style="fill:#232624; stroke:none;" d="M118 289L118 298L128 298L128 289L118 289z"/>
<path style="fill:#ff0000; stroke:none;" d="M69.6667 295.333L69.6667 295.667L70.3333 295.667L70.3333 295.333L69.6667 295.333z"/>
<path style="fill:#aa0000; stroke:none;" d="M71 295L71.7778 295.722L72.3056 295.75L73.1111 295.944L73.9722 295.972L74.9444 296L77 296L76.2222 295.278L75.6944 295.25L74.8889 295.056L74.0278 295.028L73.0556 295L71 295z"/>
<path style="fill:#ff0000; stroke:none;" d="M68 296L69 297L68 296z"/>
<path style="fill:#d52727; stroke:none;" d="M69 297L69 306L78 306L78 297L69 297z"/>
<path style="fill:#d30000; stroke:none;" d="M78 297L78 306L69 306L68 307L68 316L59 316L59.7778 316.722L60.3056 316.75L61.1111 316.944L62.0278 316.972L64 317L65.9444 317L69 317L69 307L79 307L79 303.944L79 302L78.9722 300.028L78.9444 299.111L78.75 298.306L78.7222 297.778L78 297z"/>
<path style="fill:#1f2229; stroke:none;" d="M294 297L294.778 297.722L295.306 297.75L296.111 297.944L297.028 297.972L299 298L300.944 298L304 298L303.222 297.278L302.694 297.25L301.889 297.056L300.972 297.028L299 297L297.056 297L294 297z"/>
<path style="fill:#e75d5d; stroke:none;" d="M79 298L79 307L79.7222 306.222L79.75 305.694L79.9444 304.889L79.9722 303.972L80 302L79.9444 300.111L79.75 299.306L79.7222 298.778L79 298z"/>
<path style="fill:#e92b2b; stroke:none;" d="M89 298L89 307L99 307L99 298L89 298z"/>
<path style="fill:#8c3836; stroke:none;" d="M99 298L99 307L99.7222 306.222L99.75 305.694L99.9444 304.889L99.9722 303.972L100 302L99.9444 300.111L99.75 299.306L99.7222 298.778L99 298z"/>
<path style="fill:#003e3b; stroke:none;" d="M100 298L100 307L100.722 306.222L100.75 305.694L100.944 304.889L100.972 303.972L101 302L100.944 300.111L100.75 299.306L100.722 298.778L100 298z"/>
<path style="fill:#383d3a; stroke:none;" d="M101 298L101 300.056L101 301.056L100.972 303L100.722 304.889L100.333 305.694L100.139 306.222L99 307L99.25 308.5L99.6111 310.056L99.9167 312L99.9722 313L100 315L100 316L100 319L100 331L100 366L108 366L108 307L118 307L118 298L101 298z"/>
<path style="fill:#1a1c25; stroke:none;" d="M118 298L118 367L118.722 366.222L118.75 365.694L118.944 364.889L118.972 363.972L119 363L119 362L119 360L119 351L119 314L119 305L119 303L119 302L118.972 301.028L118.944 300.111L118.75 299.306L118.722 298.778L118 298z"/>
<path style="fill:#454b47; stroke:none;" d="M167 298L167 337L177 337L177 298L167 298z"/>
<path style="fill:#363b38; stroke:none;" d="M226 298L226 337L235 337L235 298L226 298z"/>
<path style="fill:#454b47; stroke:none;" d="M235 298L235 337L245 337L245 298L235 298z"/>
<path style="fill:#363b38; stroke:none;" d="M245 298L245 337L245.722 336.222L245.75 335.694L245.944 334.889L245.972 333.972L246 332L246 331L246 328L246 308L246 305L246 303L245.972 301.028L245.944 300.111L245.75 299.306L245.722 298.778L245 298z"/>
<path style="fill:#2a2e2c; stroke:none;" d="M246 298L246 337L255 337L255 298L246 298z"/>
<path style="fill:#010019; stroke:none;" d="M282 298L282 367L282.722 366.222L282.75 365.694L282.944 364.889L282.972 363.972L283 363L283 362L283 360L283 351L283 314L283 305L283 303L283 302L282.972 301.028L282.944 300.111L282.75 299.306L282.722 298.778L282 298z"/>
<path style="fill:#1b1e25; stroke:none;" d="M283 298L283 367L294 367L293.222 366.278L292.694 366.25L291.889 366.056L290.972 366.028L289 366L287.056 366L284 366L284 318L284 305L284 303L284 302L283.972 301.028L283.944 300.111L283.75 299.306L283.722 298.778L283 298z"/>
<path style="fill:#383d3a; stroke:none;" d="M284 298L284 366L294 366L294 298L284 298z"/>
<path style="fill:#58605b; stroke:none;" d="M294 298L294 366L303 366L303 298L294 298z"/>
<path style="fill:#3d4242; stroke:none;" d="M303 298L303 366L294 366L294.778 366.722L295.306 366.75L296.111 366.944L297.028 366.972L299 367L300.944 367L304 367L304 318L304 305L304 303L304 302L303.972 301.028L303.944 300.111L303.75 299.306L303.722 298.778L303 298z"/>
<path style="fill:#00000c; stroke:none;" d="M304 298L304 367L304.722 366.222L304.75 365.694L304.944 364.889L304.972 363.972L305 363L305 362L305 360L305 351L305 314L305 305L305 303L305 302L304.972 301.028L304.944 300.111L304.75 299.306L304.722 298.778L304 298z"/>
<path style="fill:#ff0000; stroke:none;" d="M67 299L68 300L67 299M66 304L66 306L68 306L68 304L66 304M58 306L57 308L58.0833 307L58.4167 306.667L58 306z"/>
<path style="fill:#d52727; stroke:none;" d="M59 307L59 316L68 316L68 307L59 307z"/>
<path style="fill:#e99999; stroke:none;" d="M69 307L69 318L80 318L80 307L69 307z"/>
<path style="fill:#f05656; stroke:none;" d="M80 307L80.7778 307.722L81.3056 307.75L82.1111 307.944L83.0278 307.972L85 308L85.9444 308L89 308L88.2222 307.278L87.6944 307.25L86.8889 307.056L85.9722 307.028L84 307L83.0556 307L80 307z"/>
<path style="fill:#891921; stroke:none;" d="M89 307L89.7778 307.722L90.3056 307.75L91.1111 307.944L92.0278 307.972L94 308L95.9444 308L99 308L98.2222 307.278L97.6944 307.25L96.8889 307.056L95.9722 307.028L94 307L92.0556 307L89 307z"/>
<path style="fill:#454c48; stroke:none;" d="M108 307L108 366L108.722 365.222L108.75 364.694L108.944 363.889L108.972 362.972L109 362L109 360L109 359L109 357L109 352L109 321L109 316L109 314L109 313L109 311L108.972 310.028L108.944 309.111L108.75 308.306L108.722 307.778L108 307z"/>
<path style="fill:#58605b; stroke:none;" d="M109 307L109 366L118 366L118 307L109 307z"/>
<path style="fill:#000016; stroke:none;" d="M119 307L119 367L119.722 366.222L119.75 365.694L119.944 364.889L119.972 363.972L120 363L120 361L120 360L120 358L120 353L120 321L120 316L120 314L120 313L120 311L119.972 310.028L119.944 309.111L119.75 308.306L119.722 307.778L119 307z"/>
<path style="fill:#aa0000; stroke:none;" d="M57 308L57 315L57.7222 314.222L57.75 313.694L57.9444 312.889L57.9722 311.028L57.9444 310.111L57.75 309.306L57.7222 308.778L57 308z"/>
<path style="fill:#e9bdbd; stroke:none;" d="M70 308L70 317L79 317L79 308L70 308z"/>
<path style="fill:#e90000; stroke:none;" d="M80 308L80 318L70 318L70 327L70.7222 326.222L70.75 325.694L70.9444 324.889L70.9722 323.972L71 322.056L71 321.056L71 319L80 319L81 318L81 314.944L81 313L80.9722 311.028L80.9444 310.111L80.75 309.306L80.7222 308.778L80 308z"/>
<path style="fill:#e71313; stroke:none;" d="M81 308L81.7778 308.722L82.3056 308.75L83.1111 308.944L84.0278 308.972L85.9444 309L86.9444 309L89 309L88.2222 308.278L87.6944 308.25L86.8889 308.056L85.9722 308.028L84.0556 308L83.0556 308L81 308z"/>
<path style="fill:#090a1c; stroke:none;" d="M89 308L89.5833 310.056L89.9167 312L89.9722 314L89.8889 315L89.3889 317L88.6111 319L88.1111 321L88.0278 322L88 324L88 325L88 327L88 376L119 376L119 368L99 368L99 310L92 310L92 318L91.2778 316.5L91.25 315.944L91.0556 314.944L91.0278 314L91 313L91 312.056L91 309L99 309L98.2222 308.278L97.6944 308.25L96.8889 308.056L95.9722 308.028L94 308L92.0556 308L89 308z"/>
<path style="fill:#e92b2b; stroke:none;" d="M81 309L81 318L89 318L89 309L81 309z"/>
<path style="fill:#3e0e1d; stroke:none;" d="M89 309L89 318L89.7222 317.222L89.75 316.694L89.9444 315.889L90 314L89.9722 312.028L89.9444 311.111L89.75 310.306L89.7222 309.778L89 309z"/>
<path style="fill:#190b1c; stroke:none;" d="M91 309L91 318L91.7222 317.222L91.75 316.694L91.9444 315.889L91.9722 314.972L92 313.056L92 312.056L92 310L99 310L98.2222 309.278L97.6944 309.25L96.8889 309.056L95.9722 309.028L94.0556 309L93.0556 309L91 309z"/>
<path style="fill:#2f3433; stroke:none;" d="M99 309L99 366L99.7222 365.222L99.75 364.694L99.9444 363.889L99.9722 362.972L100 362L100 360L100 359L100 357L100 352L100 322L100 317L100 315L100 313L99.9722 312.028L99.9444 311.111L99.75 310.306L99.7222 309.778L99 309z"/>
<path style="fill:#ff0000; stroke:none;" d="M49 315L50 316L49 315z"/>
<path style="fill:#bf4040; stroke:none;" d="M50 315L50.7778 315.722L51.3056 315.75L52.1111 315.944L53.0278 315.972L54.9444 316L55.9444 316L58 316L57.2222 315.278L56.6944 315.25L55.8889 315.056L54.9722 315.028L53.0556 315L52.0556 315L50 315z"/>
<path style="fill:#ff0000; stroke:none;" d="M48 316L49 317L48 316z"/>
<path style="fill:#800000; stroke:none;" d="M47 317L48 318L47 317z"/>
<path style="fill:#d52c2c; stroke:none;" d="M49 317L49 325L58 325L58 317L49 317z"/>
<path style="fill:#d40404; stroke:none;" d="M58 317L58 325L49 325L49.7778 325.722L50.3056 325.75L51.1111 325.944L52.0278 325.972L54 326L55.9444 326L59 326L59 322.944L59 322L58.9722 320.028L58.9444 319.111L58.75 318.306L58.7222 317.778L58 317z"/>
<path style="fill:#d74747; stroke:none;" d="M59 317L59 326L49 326L49.7778 326.722L50.3056 326.75L51.1111 326.944L52.0278 326.972L54 327L56 327L60 327L60 323.944L60 322L59.9722 320.028L59.9444 319.111L59.75 318.306L59.7222 317.778L59 317z"/>
<path style="fill:#dd7f7f; stroke:none;" d="M60 317L60.7778 317.722L61.3056 317.75L62.1111 317.944L63.0278 317.972L65 318L65.9444 318L69 318L68.2222 317.278L67.6944 317.25L66.8889 317.056L65.9722 317.028L64 317L63.0556 317L60 317z"/>
<path style="fill:#bf4040; stroke:none;" d="M47 318L47 324L47.7222 323.222L47.75 322.694L47.9444 321.889L47.9444 320.111L47.75 319.306L47.7222 318.778L47 318z"/>
<path style="fill:#e9bcbc; stroke:none;" d="M60 318L60 327L69 327L69 318L60 318z"/>
<path style="fill:#e97575; stroke:none;" d="M69 318L69 327L69.7222 326.222L69.75 325.694L69.9444 324.889L69.9722 323.972L70 322L69.9444 320.111L69.75 319.306L69.7222 318.778L69 318z"/>
<path style="fill:#000000; stroke:none;" d="M80 318L80 328L77.9444 328L76.9444 328L76 328L74 327.917L73.0556 327.778L72.0556 327.583L70 327L70 338L60 338L60.5833 340.056L60.7778 341.056L60.9167 342L61 343.944L61 344.944L61 347L50 347L50 357L41 357L41 367L31 367L31.5833 369.056L31.7778 370.056L31.9167 371L32 372.944L32 373.944L32 376L0 376L0 386L128 386L128 367L99 367L99.7778 367.722L100.306 367.75L101.111 367.944L102.028 367.972L103 368L104 368L106 368L119 368L119 376L88 376L88 339L88 329L88 326L88 325L88 324L88.0833 322L88.2222 321.056L88.4167 320.056L89 318L80 318z"/>
<path style="fill:#e92b2b; stroke:none;" d="M71 319L71 328L80 328L80 319L71 319z"/>
<path style="fill:#ff4040; stroke:none;" d="M81 319L82 320L81 319z"/>
<path style="fill:#ff0000; stroke:none;" d="M82 319L82.7778 319.722L83.25 319.75L84.0556 319.944L86 320L85.2222 319.278L84.75 319.25L83.9444 319.056L82 319z"/>
<path style="fill:#993333; stroke:none;" d="M86 319L87 320L86 319z"/>
<path style="fill:#ff0000; stroke:none;" d="M81 320L81 327L81.7222 326.222L81.75 325.694L81.9444 324.889L81.9722 323.028L81.9444 322.111L81.75 321.306L81.7222 320.778L81 320z"/>
<path style="fill:#550000; stroke:none;" d="M86 320L87 321L86 320z"/>
<path style="fill:#ff0000; stroke:none;" d="M40 324L41 325L40 324z"/>
<path style="fill:#aa0000; stroke:none;" d="M41 324L42 325L41 324z"/>
<path style="fill:#ff0000; stroke:none;" d="M42 324L43 325L42 324z"/>
<path style="fill:#aa0000; stroke:none;" d="M43 324L43.7222 324.722L44.25 324.75L46 325L45.2778 324.278L44.75 324.25L43 324z"/>
<path style="fill:#db2424; stroke:none;" d="M46.6667 324.333L47 324.667L47.3333 324.667L47 324.333L46.6667 324.333z"/>
<path style="fill:#d52727; stroke:none;" d="M40 326L40 336L48 336L48 326L40 326z"/>
<path style="fill:#d40000; stroke:none;" d="M48 326L48 336L40 336L40.7778 336.722L41.3056 336.75L42.1111 336.944L43.0278 336.972L45 337L45.9444 337L49 337L49 333L49 331L48.9722 329.028L48.9444 328.111L48.75 327.306L48.7222 326.778L48 326z"/>
<path style="fill:#ff0000; stroke:none;" d="M37 327L37 334L31 334L31.7778 334.722L32.3056 334.75L34.0278 335.056L35.9444 335.417L38 336L38 332.944L38 332L37.9722 330.028L37.9444 329.111L37.75 328.306L37.7222 327.778L37 327z"/>
<path style="fill:#dc7b7b; stroke:none;" d="M49 327L49 337L49.7222 336.222L49.75 335.694L49.9444 334.889L49.9722 333.972L50 332L49.9722 330.028L49.9444 329.111L49.75 328.306L49.7222 327.778L49 327z"/>
<path style="fill:#e9b4b4; stroke:none;" d="M50 327L50.7778 327.722L51.3056 327.75L52.1111 327.944L53.0278 327.972L55 328L55.9444 328L59 328L59 337L59.7222 336.222L59.75 335.694L59.9444 334.889L59.9722 333.972L60 332L60 330.056L60 327L50 327z"/>
<path style="fill:#e94040; stroke:none;" d="M60 327L60 338L60.7222 337.222L60.75 336.694L60.9444 335.889L60.9722 334.972L61 333L61 331.056L61 328L70 328L69.2222 327.278L68.6944 327.25L67.8889 327.056L66.9722 327.028L65 327L63.0556 327L60 327z"/>
<path style="fill:#e9bdbd; stroke:none;" d="M50 328L50 337L59 337L59 328L50 328z"/>
<path style="fill:#e91c1c; stroke:none;" d="M61 328L61 338L61.7222 337.222L61.75 336.694L61.9444 335.889L61.9722 334.972L62 333L62 332.056L62 329L70 329L69.2222 328.278L68.6944 328.25L67.8889 328.056L66.9722 328.028L65 328L64.0556 328L61 328z"/>
<path style="fill:#ff0000; stroke:none;" d="M80 328L78.5 328.722L77.9444 328.75L76.9444 328.944L76 328.972L75.0556 329L74.0556 329L72 329L72.7778 329.722L73.3056 329.75L74.1111 329.944L76 330L77 329.972L77.9444 329.944L78.9444 329.75L79.5 329.722L81 329L80 328z"/>
<path style="fill:#e92b2b; stroke:none;" d="M62 329L62 338L70 338L70 329L62 329z"/>
<path style="fill:#ff4040; stroke:none;" d="M71 329L71 337L71.7222 336.222L71.75 335.694L71.9444 334.889L72 333L71.9722 332.028L71.9444 331.111L71.75 330.306L71.7222 329.778L71 329z"/>
<path style="fill:#ff0000; stroke:none;" d="M29 336L28 337L28 339L28.9444 338.25L29.0833 337.806L29.4444 336.75L29 336z"/>
<path style="fill:#d52727; stroke:none;" d="M30 337L30 345L39 345L39 337L30 337z"/>
<path style="fill:#d30000; stroke:none;" d="M39 337L39 345L30 345L30.7778 345.722L31.3056 345.75L32.1111 345.944L33.0278 345.972L35 346L36.9444 346L40 346L40 342.944L40 342L39.9722 340.028L39.9444 339.111L39.75 338.306L39.7222 337.778L39 337z"/>
<path style="fill:#e99d9d; stroke:none;" d="M40 337L40 347L50 347L50 337L40 337z"/>
<path style="fill:#e97171; stroke:none;" d="M50 337L50.7778 337.722L51.3056 337.75L52.1111 337.944L53.0278 337.972L55 338L56.9444 338L60 338L59.2222 337.278L58.6944 337.25L57.8889 337.056L56.9722 337.028L55 337L53.0556 337L50 337z"/>
<path style="fill:#ff0000; stroke:none;" d="M71 337L72 338L71 337z"/>
<path style="fill:#e9bcbc; stroke:none;" d="M41 338L41 346L49 346L49 338L41 338z"/>
<path style="fill:#e90000; stroke:none;" d="M50 338L50 347L50.7222 346.222L50.75 345.694L50.9444 344.889L50.9722 343.972L51 342.056L51 341.056L51 339L60 339L59.2222 338.278L58.6944 338.25L57.8889 338.056L56.9722 338.028L55 338L53.0556 338L50 338z"/>
<path style="fill:#800000; stroke:none;" d="M70 338L71 339L70 338z"/>
<path style="fill:#aa0000; stroke:none;" d="M28 339L29 340L28 339z"/>
<path style="fill:#e92b2b; stroke:none;" d="M51 339L51 347L61 347L61 339L51 339z"/>
<path style="fill:#ff4040; stroke:none;" d="M62 339L62.7778 339.722L63.3056 339.75L64.1111 339.944L65.0278 339.972L65.9444 340L66.9444 340L69 340L68.2222 339.278L67.6944 339.25L66.8889 339.056L65.9722 339.028L65.0556 339L64.0556 339L62 339z"/>
<path style="fill:#ff0000; stroke:none;" d="M69 339L70 340L69 339M28 340L28 343L28.6944 342.25L28.6944 341.194L28.6944 340.75L28 340M62 340L62 347L62.7222 346.222L62.75 345.694L62.9444 344.889L62.9722 343.972L62.9444 342.111L62.75 341.306L62.7222 340.778L62 340z"/>
<path style="fill:#db2424; stroke:none;" d="M28.3333 343.667L28.3333 344.333L28.6667 344.333L28.6667 344L28.3333 343.667z"/>
<path style="fill:#800000; stroke:none;" d="M20 344L21 345L20 344z"/>
<path style="fill:#bf4040; stroke:none;" d="M21 344L21.7778 344.722L22.3056 344.75L23.1111 344.944L24.0278 344.972L24.9444 345L25.9444 345L28 345L27.2222 344.278L26.6944 344.25L25.8889 344.056L24.9722 344.028L24.0556 344L23.0556 344L21 344z"/>
<path style="fill:#800000; stroke:none;" d="M19 345L20 346L19 345z"/>
<path style="fill:#ff0000; stroke:none;" d="M18 346L19 347L18 346z"/>
<path style="fill:#d52929; stroke:none;" d="M20 346L20 356L30 356L29.4167 353.944L29.2222 352.944L29.0833 352L29 350L29 349.056L29 348.056L29 346L20 346z"/>
<path style="fill:#d40000; stroke:none;" d="M29 346L29 355L29.7222 354.222L29.75 353.694L29.9444 352.889L29.9722 351.972L30 350L29.9444 348.111L29.75 347.306L29.7222 346.778L29 346z"/>
<path style="fill:#d85252; stroke:none;" d="M30 346L30 356L30.7222 355.222L30.75 354.694L30.9444 353.889L30.9722 352.972L31 351L30.9722 349.028L30.9444 348.111L30.75 347.306L30.7222 346.778L30 346z"/>
<path style="fill:#dc7979; stroke:none;" d="M31 346L31.7778 346.722L32.3056 346.75L33.1111 346.944L34.0278 346.972L36 347L36.9444 347L40 347L39.2222 346.278L38.6944 346.25L37.8889 346.056L36.9722 346.028L35 346L34.0556 346L31 346z"/>
<path style="fill:#232625; stroke:none;" d="M148 346L148 366L157 366L157 347L177 347L177 376L186 376L186 347L183.944 347L182.944 347L181 346.972L180 346.917L178 346.611L177 346.389L175 346.083L174 346.028L172 346L171 346L165 346L148 346M216 346L216 376L235 376L235 347L255 347L254.222 346.278L253.694 346.25L252.889 346.056L251.972 346.028L250 346L248 346L243 346L216 346z"/>
<path style="fill:#bf4040; stroke:none;" d="M18 347L18 354L18.7222 353.222L18.75 352.694L18.9444 351.889L18.9722 350.028L18.9444 349.111L18.75 348.306L18.7222 347.778L18 347z"/>
<path style="fill:#e9bdbd; stroke:none;" d="M31 347L31 356L40 356L40 347L31 347z"/>
<path style="fill:#e97070; stroke:none;" d="M40 347L40 356L40.7222 355.222L40.75 354.694L40.9444 353.889L40.9722 352.972L41 351L40.9444 349.111L40.75 348.306L40.7222 347.778L40 347z"/>
<path style="fill:#e90000; stroke:none;" d="M41 347L41 357L41.7222 356.222L41.75 355.694L41.9444 354.889L41.9722 353.972L42 352L42 351.056L42 348L50 348L49.2222 347.278L48.6944 347.25L47.8889 347.056L46.9722 347.028L45 347L44.0556 347L41 347z"/>
<path style="fill:#363b38; stroke:none;" d="M157 347L157 366L138 366L138 376L177 376L177 347L157 347z"/>
<path style="fill:#161820; stroke:none;" d="M186 347L186 376L186.722 375.222L186.75 374.694L186.944 373.889L186.972 372.972L187 371L187 370L187 368L187 355L187 353L187 352L186.972 350.028L186.944 349.111L186.75 348.306L186.722 347.778L186 347z"/>
<path style="fill:#3b403d; stroke:none;" d="M235 347L235 376L265 376L265 366L255 366L255 347L235 347z"/>
<path style="fill:#e92b2b; stroke:none;" d="M42 348L42 357L50 357L50 348L42 348z"/>
<path style="fill:#ff5555; stroke:none;" d="M51 348L52 349L51 348z"/>
<path style="fill:#ff0000; stroke:none;" d="M52 348L51 349L51 355L51.7222 354.222L51.75 353.694L51.9444 352.944L51.9722 352.028L52 350L53 349L58 349L57.2222 348.278L56.6944 348.25L55.8889 348.056L55.0278 348.028L54.0556 348L52 348z"/>
<path style="fill:#800000; stroke:none;" d="M58 348L59 349L58 348z"/>
<path style="fill:#ff0000; stroke:none;" d="M59 348L60 349L59 348z"/>
<path style="fill:#800000; stroke:none;" d="M11 353L12 354L11 353z"/>
<path style="fill:#ff0000; stroke:none;" d="M12 353L12.7778 353.722L13.3056 353.75L14.1111 353.944L14.9722 353.972L15.9444 354L18 354L17.2222 353.278L16.6944 353.25L15.8889 353.056L15.0278 353.028L14.0556 353L12 353z"/>
<path style="fill:#d52828; stroke:none;" d="M11 355L11 365L19 365L19 355L11 355z"/>
<path style="fill:#800000; stroke:none;" d="M51 355L52 356L51 355z"/>
<path style="fill:#ff0000; stroke:none;" d="M8 356L8 364L1 364L1.77778 364.722L2.30556 364.75L3.11111 364.944L4.02778 364.972L5.94444 365L6.94444 365L9 365L9 361.944L9 361L8.97222 359.028L8.94444 358.111L8.75 357.306L8.72222 356.778L8 356z"/>
<path style="fill:#d21010; stroke:none;" d="M19 356L19 365L11 365L11.7778 365.722L12.3056 365.75L13.1111 365.944L14.0278 365.972L16 366L16.9444 366L20 366L20 362.944L20 361L19.9722 359.028L19.9444 358.111L19.75 357.306L19.7222 356.778L19 356z"/>
<path style="fill:#e75d5d; stroke:none;" d="M20 356L20 366L20.7222 365.222L20.75 364.694L20.9444 363.889L20.9722 362.972L21 361L20.9722 359.028L20.9444 358.111L20.75 357.306L20.7222 356.778L20 356z"/>
<path style="fill:#ff8888; stroke:none;" d="M21 356L21 366L31 366L31 356L21 356z"/>
<path style="fill:#e94848; stroke:none;" d="M31 356L31.7778 356.722L32.3056 356.75L33.1111 356.944L34.0278 356.972L36 357L37.9444 357L41 357L40.2222 356.278L39.6944 356.25L38.8889 356.056L37.9722 356.028L36 356L34.0556 356L31 356z"/>
<path style="fill:#ea2b2b; stroke:none;" d="M31 357L31 367L41 367L41 358L38.9444 358L37.9444 358L37 358L35 357.917L34.0556 357.778L33.0556 357.583L31 357z"/>
<path style="fill:#e91111; stroke:none;" d="M32 357L32.7778 357.722L33.3056 357.75L34.1111 357.944L35.0278 357.972L37 358L37.9444 358L41 358L40.2222 357.278L39.6944 357.25L38.8889 357.056L37.9722 357.028L36 357L35.0556 357L32 357z"/>
<path style="fill:#ff0000; stroke:none;" d="M50 357L51 358L50 357z"/>
<path style="fill:#ff4040; stroke:none;" d="M42 358L42 366L42.7222 365.222L42.75 364.694L42.9444 363.889L42.9722 362.972L43 362L42.9444 360.111L42.75 359.306L42.7222 358.778L42 358z"/>
<path style="fill:#ff0000; stroke:none;" d="M43 358L43.7778 358.722L44.3056 358.75L45.0556 358.944L45.9722 358.972L48 359L47.2222 358.278L46.6944 358.25L45.9444 358.056L45.0278 358.028L43 358z"/>
<path style="fill:#800000; stroke:none;" d="M48.6667 358.333L48.6667 358.667L49.3333 358.667L49 358.333L48.6667 358.333z"/>
<path style="fill:#e92b2b; stroke:none;" d="M0 366L0 376L11 376L11 366L0 366z"/>
<path style="fill:#f66f6f; stroke:none;" d="M11 366L11 376L11.7222 375.222L11.75 374.694L11.9444 373.889L11.9722 372.972L12 371L12 370.056L12 367L20 367L20 376L20.7222 375.222L20.75 374.694L20.9444 373.889L20.9722 372.972L21 371L21 369.056L21 366L11 366z"/>
<path style="fill:#f05858; stroke:none;" d="M21 366L21.7778 366.722L22.3056 366.75L23.1111 366.944L24.0278 366.972L26 367L27.9444 367L31 367L30.2222 366.278L29.6944 366.25L28.8889 366.056L27.9722 366.028L26 366L24.0556 366L21 366z"/>
<path style="fill:#ff0000; stroke:none;" d="M42 366L43 367L42 366z"/>
<path style="fill:#212429; stroke:none;" d="M99 366L99.7778 366.722L100.306 366.75L101.111 366.944L102.028 366.972L104 367L105.944 367L109 367L108.222 366.278L107.694 366.25L106.889 366.056L105.972 366.028L104 366L102.056 366L99 366z"/>
<path style="fill:#34393a; stroke:none;" d="M109 366L109.778 366.722L110.306 366.75L111.111 366.944L112.028 366.972L114 367L114.944 367L118 367L117.222 366.278L116.694 366.25L115.889 366.056L114.972 366.028L113 366L112.056 366L109 366z"/>
<path style="fill:#22252a; stroke:none;" d="M137 366L137 376L137.722 375.222L137.75 374.694L137.944 373.889L137.972 372.972L138 371L137.972 369.028L137.944 368.111L137.75 367.306L137.722 366.778L137 366z"/>
<path style="fill:#ff8888; stroke:none;" d="M12 367L12 376L20 376L20 367L12 367z"/>
<path style="fill:#e71212; stroke:none;" d="M21 367L21 376L21.7222 375.222L21.75 374.694L21.9444 373.889L21.9722 372.972L22 371.056L22 370.056L22 368L31 368L30.2222 367.278L29.6944 367.25L28.8889 367.056L27.9722 367.028L26 367L24.0556 367L21 367z"/>
<path style="fill:#800000; stroke:none;" d="M41 367L42 368L41 367z"/>
<path style="fill:#000000; stroke:none;" d="M197 367L197 386L205 386L205 377L205 375L205 374L205 373L205.083 371L205.222 370.056L205.417 369.056L206 367L197 367z"/>
<path style="fill:#ea2b2b; stroke:none;" d="M22 368L22 376L32 376L31.75 374.5L31.4722 372.944L31.4444 372L31.4722 371.056L31.75 369.5L32 368L22 368z"/>
<path style="fill:#ff4040; stroke:none;" d="M33 368L33.7778 368.722L34.3056 368.75L35.1111 368.944L36.0278 368.972L36.9444 369L37.9444 369L40 369L39.2222 368.278L38.6944 368.25L37.8889 368.056L36.9722 368.028L36.0556 368L35.0556 368L33 368z"/>
<path style="fill:#ff0000; stroke:none;" d="M40 368L41 369L40 368z"/>
<path style="fill:#000033; stroke:none;" d="M125.667 368.333L126 368.667L126.333 368.667L126.333 368.333L125.667 368.333M198.667 368.333L199 368.667L199.333 368.667L199 368.333L198.667 368.333z"/>
<path style="fill:#800000; stroke:none;" d="M33 369L34 370L33 369z"/>
<path style="fill:#cc3333; stroke:none;" d="M31 370L31 374L31.7222 373.222L31.8889 372L31.7222 371.278L31.7222 370.778L31 370z"/>
<path style="fill:#ff0000; stroke:none;" d="M33 370L33 376L33.7222 375.222L33.75 374.694L33.9444 373.889L33.9444 372.111L33.75 371.306L33.7222 370.778L33 370z"/>
<path style="fill:#000018; stroke:none;" d="M138 376L138.778 376.722L139.306 376.75L140.111 376.944L141.028 376.972L143 377L145 377L150 377L177 377L176.222 376.278L175.694 376.25L174.889 376.056L173.972 376.028L172 376L170 376L165 376L138 376z"/>
<path style="fill:#ff0000; stroke:none;" d="M4 378L4.77778 378.722L5.30556 378.75L6.11111 378.944L7.02778 378.972L8 379L9 379L11 379L21 379L21 377L17.9444 377L16 377L14 377.028L13 377.083L11 377.389L10 377.611L8 377.917L7.05556 377.972L6.05556 378L4 378M29.3333 377.667L29.3333 378.333L29.6667 378.333L29.6667 378L29.3333 377.667M2 378L3 379L2 378M22 378L22.7778 378.722L23.3056 378.75L24.1111 378.944L24.9722 378.972L25.9444 379L28 379L27.2222 378.278L26.6944 378.25L25.8889 378.056L25.0278 378.028L24.0556 378L22 378z"/>
</svg>
