<?xml version="1.0" standalone="yes"?>
<svg xmlns="http://www.w3.org/2000/svg" width="294" height="386">
<path style="fill:#ffffff; stroke:none;" d="M0 0L0 386L294 386L294 0L0 0z"/>
<path style="fill:#bbbbbb; stroke:none;" d="M104 26L104 34L112 34L112 42L120 42L120 34L112 34L112 26L104 26z"/>
<path style="fill:#000000; stroke:none;" d="M112 26L112 34L160 34L160 42L176 42L176 50L184 50L184 58L192 58L192 66L200 66L200 82L80 82L80 90L208 90L208 130L200 130L200 138L216 138L216 82L208 82L208 66L200 66L200 50L192 50L192 42L176 42L176 34L160 34L160 26L112 26z"/>
<path style="fill:#bbbbbb; stroke:none;" d="M160 26L160 34L168 34L168 26L160 26M88 34L88 50L80 50L80 58L88 58L88 50L96 50L96 34L88 34z"/>
<path style="fill:#000000; stroke:none;" d="M96 34L96 42L112 42L112 34L96 34z"/>
<path style="fill:#ffffff; stroke:none;" d="M120 34L120 42L96 42L96 50L88 50L88 58L80 58L80 74L72 74L72 82L200 82L200 66L192 66L192 58L184 58L184 50L176 50L176 42L152 42L152 34L120 34z"/>
<path style="fill:#bbbbbb; stroke:none;" d="M152 34L152 42L160 42L160 34L152 34z"/>
<path style="fill:#000000; stroke:none;" d="M80 42L80 50L88 50L88 42L80 42M72 50L72 66L64 66L64 82L56 82L56 138L64 138L64 146L72 146L72 130L64 130L64 82L72 82L72 74L80 74L80 50L72 50z"/>
<path style="fill:#bbbbbb; stroke:none;" d="M64 82L64 90L80 90L80 82L64 82z"/>
<path style="fill:#ffffff; stroke:none;" d="M64 90L64 122L80 122L80 130L104 130L104 138L88 138L88 146L80 146L80 138L72 138L72 146L56 146L56 186L88 186L88 178L112 178L112 202L96 202L96 210L120 210L120 178L128 178L128 170L160 170L160 178L184 178L184 194L200 194L200 186L208 186L208 162L200 162L200 170L192 170L192 154L200 154L200 138L192 138L192 146L184 146L184 138L176 138L176 130L184 130L184 122L168 122L168 114L160 114L160 106L152 106L152 98L128 98L128 106L120 106L120 114L104 114L104 122L80 122L80 114L72 114L72 98L96 98L96 90L64 90z"/>
<path style="fill:#bbbbbb; stroke:none;" d="M96 90L96 98L120 98L120 106L112 106L112 114L120 114L120 106L128 106L128 98L192 98L192 106L184 106L184 114L168 114L168 122L184 122L184 130L176 130L176 138L184 138L184 146L192 146L192 138L200 138L200 130L208 130L208 90L96 90M72 98L72 114L88 114L88 122L104 122L104 114L88 114L88 106L80 106L80 98L72 98z"/>
<path style="fill:#000000; stroke:none;" d="M80 98L80 106L88 106L88 114L112 114L112 106L120 106L120 98L80 98M152 98L152 106L160 106L160 114L184 114L184 106L192 106L192 98L152 98M80 114L80 122L88 122L88 114L80 114M184 114L184 122L192 122L192 114L184 114z"/>
<path style="fill:#bbbbbb; stroke:none;" d="M64 122L64 130L72 130L72 138L80 138L80 146L88 146L88 138L104 138L104 130L80 130L80 122L64 122M104 122L104 130L112 130L112 122L104 122M160 122L160 130L168 130L168 122L160 122M120 130L120 138L128 138L128 130L120 130z"/>
<path style="fill:#000000; stroke:none;" d="M128 130L128 138L112 138L112 146L104 146L104 154L120 154L120 146L152 146L152 154L168 154L168 146L160 146L160 138L144 138L144 130L128 130z"/>
<path style="fill:#bbbbbb; stroke:none;" d="M144 130L144 138L152 138L152 130L144 130M56 138L56 146L64 146L64 138L56 138M200 138L200 154L192 154L192 162L200 162L200 154L208 154L208 178L216 178L216 138L200 138z"/>
<path style="fill:#000000; stroke:none;" d="M48 146L48 186L56 186L56 146L48 146z"/>
<path style="fill:#bbbbbb; stroke:none;" d="M96 146L96 154L88 154L88 162L112 162L112 154L104 154L104 146L96 146M168 146L168 154L160 154L160 162L184 162L184 154L176 154L176 146L168 146z"/>
<path style="fill:#000000; stroke:none;" d="M216 146L216 178L208 178L208 186L200 186L200 194L216 194L216 186L224 186L224 146L216 146z"/>
<path style="fill:#555555; stroke:none;" d="M64 154L64 162L72 162L72 170L80 170L80 162L72 162L72 154L64 154M200 154L200 162L208 162L208 154L200 154M192 162L192 170L200 170L200 162L192 162z"/>
<path style="fill:#bbbbbb; stroke:none;" d="M80 170L80 178L88 178L88 170L80 170z"/>
<path style="fill:#555555; stroke:none;" d="M128 170L128 178L120 178L120 218L152 218L152 178L144 178L144 170L128 170z"/>
<path style="fill:#bbbbbb; stroke:none;" d="M144 170L144 178L152 178L152 202L168 202L168 194L160 194L160 186L168 186L168 178L160 178L160 170L144 170z"/>
<path style="fill:#555555; stroke:none;" d="M184 170L184 178L192 178L192 170L184 170z"/>
<path style="fill:#bbbbbb; stroke:none;" d="M88 178L88 186L72 186L72 194L64 194L64 202L72 202L72 194L88 194L88 202L96 202L96 194L88 194L88 186L96 186L96 178L88 178z"/>
<path style="fill:#000000; stroke:none;" d="M96 178L96 186L88 186L88 194L96 194L96 202L104 202L104 194L112 194L112 186L104 186L104 178L96 178z"/>
<path style="fill:#bbbbbb; stroke:none;" d="M104 178L104 186L112 186L112 178L104 178z"/>
<path style="fill:#000000; stroke:none;" d="M168 178L168 186L160 186L160 194L168 194L168 202L176 202L176 210L192 210L192 290L200 290L200 274L208 274L208 282L224 282L224 274L248 274L248 258L240 258L240 242L232 242L232 226L224 226L224 218L216 218L216 210L200 210L200 194L184 194L184 186L176 186L176 178L168 178z"/>
<path style="fill:#bbbbbb; stroke:none;" d="M176 178L176 186L184 186L184 178L176 178z"/>
<path style="fill:#000000; stroke:none;" d="M56 186L56 194L72 194L72 186L56 186M72 194L72 202L64 202L64 210L56 210L56 218L48 218L48 226L40 226L40 242L32 242L32 258L24 258L24 274L48 274L48 266L32 266L32 258L40 258L40 250L64 250L64 266L56 266L56 282L64 282L64 290L72 290L72 330L64 330L64 306L56 306L56 330L40 330L40 338L80 338L80 354L88 354L88 330L80 330L80 322L88 322L88 314L120 314L120 322L112 322L112 330L136 330L136 362L144 362L144 370L208 370L208 362L144 362L144 330L184 330L184 322L152 322L152 314L160 314L160 306L144 306L144 282L152 282L152 274L168 274L168 266L112 266L112 274L96 274L96 282L120 282L120 274L136 274L136 282L128 282L128 306L136 306L136 314L120 314L120 306L80 306L80 234L72 234L72 242L48 242L48 226L56 226L56 218L72 218L72 226L80 226L80 210L96 210L96 202L88 202L88 194L72 194z"/>
<path style="fill:#bbbbbb; stroke:none;" d="M104 194L104 202L112 202L112 194L104 194M176 194L176 202L184 202L184 194L176 194z"/>
<path style="fill:#ffffff; stroke:none;" d="M152 202L152 218L192 218L192 210L176 210L176 202L152 202z"/>
<path style="fill:#bbbbbb; stroke:none;" d="M200 202L200 210L208 210L208 202L200 202z"/>
<path style="fill:#ffffff; stroke:none;" d="M80 210L80 266L88 266L88 274L80 274L80 306L128 306L128 314L136 314L136 306L128 306L128 282L88 282L88 274L104 274L104 266L128 266L128 234L136 234L136 258L144 258L144 266L160 266L160 258L192 258L192 234L160 234L160 226L152 226L152 234L136 234L136 226L128 226L128 218L88 218L88 210L80 210z"/>
<path style="fill:#bbbbbb; stroke:none;" d="M88 210L88 218L120 218L120 210L88 210M56 218L56 226L72 226L72 234L64 234L64 242L72 242L72 234L80 234L80 226L72 226L72 218L56 218M128 218L128 226L136 226L136 234L152 234L152 226L160 226L160 234L192 234L192 218L128 218M200 218L200 242L216 242L216 234L208 234L208 218L200 218z"/>
<path style="fill:#ffffff; stroke:none;" d="M48 226L48 242L64 242L64 234L72 234L72 226L48 226M208 226L208 234L224 234L224 226L208 226z"/>
<path style="fill:#bbbbbb; stroke:none;" d="M128 234L128 266L144 266L144 258L136 258L136 234L128 234z"/>
<path style="fill:#ffffff; stroke:none;" d="M216 242L216 250L208 250L208 258L232 258L232 242L216 242M40 250L40 258L32 258L32 266L56 266L56 250L40 250z"/>
<path style="fill:#bbbbbb; stroke:none;" d="M56 250L56 266L64 266L64 250L56 250M200 250L200 258L208 258L208 250L200 250M160 258L160 266L168 266L168 274L152 274L152 282L160 282L160 290L168 290L168 274L192 274L192 258L160 258M208 258L208 274L224 274L224 266L240 266L240 258L208 258M48 266L48 282L56 282L56 290L64 290L64 298L56 298L56 306L48 306L48 322L40 322L40 314L24 314L24 322L32 322L32 330L48 330L48 322L56 322L56 306L72 306L72 290L64 290L64 282L56 282L56 266L48 266M80 266L80 274L88 274L88 266L80 266M104 266L104 274L112 274L112 266L104 266M24 274L24 282L32 282L32 274L24 274z"/>
<path style="fill:#ffffff; stroke:none;" d="M32 274L32 314L40 314L40 322L48 322L48 306L56 306L56 298L64 298L64 290L56 290L56 282L48 282L48 274L32 274z"/>
<path style="fill:#bbbbbb; stroke:none;" d="M64 274L64 282L72 282L72 274L64 274M88 274L88 282L96 282L96 274L88 274M120 274L120 282L136 282L136 274L120 274z"/>
<path style="fill:#555555; stroke:none;" d="M168 274L168 314L200 314L200 290L192 290L192 306L176 306L176 282L192 282L192 274L168 274z"/>
<path style="fill:#bbbbbb; stroke:none;" d="M200 274L200 306L208 306L208 330L216 330L216 306L224 306L224 298L216 298L216 290L224 290L224 282L232 282L232 274L224 274L224 282L208 282L208 274L200 274z"/>
<path style="fill:#ffffff; stroke:none;" d="M232 274L232 282L224 282L224 290L216 290L216 298L224 298L224 330L232 330L232 322L240 322L240 314L248 314L248 282L240 282L240 274L232 274z"/>
<path style="fill:#bbbbbb; stroke:none;" d="M240 274L240 282L248 282L248 274L240 274z"/>
<path style="fill:#555555; stroke:none;" d="M248 274L248 314L256 314L256 274L248 274z"/>
<path style="fill:#000000; stroke:none;" d="M24 282L24 314L32 314L32 282L24 282z"/>
<path style="fill:#ffffff; stroke:none;" d="M144 282L144 306L160 306L160 314L152 314L152 322L184 322L184 330L192 330L192 322L184 322L184 314L168 314L168 306L160 306L160 282L144 282M176 282L176 306L184 306L184 282L176 282z"/>
<path style="fill:#bbbbbb; stroke:none;" d="M184 282L184 306L192 306L192 282L184 282z"/>
<path style="fill:#000000; stroke:none;" d="M160 290L160 298L168 298L168 290L160 290z"/>
<path style="fill:#bbbbbb; stroke:none;" d="M160 298L160 306L168 306L168 298L160 298z"/>
<path style="fill:#ffffff; stroke:none;" d="M64 306L64 330L72 330L72 306L64 306z"/>
<path style="fill:#bbbbbb; stroke:none;" d="M120 306L120 314L128 314L128 306L120 306z"/>
<path style="fill:#ffffff; stroke:none;" d="M200 306L200 322L208 322L208 306L200 306z"/>
<path style="fill:#555555; stroke:none;" d="M216 306L216 338L240 338L240 330L224 330L224 306L216 306z"/>
<path style="fill:#bbbbbb; stroke:none;" d="M88 314L88 338L120 338L120 346L88 346L88 354L120 354L120 362L136 362L136 330L112 330L112 314L88 314z"/>
<path style="fill:#ffffff; stroke:none;" d="M112 314L112 322L120 322L120 314L112 314z"/>
<path style="fill:#bbbbbb; stroke:none;" d="M184 314L184 322L192 322L192 314L184 314z"/>
<path style="fill:#000000; stroke:none;" d="M192 314L192 338L184 338L184 354L192 354L192 338L208 338L208 322L200 322L200 314L192 314z"/>
<path style="fill:#bbbbbb; stroke:none;" d="M240 314L240 322L232 322L232 330L248 330L248 322L256 322L256 314L240 314z"/>
<path style="fill:#ffffff; stroke:none;" d="M48 322L48 330L56 330L56 322L48 322M80 322L80 330L88 330L88 322L80 322M96 322L96 330L104 330L104 322L96 322z"/>
<path style="fill:#bbbbbb; stroke:none;" d="M144 330L144 338L152 338L152 362L168 362L168 354L184 354L184 346L168 346L168 338L192 338L192 330L144 330z"/>
<path style="fill:#ffffff; stroke:none;" d="M88 338L88 346L120 346L120 338L88 338M144 338L144 362L152 362L152 338L144 338M168 338L168 346L184 346L184 338L168 338z"/>
<path style="fill:#bbbbbb; stroke:none;" d="M64 346L64 354L56 354L56 370L64 370L64 362L72 362L72 354L80 354L80 346L64 346M192 346L192 354L200 354L200 362L208 362L208 370L216 370L216 354L208 354L208 346L192 346z"/>
<path style="fill:#ffffff; stroke:none;" d="M72 354L72 362L120 362L120 354L72 354M168 354L168 362L200 362L200 354L168 354z"/>
<path style="fill:#000000; stroke:none;" d="M64 362L64 370L128 370L128 362L64 362z"/>
<path style="fill:#bbbbbb; stroke:none;" d="M136 362L136 370L144 370L144 362L136 362z"/>
</svg>
